<mxfile modified="2023-10-25T18:59:03.827Z" host="app.diagrams.net" agent="Mozilla/5.0 (Macintosh; Intel Mac OS X 10_15_7) AppleWebKit/537.36 (KHTML, like Gecko) Chrome/117.0.0.0 Safari/537.36" etag="Im8ylFMIeWoYyb9W-n7L" version="22.0.8" type="device">
  <diagram id="Ht1M8jgEwFfnCIfOTk4-" name="Page-1">
    <mxGraphModel dx="830" dy="537" grid="0" gridSize="10" guides="1" tooltips="1" connect="1" arrows="1" fold="1" page="1" pageScale="1" pageWidth="1169" pageHeight="827" background="none" math="0" shadow="0">
      <root>
        <mxCell id="0" />
        <mxCell id="1" parent="0" />
        <mxCell id="UEzPUAAOIrF-is8g5C7q-109" value="Developer&#39;s workstation" style="outlineConnect=0;gradientColor=none;fontColor=#FFFFFF;strokeColor=none;fillColor=#879196;dashed=0;verticalLabelPosition=bottom;verticalAlign=top;align=center;html=1;fontSize=12;fontStyle=0;aspect=fixed;shape=mxgraph.aws4.illustration_desktop;pointerEvents=1;labelBackgroundColor=#000000;labelBorderColor=#121212;" parent="1" vertex="1">
          <mxGeometry x="127" y="347.82" width="100" height="91" as="geometry" />
        </mxCell>
        <mxCell id="QPryyxgIFDQZirliz8h7-1" value="Amazon EC2" style="outlineConnect=0;dashed=0;verticalLabelPosition=bottom;verticalAlign=top;align=center;html=1;shape=mxgraph.aws3.ec2;fillColor=#F58534;gradientColor=none;fontColor=#FFFFFF;labelBackgroundColor=#000000;labelBorderColor=#121212;" parent="1" vertex="1">
          <mxGeometry x="440" y="347.82" width="62.5" height="72.64" as="geometry" />
        </mxCell>
        <mxCell id="QPryyxgIFDQZirliz8h7-69" value="" style="edgeStyle=orthogonalEdgeStyle;rounded=0;orthogonalLoop=1;jettySize=auto;html=1;fontColor=#FFFFFF;labelBackgroundColor=#000000;labelBorderColor=#121212;" parent="1" source="QPryyxgIFDQZirliz8h7-7" target="UEzPUAAOIrF-is8g5C7q-122" edge="1">
          <mxGeometry relative="1" as="geometry" />
        </mxCell>
        <mxCell id="QPryyxgIFDQZirliz8h7-7" value="MLB Rumors Website" style="shape=image;verticalLabelPosition=bottom;labelBackgroundColor=#000000;verticalAlign=top;aspect=fixed;imageAspect=0;image=data:image/png,iVBORw0KGgoAAAANSUhEUgAAAUIAAAEmCAYAAAAXyJnQAAAMQGlDQ1BJQ0MgUHJvZmlsZQAASImVVwdYU8kWnluSkEAIEEBASuhNEKkBpITQAkgvgo2QBAglxISgYkcXFVy7WMCGrooodkDsiJ1FsWFfLKgo62LBrrxJAV33le/N982d//5z5j9nzp259w4AtBNcsTgP1QIgX1QoiQ8LYoxOTWOQngIMaAEa0AMIlycVs2JjowAsA+3fy7sbAJG3V53kWv/s/69Fmy+Q8gBAYiHO4Et5+RAfAACv4oklhQAQ5bzlpEKxHMMKdCUwQIjny3GWElfJcYYS71HYJMazIW4BQE2Dy5VkAaB5GfKMIl4W1NDshdhFxBeKAKAxIPbPzy/gQ5wOsR20EUMs12dm/KCT9TfNjEFNLjdrECvnoihqwUKpOI875f9Mx/8u+XmyAR82sGpkS8Lj5XOGebuZWxApxxoQ94gyomMg1oH4g5CvsIcYpWTLwpOU9qgxT8qGOQP6ELvwucGREBtDHCrKi45S8RmZwlAOxHCFoJOFhZxEiA0gni+QhiSobDZKCuJVvtD6TAmbpeLPcSUKv3Jf92W5SSyV/utsAUelj2kWZyemQEyB2KpImBwNsSbEztLchEiVzcjibHb0gI1EFi+P3wrieIEoLEipjxVlSkLjVfZl+dKB+WIbs4WcaBXeV5idGK7MD9bC4yrih3PBLgtErKQBHYF0dNTAXPiC4BDl3LFnAlFSgkrng7gwKF45FqeI82JV9riFIC9MzltA7C4tSlCNxZML4YJU6uOZ4sLYRGWceHEONyJWGQ++BEQBNggGDCCDNQMUgBwgbOtp6IF3yp5QwAUSkAUEwEnFDIxIUfSI4DUBFIM/IRIA6eC4IEWvABRB/usgq7w6gUxFb5FiRC54AnE+iAR58F6mGCUa9JYMHkNG+A/vXFh5MN48WOX9/54fYL8zLMhEqRjZgEcGbcCSGEIMJoYTQ4n2uBHuj/viUfAaCKsrzsS9B+bx3Z7whNBOeEi4Tugk3JogLJH8FOUo0An1Q1W5yPgxF7gN1PTAg3A/qA6VcX3cCDjh7tAPCw+Anj0gy1bFLc8K4yftv83gh6ehsiO7kFHyEHIg2e7nkZoOmh6DKvJc/5gfZawZg/lmD/b87J/9Q/b5sI382RKbj+3HzmInsfPYEawBMLDjWCPWih2V48HV9Vixuga8xSviyYU6wn/4G3iy8kxKXWpdul2+KPsKBZPl72jALhBPkQizsgsZLPhFEDA4Ip7zMIari6sbAPLvi/L19SZO8d1A9Fu/c3P+AMDveH9//+HvXMRxAPZ6we1/6Dtnx4SfDnUAzh3iySRFSg6XXwjwLUGDO80QmAJLYAfn4wo8gS8IBCEgAsSARJAKxsPos+E6l4BJYBqYDUpBOVgCVoK1YAPYDLaDXWAfaABHwElwBlwEl8F1cAeuni7wAvSCd+AzgiAkhIrQEUPEDLFGHBFXhIn4IyFIFBKPpCLpSBYiQmTINGQOUo4sQ9Yim5AaZC9yCDmJnEfakVvIA6QbeY18QjFUA9VFTVAbdDjKRFloJJqIjkOz0IloMToXXYSuRqvRnWg9ehK9iF5HO9EXaB8GMHVMHzPHnDAmxsZisDQsE5NgM7AyrAKrxuqwJvicr2KdWA/2ESfidJyBO8EVHI4n4Tx8Ij4DX4ivxbfj9XgLfhV/gPfi3whUgjHBkeBD4BBGE7IIkwilhArCVsJBwmm4l7oI74hEoj7RlugF92IqMYc4lbiQuI64m3iC2E58ROwjkUiGJEeSHymGxCUVkkpJa0g7ScdJV0hdpA9q6mpmaq5qoWppaiK1ErUKtR1qx9SuqD1V+0zWIluTfcgxZD55CnkxeQu5iXyJ3EX+TNGm2FL8KImUHMpsympKHeU05S7ljbq6uoW6t3qculB9lvpq9T3q59QfqH/U0NFw0GBrjNWQaSzS2KZxQuOWxhsqlWpDDaSmUQupi6g11FPU+9QPmnRNZ02OJl9zpmalZr3mFc2XNDLNmsaijacV0ypo+2mXaD1aZC0bLbYWV2uGVqXWIa0OrT5tuvYI7RjtfO2F2ju0z2s/0yHp2OiE6PB15ups1jml84iO0S3pbDqPPoe+hX6a3qVL1LXV5ejm6Jbr7tJt0+3V09Fz10vWm6xXqXdUr1Mf07fR5+jn6S/W36d/Q//TEJMhrCGCIQuG1A25MuS9wVCDQAOBQZnBboPrBp8MGYYhhrmGSw0bDO8Z4UYORnFGk4zWG5026hmqO9R3KG9o2dB9Q28bo8YOxvHGU403G7ca95mYmoSZiE3WmJwy6THVNw00zTFdYXrMtNuMbuZvJjRbYXbc7DlDj8Fi5DFWM1oYvebG5uHmMvNN5m3mny1sLZIsSix2W9yzpFgyLTMtV1g2W/ZamVmNsppmVWt125pszbTOtl5lfdb6vY2tTYrNPJsGm2e2BrYc22LbWtu7dlS7ALuJdtV21+yJ9kz7XPt19pcdUAcPh2yHSodLjqijp6PQcZ1j+zDCMO9homHVwzqcNJxYTkVOtU4PnPWdo5xLnBucXw63Gp42fOnws8O/uXi45LlscbkzQmdExIiSEU0jXrs6uPJcK12vuVHdQt1mujW6vXJ3dBe4r3e/6UH3GOUxz6PZ46unl6fEs86z28vKK92ryquDqcuMZS5knvMmeAd5z/Q+4v3Rx9On0Gefz1++Tr65vjt8n420HSkYuWXkIz8LP67fJr9Of4Z/uv9G/84A8wBuQHXAw0DLQH7g1sCnLHtWDmsn62WQS5Ak6GDQe7YPezr7RDAWHBZcFtwWohOSFLI25H6oRWhWaG1ob5hH2NSwE+GE8MjwpeEdHBMOj1PD6Y3wipge0RKpEZkQuTbyYZRDlCSqaRQ6KmLU8lF3o62jRdENMSCGE7M85l6sbezE2MNxxLjYuMq4J/Ej4qfFn02gJ0xI2JHwLjEocXHinSS7JFlSczIteWxyTfL7lOCUZSmdo4ePnj76YqpRqjC1MY2Ulpy2Na1vTMiYlWO6xnqMLR17Y5ztuMnjzo83Gp83/ugE2gTuhP3phPSU9B3pX7gx3GpuXwYnoyqjl8fmreK94AfyV/C7BX6CZYKnmX6ZyzKfZfllLc/qzg7IrsjuEbKFa4WvcsJzNuS8z43J3Zbbn5eStztfLT89/5BIR5QraikwLZhc0C52FJeKOyf6TFw5sVcSKdkqRaTjpI2FuvBHvlVmJ/tF9qDIv6iy6MOk5En7J2tPFk1uneIwZcGUp8Whxb9NxafypjZPM582e9qD6azpm2YgMzJmNM+0nDl3ZtessFnbZ1Nm587+vcSlZFnJ2zkpc5rmmsydNffRL2G/1JZqlkpKO+b5ztswH58vnN+2wG3BmgXfyvhlF8pdyivKvyzkLbzw64hfV//avyhzUdtiz8XrlxCXiJbcWBqwdPsy7WXFyx4tH7W8fgVjRdmKtysnrDxf4V6xYRVllWxV5+qo1Y1rrNYsWfNlbfba65VBlburjKsWVL1fx193ZX3g+roNJhvKN3zaKNx4c1PYpvpqm+qKzcTNRZufbEnecvY35m81W422lm/9uk20rXN7/PaWGq+amh3GOxbXorWy2u6dY3de3hW8q7HOqW7Tbv3d5XvAHtme53vT997YF7mveT9zf90B6wNVB+kHy+qR+in1vQ3ZDZ2NqY3thyIONTf5Nh087Hx42xHzI5VH9Y4uPkY5NvdY//Hi430nxCd6TmadfNQ8ofnOqdGnrrXEtbSdjjx97kzomVNnWWePn/M7d+S8z/lDF5gXGi56Xqxv9Wg9+LvH7wfbPNvqL3ldarzsfbmpfWT7sSsBV05eDb565hrn2sXr0dfbbyTduNkxtqPzJv/ms1t5t17dLrr9+c6su4S7Zfe07lXcN75f/Yf9H7s7PTuPPgh+0Pow4eGdR7xHLx5LH3/pmvuE+qTiqdnTmmeuz450h3Zffj7medcL8YvPPaV/av9Z9dLu5YG/Av9q7R3d2/VK8qr/9cI3hm+2vXV/29wX23f/Xf67z+/LPhh+2P6R+fHsp5RPTz9P+kL6svqr/demb5Hf7vbn9/eLuRKu4lcAgxXNzATg9TYAqKkA0OH5jDJGef5TFER5ZlUg8J+w8oyoKJ4A1MH/97ge+HfTAcCeLfD4BfVpYwGIpQKQ6A1QN7fBOnBWU5wr5YUIzwEbOV8z8jPAvynKM+cPcf/cArmqO/i5/Rfc2nw7HdQXlQAAAIplWElmTU0AKgAAAAgABAEaAAUAAAABAAAAPgEbAAUAAAABAAAARgEoAAMAAAABAAIAAIdpAAQAAAABAAAATgAAAAAAAACQAAAAAQAAAJAAAAABAAOShgAHAAAAEgAAAHigAgAEAAAAAQAAAUKgAwAEAAAAAQAAASYAAAAAQVNDSUkAAABTY3JlZW5zaG90hsEpXgAAAAlwSFlzAAAWJQAAFiUBSVIk8AAAAdZpVFh0WE1MOmNvbS5hZG9iZS54bXAAAAAAADx4OnhtcG1ldGEgeG1sbnM6eD0iYWRvYmU6bnM6bWV0YS8iIHg6eG1wdGs9IlhNUCBDb3JlIDYuMC4wIj4KICAgPHJkZjpSREYgeG1sbnM6cmRmPSJodHRwOi8vd3d3LnczLm9yZy8xOTk5LzAyLzIyLXJkZi1zeW50YXgtbnMjIj4KICAgICAgPHJkZjpEZXNjcmlwdGlvbiByZGY6YWJvdXQ9IiIKICAgICAgICAgICAgeG1sbnM6ZXhpZj0iaHR0cDovL25zLmFkb2JlLmNvbS9leGlmLzEuMC8iPgogICAgICAgICA8ZXhpZjpQaXhlbFlEaW1lbnNpb24+Mjk0PC9leGlmOlBpeGVsWURpbWVuc2lvbj4KICAgICAgICAgPGV4aWY6UGl4ZWxYRGltZW5zaW9uPjMyMjwvZXhpZjpQaXhlbFhEaW1lbnNpb24+CiAgICAgICAgIDxleGlmOlVzZXJDb21tZW50PlNjcmVlbnNob3Q8L2V4aWY6VXNlckNvbW1lbnQ+CiAgICAgIDwvcmRmOkRlc2NyaXB0aW9uPgogICA8L3JkZjpSREY+CjwveDp4bXBtZXRhPgpzalDNAAAAHGlET1QAAAACAAAAAAAAAJMAAAAoAAAAkwAAAJMAABjJwFd/cgAAGJVJREFUeAHsXXuwVdV9PofLBeEKJgiIppcajYLGRNpOTSN50AhJ0wZNmlYbU60TpEZMnU7bzATTimSCjWlMGzMSOygGUnxEJzKE5iHoJA50OkmnRdD4mNaoTCuPyMTABZTH6eW37nfu2evstfdaa699zt5nf/zBb++11v6ttb61zne/vV673hj+d92Ny2on/q1a+T2xE884WWzP/Vfvy1alen+25/G07qdxRMXo4UhvsHXr+owxeIgG18eMjQZ43jWM5ao7eaxreDSA04gXPb7Ned2u3niuXs9Wf3O9kYNbefAUbH3MOFxmtNFy1B1xass8I25t/rSAcPWOOj607w0J+Nxn3lmrkwij4CTeaT/MxLRJkbof/MD18CQfw3EkwpQ/TI4/cBJhSoczRfcCEa5d953G1Z9UinBg8FRTVXsj3KhUHKvnSFhG77ofEmIsVLryozLMRxkCfG+FmBMh5qUIUd/Xnt1fq5MIAYeD1QnM4dFIUt0PiTACD25IhEBC2XDEEH1FRi6VJMJabXZjYHAGMKiGzaoMdQJzRQ3Pm4jPFJ6SD1+Vq/GqHI4I0aECEyLcBlaI4euNgg4PM5EIR8GwvgKRWT+gJcTzJsIzhWtu9FsSIYlQ7xN29yTC+thpcxvjT0rpQHZoli9VVmWIGoPYcO9rdT8gRPjT4xFusGZijO/4Bjc1ziZXczYZ/aEKr8okQrR2FutIUMasdD8kwlioOGYYhSXcK2P8H8hKEOHA4LxGFNYK32VViDqR+UIJPzoRwh/icW+wZkWIB+I7PmJ1S2VYTWXoTYToQIHHCptug62rHB4jJBEC1mFLImwBo/2SREgibO8VFiEkQguQipQkKxGiLpaKDcmNVvcDhaiHGx2oiHRlCAd2CpGEWE1CRC/xVogFJkQqQrTuCUsibEXDeE0iJBEaO0dSBIkwCZ0CxhWVEKEIAVlwZWinCJvZc28yoPCy5r3Jbu2gZx5u8gSe48vTS8qQihBt3WpJhK1oGK+pDPNShvHEY2wILYJEqAFicUsiTAKpqISIMkMhUhkCEbFcXqPgICFGukXiDYkwCR4SYRI6zTgqw7yUISD2U4gkQuCXbkmE6RiNpshKjI7KbTRj7Ur3A2WIZHo8wjXL2eSUHVWFOcbLjwi15h7eIZTPqTXeY4UoYAEmUUiEaAwbSyJMRInKMC9lSCJM7HiGSBfiJxEaQIwNzkqEcGqp2JDcaHU/uSlDtx8iCVERYqNxVJrO9cBX82wyeoJbe+ApWBeCwDPxNr4c3gqxi8qQRBjfwvGhJMJ4XLRQEiGJUOsSdrckQjucCpMqKyHqSi5rxXR/uSlDFDReCSAWloSY16syELZrB6SGDacI4TG+HGVShlSEaEsXSyK0QotESCK06ih6oi4oQxKh3gg+91mJEXnqyg7htlZ/HspQD0/xlz6bHK8ATG5JiHkRols7mNunWrPJwKFVGZMIgUoWSyJMRI9ESCJM7CCmyJyUIbIjEQKJULYoRIj66AqQyhDIRCx3oETgyG2dIXIp8pghFSFaKYslEVqhR2WYlzIE/NlelVsVEjz62fhykAj90CzfUyREqzYjIZIQrTqKKVHgV+YTfwCoCE1g+4STCK1QIxGSCK06iikRidCETMHCy0KIgE0fU0S4ZtNnk/FA/KsRYmFJiCRE9AUnG5gIT+RNRejUApaJSYRWQJEISYRWHUVPRCLUESnJfVZitFRsqWjofjCbjAf1eIRrlsqwLKfWoOHsFDpS6zavSRTvyRMUUCfEkb3dNT0c6RMsFWECOMGiSISJUFIZVlMZkggTfxY9GJmVCAGJpWJDcqPV/XgqQ/hPV4h2iqRohDhaP6UAGxpO+jpEpG9anmfYhCJ6Ed8fvIlRV4AeypCKMNpC+dyRCK1wJRHmpQzjiceqUVoS5fWKjCxIhECi121ZCFFXjCntEkoRIpuiEaKu/MqrDIGwHzGGI0KUAzZanmCECPcWlorQAqRgSUiEVlCSCPNShoA/SjwITbMkwjSEGO+GQChCRK6OCg6PNa3+PMbC9PDmA/EXVVeGQEVXkAgf3szbvHS5cD3hGr7LetK1tyJExfUxQ4QnWCrCBHByiyIRWkFbNmWISpEIgYStjf6BIBHa4tYr6UIRoqNyM8Kn+8lNGaIE0R8AQnVbNkI0EiEqRmUIJDQb3x+8idFBGVIRak3R0VsSoRXcJEIFU9VekdE5SIRAotdtUQhRV4TAPTdlGK8AkK1ui0aIKB8UYFVnk5s45PTd5KZ/TyVts9OEihAod9OSCK3QJxEWczYZjRduVjn+D2SeypBEiFYsgi0LIQIrk4JEvGbNs8rxHV97vHlbdUIEEHxVBhKWNmHMkERoiWFHkpEIrWAmESqYSIRW3WU0EYlwFItSXWUlRkfFZsRG95PbmCFKYKcQi0aIGCtELfQxQ4Tr6RDuus7QlwiRH9cZjiAxvDeZihC9ooiWRJjYKiTCao4Zeo8VojfpypBECGQKarMSIaqlKzqEu1rdT27K0E4RovhlI0SjIhytEK6crK9CzEsZhps8AQzx/cKbGFsIkYoQGBfRkgitWoVEqGAiEVp1l9FEJMJRLEpxRUK0aqaqE6IvEQLcvJQh/IdTiOGVIRUhWqnIlkRo1TokwmqOGaJzZHlFJhECxTLYshAisNTHFBGuWfP6QiSMVwCI1W3RCBHlw9igPpuMcKRrs447KvJThm7toNcjnCKE5/jy+BAiiRCYlsGSCK1aiUSYlzKMJx6rRhlORCK0RYrp3BDISoyWii21ULofzibHQqYrv/IqQ1TPjxjzJkQqQrRPVSyJMLGli6YMSYSquUiEid2Wkc4IZCVCZKgrOoS7Wt1PbsoQBbNTJCTEvF6V3doBqXUbjhjj+4ONQuQYod4qZbonEVq1FomQRJjWUUiEaQiVIb5yhIi//MdHWgf3yY1VdUIEOr6zynmtMwynCFHD+P6QpAxJhMCuzJZEaNV6JEIFE4mwvbuQCNsxKX9IVmLUx/p8EdH9cMwwFsm0SRQ8pKdDOE+taSKhXUSVIRWhBk/P35IIE5u4bMoQlSERAglbSyK0Rao302UlQqCiKzqEu1rdD5Qh/OjxCNdsr+9A0YmuqusM0ezhxg6jhNj037Jjh6/GQKWXLInQqjXLpgx1omyrZMsPuy0uJsB3rBCu8po8gX8SIZCgzYZAVkK0VGrOhYRfKEPcWzpKV4ZwFK8EEAtbdUJs4tByLBXCbGwvECIVoU1LlzUNidCq5UiECiZfhUgitOpmTNR1BLISIirgqNzwWJvV/VAZtkF0IkB/Fa7qmGG4V2TA3P6mQEUIbHrZkgitWrfqytBXEQLcvJQhiRAI04ZFICsx6orOt3S6n9yUYbsCSCpy1QkR2PgSYxkJkYoQrV4lSyJMbG0SoYKHRJjYTRhZegSyEiEA0BUdwm2t6XlPZYhszbPKVIbAyMb6EiF8m5WhWzvAn27DvTKP4XeNdXArcU8itGrmqitDEqFVN2GinkGgKMSoA2pSjHo67T6UIoTbUIQIf+1KqY4oL6vPLqc6SVl4nZUA9fzb64sU2ZRhOEU4PEM/MDivgWLRVhQBEmFiw5MIE+FJjSQRpkIUn+DIkWMScWTvIbGNY6+PJFThtdr4+AcZ6oVAva/P67nGMdu/6OO8/JsfynbQaLvf0P2pX8viyMi9Hq4lS70NheMbIznF++s7ZSC1JDYJjr2G8yLV73jsVIXzhKlvHnkc8fBm25+QPmqzKMRCKkISYbSB874jEZIIW/sYibAVjQ5ev35Y/cU8uvdVyXXugovEXnfNR8XOeef5YmfMmCZ24kCYv1jijP8RASKQCwIHh4bE765de8Vu+cl/i71rzY/Ebn/iFbGTZp8itlaDQuy8MiyEIiQRjvQDGiLQQwiQCC0bc2inUoDzF14sT3zty58Ve/7ssy09MBkRIAJlRWDHU89J0f/0hrvFPv3kbrETT8cbX+eUYVcVIYmwrF2Y5SYC2RGoPBEO7dwlKK5cdbPY66/9RHZU6YEIEIFSI3DLl74l5V++9IdiJ82eNFIfP2XoMovcFUVIIix1f2XhiUAuCFSGCEGA6zfcIUBetnBBLoDSKREgAuVF4Bur/1UKv2TR/WKzKkMgkaQQO6oISYRoEloiQARMCPQsEWJSZOWqpVJ32zHBvb/YJ+kfXq/GDL6/+d/k/uWRMUYTkAwnAkkIvPKL/RL9k83fFPvrgzOSkjvHbbr8annm8M6dzs/20gMnDQ5KdaZ/8ANiz/1DtS54wpQ3WVUTr8p///V/l/TjJ+e3zrAjipBEaNXuTNQhBEiEnQGaRDiCMxZKv2uOWhe45dE1Vi2w7NY7Jd0XPv9lsfW+6WL7pqitUGP6/GaRrDJnop5H4PgxpSymvPlkqevu534QtM6vPq92UGz+8Fzx21c/Naj/sjhrNF6Xoh6vHYgUefbS2+T+wmuviYSbbi58v1pf/PM9B0eShFeGuSpCEqGpaRneTQRIhJ1Bn0Q4gvPQzj1y9fQzG8Sm7Rh5zwf/TNJt3bRD7MAg9iDKLf8jAkEROLRPKYwrLn+v+L1v9VeC+t/6+VvE3/8+8E2xY+oTxVb9v2MNtaNs6ryPCxSX3LMyEZLHnnhS4j906e1iR3ee4DG/N8TWWeRcFSGJEA1FW0QESITdaZXKECGO0TrvrNME6W1bH0pEfOkt/yjxX1quVpZTCSbCxcjACPhO5tkW48Gz1e+gqmOFJpxAiLZjhpPPu37EFRQgxgqRA8Jxb2dPKMNcFCGJ0K4BmKoYCJAIu9MOPU+EB/9PzRLdeddfCcKmdYNYJzh9mppdGwi8nqs7zctcy4oAFvxv37FeqvCOC2YFqcpz6zeKn21/vUgslWEUVhDiR556WSIGJqjVIdFUtRrWFa64/fsSNWGqaQ7BXRnmoghJhHoT8r4MCJAIu9NKPUuEeNXYvkONDZr+sn7j7vsF+Rs+/VWxE89Q67q60xzMtVMIYOgE+WE5C+5hsV60v78PQblalAvfytm/f4vkZ1IoroXZeMkfyCOHXnxWbL0er3xc/ZY9PYhwzu33SFVmffQjsVVKnz3WH7NXhrkoQhKh3iC8b0UAhIMwEiGQqKbtYSJU6wdffPkxaVnTXs4rP/U3Ev/QxpG9hCdl/cpXNTtSUWuNBfVH92JHwFEp6sDM6WLnzHqL2Jm/Ni1ShQMH1Y4E7Cnf8aQaOzo+pL6GVu9TSgo7jcYH7jco97zfuUDKtWnDXZHy+d5wx0k8cscbqn+85U+ukQRzV9wSm/Bnz/6PhL/9vGViJ89S6zLNnwuFm3RlmJMiJBGiCapsQSgkQtULSITxv4YeJkJ1AvWBg9uk5qYxFuwk+emOn0u6To0FxTcHQ7MiMEp8aufAwivmi8tFn7xU7MXv/i2x06ZO8crqpZFTh7ZtUzuPHnxEnUp0/73q/Lp6nxpj7p82Qfxn7U9DO18TPzevULO9y2+6wavc+kPccRJFBFvxpsz7kESYdpqg/c+cqd4koQjhLYsyzEkRkgjROFWyJEK71iYRRnEiEY7sLaYijHaMst1BOc1feJEUvdNfIxw6pMYU1677juT/mb/8J7GNw2rnQdbVCFhWs/nHD4jfS953odis/3377DPFRdX3IIciQrSHjzKkIgR6tN4IkAj9oCMRKtxIhFSEfr+ggjwFpVTUrxFineqSxV8UxMbNOFWs79ghCH/P3s3ix3esE8331L88KJdPL7tRbFV3nIQmQuDrogypCIEarTMCJEK/SR8ATSJUSJAIqQjxmyiVxfFqa9cppXXVlR8rdPmxp33BZddJObEuccIUt/MBMRn09nNOFz9ppyrZgvLdd/+uJD28R62XrNqOk7yIEPjbKEMqQqBFa40AiZBEaN1ZLBKSCKkILbpJcZLgMI2/+8I1UqhQ6+o6XcMFl35asnz88f8S66oMgcPiJb8vz//zHcszVaHqC63diVCt55w8S4352oKfpAypCG1RZLoaCIBEqI6ZIxGG+VGQCKkIw/SknL3gkIQ3TVZjaqG/+pZz8Y3uT5v1exL3y1+pva6us8kYIli/Qa1bvGzhAmNeNhFVXWjdKSJEG8QpQypCoENrRIBEGA8NiTAeF9dQEiEVoWuf6Up6HKu2foP6ilhW5dOVSsRkOnqaidoLPTCoTsWJSZoYBEK0/VqjyRl2yGy8YKYkqcq6wk4TIfBvVYZUhECF1ogAidAIjUSQCJPxSYslEVIRpvWRrsbjlRiFeP2VJ3DZU/a6G9X5dnev/oHUy3UWGTj1jxsnz+9+Vp2GYzp1KQ28qn3jxJcIJ50b/WZJvT42DdrY+BPKkIowFhoGnkAAP3CgQSIEElELnEiEUVxs70iEVIS2faUr6fAB9L+96WrJv6zrBtPAGz3nTu3w8P2aIvC64vL3Spb3rf5KWtaJ8VX5xkm3ifBEI1ARJnbFakfih00itOsHwItEaIcXUpEIqQjRFwppcdrK5h/fK+ULdQ5fISs7XKg5c/9YivbMC7vFuq4rRL0wubRy1VIJMn3XG+lNtio7TkIRIXD0GSukIgR6tG0IkAj9PiNKImzrSokBJEIqwsQO0u1I/KBffPlRKYrpa4TdLmeo/HF+YajvbOOYsu071ksRTd/3Tit/r+84CU2EwNNFGVIRAjXaNgRIhOpjUG3AWAaQCO2AIhFSEdr1lC6lAhEeOPhTKYHvurguFd8528eeeFKemf/+q1R9B91ON9EzxLKaI3vV95j379+i/E5Q32XW05vue33HiTcRnjNJQVZP/m6xjTKkIjT1PobXSIQkwk78DEiEVISd6GfOeUDJvLHrJXm20VDW2VHJHsBJ1tOnqXWAvnuP9WrjZOt3zTlborY8ukZPYnXfq0f7502EADdJGVIRAiXaJgIkQhJhszN04IJESEXYgW5mnwUWBI+Z2C8P/efj94j1ne20z7kYKTEWN2nSe6RAWb+HrNcKy5FuXrFIonx36vTaN06CEWFDfce65jFmSEWo99YK35MI1YfiSYSd/RGQCKkIO9vjDLnhGKk//4s/khRZv8FhyKY0wf3TlSIcf5JSxqELjmU16zfcIa5dz3fstR0nmYkQDZSiBJEMtnXMkIoQqFTYkgijjU8ijOKR9x2JkIow7z4W6x+zmEf3/krie+3k6dhKOwSePFOdQoNJI989x2lZYnmS786dXtlxEowIAbiHMqQiBHgVsiTC5MYmESbjEzqWREhFGLpPJfqDApm/8GJJd9/qW8VOmzol8bmqRXaKCKE4fb8OiFnusn/jJDgRosM6KEMqQoBWAUsitGtkEqEdTqFSkQipCEP1pUQ/+DD7mrU3SbqrrvxYYvqqR44//X0CQV5jgzq+WLZ07afUd5ZdZ+3LvuMkNyIE0BbKkIoQYPWwJRG6NS6J0A2vrKlJhFSEWftQ4vNQGjhq/zffcW5i+rTIs96qvrfbqztNMOaW14LqNHwxdLF23XJJ6qrcy7rjxJ0IFws+J79tcgTSej1l3WeCMqQijEDZWzckQrf2JBG64RUqNYmQijBUX0r0A0I8PnQkMZ058qhETT/3DLG7n1Pf/zWnL1cMTqZesvhzUvCBwbO6WgHsPHn6mY1SjvNnq1Nr0gpV1h0nvkQ46Rx1TFqjEe3XPsqQijCtd/VAPIkwuRFJhMn45B1LIqQizLuPBfGPBdhZz9MLUpgcnCy79U7x+sVb14qdMGViDrnYu8T6Qjyx74VNcml7Qvhji5ZI+ld/9D2xY+rdrQ/qYbK+RIgxQijALMqQitDUOgxvIkAibELRkQsS4cpYnF/auUvCz5wZnSwhEcbCxcDQCGA2c/uOh8R1r80aF00Rov3wB+jDH/gNCdrwwNcRlWgP7fulSv/bs8T21bN9ciAxswCRoRQhiuKjDKkIgR6tEQESoRGaXCNIhFF40xQhUpMIgQRtEATwinbeWaeJv21blSIM4rxATu5d87CUZtGi28SGPpk6a1VxsvXKVZ8VV9df+wkrl2XZcZJVEQIMvCLj3oUQqQiBGm0bAiTCNki6EkAiVLCbFCEahUQIJGiDIoBX4l4/r3D063VqLK5WOyUoju3OxkpQva9PbP+0Ccr2q/v29CpkaOcLcnHg4PNibWeRH7nwIkn/xgH1NcIxNfXh+nrd7fvKqhTh/w+lCPWSgRhtlCEVoY4e75sIkAibUAS+IBG2Akoi5DrC1v5QmGu8EvePGydlOvDS5sKULc+CQBnu2rU3z2xqe/YdFv/PP/8zseu+rXbqbN30H3Jf71Pr/jBWifbIOlaLnSfbbvuq5FOUdYZ5EaFUcvg/G2VIRQi0aJsI4IdHImxCEvSCRBiFk0RIRRjtEQW5w7FdjzyiTrB2/cpaQapRumJAkT68/odS9iWL/2GkDuozozevUDtGfL+HrAOCscNjQwf0qI7ed4oIUam4McP/BwAA//+N6+HEAAARSklEQVTtnXuQFNUVh3cWCewDHzw0ldSCiJaPYPSPYKKiwRA1xvhKaSpiiYgQE0ysxKRKRRLEMhArMQ8t8UlUokKiCYrE8gHGUihNmbJQoqLRCGw0CLJlEnYR1mWynDsHdnq7p3t6unu6+378sWf63u57z/1Oz48zt293F1raJhQbIv7X2b5RWtzatVpsS9Mg1x7Gn3KRlL+45h2xAwcOcN2PwmQJdL23VTpcsmSu2LPOODlZByztbfMHHTLyhx5+QuyM6T8vkdgu9ic/nSF2zszLSuW1mSVHHSMN9HSaeNfWWviji0UzvqETTpVGJi6Y79rY+pKuHDhyutS3Hry3637OwkJhYFlRsdhdtr2rvoAQljFho5eAUwgPOeQgVy5HHDbGtZzCaAh0bjMCcf0NRhgmnftVafjIsYdG0sGyiadLO53r/iZ2QGFYJO1W20jcQqj+VBJEhFApYXcTQAh3o6jrB4SwHH/YjFBbQQiVBLYqAiqIxR6Tmew52Ex9vLLmOSmKKkPZ0z6fkiCgQvvW/Yuku7XzrhSbdGYYPiMcUsJUqAqXmyCSEVaF0K6dEcJ8xxshNPHdNWeIEOb7XI9ldNs6uqTdWTMni41q8j4WZ2k0MIEVl5iLMR3PPCHHFAruFzkDNxhwx+ozwinScuvBQx09hM8MEUIHSjb9CSCE/oyyuAdCGHHUWD4TMdCUNdfd3SMejTtytNiVT96bMg9xJwyBl++6Rw5Leq4wbEY4ZMw+4m+x4Fx2V31mSEYY5oyx/BiEMJ8nAEIYcVzJCCMGmrLmVAj33btZPHv/jcdT5iHu1EJgy5tvyeFPn2YWOMc9V1hrRqhjrSUzJCNUitjABBDCwKgyuSNCGFHYyAgjApmyZvQiyc5Os47wW9+bIh7eftOclHmKO1EQUEFcftrx0lxc6wvjywiVgv+cIRmhssL6EkAIfRHlageEsMZwkhHWCDAlh+tP4B0bt4hHV82eJvaK75qHZYwY7lzHlRLHcSMSArrgetnYkdJe2jNCHXT/uUKt8c4MyQiVEbYfAYSwHxKrChDCGsNNRlgjwDofrgLYvXmbePLy6vvEck9xnQOTcPdZFUInpv4ZYv/MkIzQSY3tBoSQk2AXAYSwxvOAjLBGgHU6XAVwZ89O8eC915aKZS6wTgFJSbcPjil/7mTU6wqjumrsh6tSZkhG6EfPonqE0KJgVzFUhLAKWH13JSPsSyM7nzVu6zb8RZwe1fbJ7DiPp7ER2NbxobT99IVTxW5du0psVFeR65cRKrICj+FSFNjeOaHSOyEQQs6GvgQQwr40qvisXyhe3lQFtDru2tlu1gkuvN/cIXLhpHPq6A1dp52A8+EMhYYmcbmxYO49r9b/pDJCp1995wyZI3TSsXAbIbQw6DUMGSEMCC/tGaFeFNDh2PoaUeXAcwX1TMBWQ0B/Mr9046/lsH8tvlVstXOH1WeE50s/Q8bsX427nvvuygytzAhVAJQMQjhaUPCAVT0jsEEIIIQ+lNKSEarg7dhornoVBph3MBz3pSNkBP9Y/77YTW+uF9vYYl4Y3TQ03FyHD5bUVXe2bxKfXlnzJ7HcOZK6EGXKoXdXvSD+rpx8ltigmWHYjLB1tLnXvdC4V02ccp8RIoSVzw+EsDIfaqsjgBA6eNU7I9z+Ubd4NHS/VrHL//gbsV4Zz+YPOqR+1nVmvztuXiLbLW3DxObtj/4Hwdxg3iKbjvGsuuZaceTdxfeI9buaXGtGKJ30/qklM8zlHCFCqKeGu0UI3blQGg0BhLDEsV4ZoX7BDz/oAPFk9aoHQ0X21rsWyXEzps8Tm7fMsLP9PzKuh5feIPasM04Wyx8IREGg2ge6RpURqu9hMsNcZYQIoZ4KlS1CWJkPtbURQAhL/OqVEWq/Ud0idvKZ35YRPfPC38UOGjywtjMkJUerEG7tel48amkyV9NT4h5u5ITAo8eeJCP5aNMGsV5PrYk6I1R81WSGucoIEUI9BSpbhLAyH2qjIYAQlm7eT+peY704MuELYyWCTy29LZJIrnj2ZWnny1+8WGxL2z6RtFuvRpTT1G9OFBd4+1y9ImFHv0GX08SVESrlIJlhLjJC/YIjhBp6d6ucEEJ3PpRGSwAhTDgj1NdMzpo5WSI5Z+ZlkURU1xfuP+IEaa+lLZp7GyNxLkQj+pOYq8Uh4HFIaALPzzGrLzYsNPckO+84iTsjVMcrZYa5yAgRQg11ZYsQVuZDbTwEEMKu1ULW66rk+FPM+3FfXPOO7Bf24QdxCeH6UmZ74Egzp5b9jNDcW7xuwwrhzROo4/ni06o7gRWXzJCKLc88JlbvOEkqI1Sv3DJDMkKl42IRQhcoFEEgJAGE0GOdWlQZoS6kjvre2UcefUpCfvaZV4rN+lXjzvYuGUex+NeQpzKHQaB2AkuOOkYa6encKjZ8RrhvyZnGUE71zQxzkREihMHOA4QwGCf2ipcAQujgG1VGqM1GvaA6av/Uz6StLpuJenlR0uOgv3wQ+PPpX5eBdK0163R1VEMnnCofJy6Yr0Vlds9UlXlCdetozQh1t/CZYS4yQsWAECqJcosQlvNgq74EEEIH/6gzLv2JrE+fWbX8PunR66q1w53dm7Pn3iKfr7tmgTk+43eUxHVVfTcwPkAgAAF9tP/ScYfK3rqesPY5Qmfn1WeGucoIEULnCWG2EUJ3LpQmSwAhjPmqsTOc+lNQnxbzyH1mRfvEE49y7irbOvdw9exfyPaiu58Wm/WrxDrYrvfM1bkFC8zV74svOlersBBIjIAurG5feLv0GX4d4XlyfOvo4T6+B88Mc5URKhWEUEkYixCW82CrPgQQwoQzQg2z/lTesdFkRIUBA6Tqs58/UOzr/zRvsduxcYts7zViP7GaScpGDv5wa10OgpjhIXRu2y7eLxs7UqzODeqQqp8jNBlhy4Hm+1rofS9x5X/+mWEuM0KFghAaEgihnhHYehBACBO617ja4KpAhr23udr+6r1/Z7vJeF9ZY97h4vU2v3r7Sf/5JOD3MqdaM0Kl5p8Z6p79M8RcZ4Q6bKdFCM3yBScXtiEQBwGEMKUZYRzBTnObmhG++rp5X/MRh41Js7v4lhMC8T2YtXyO0InLPzMkI3Qys2IbIbQizKkbJEKY8BOqU3cGpMyhznaeQ5iykOTaHV04/ei4o2Wcul7Qa9BRzRE6268mM7RyjtAJLO/bCGHeI5yu8SGEpXgE/eJdevlsOeK3i80Tk/O2fi8tp6fGY9Pm58SlEcOHpsU1/MgRARXAx086RUb18VazWsHrfcY69J1F85zMtsmXStGxs6/WqjL72tq3Zfszh08Rq+sIy3Zy2QiSGcaUEQb7KYYQukQthiKEMAaoNNmPAELoQKKT837r1n73gLmKedHkudJC86daHS2xGQUBjce6DU9Kc8OHmxX5fm1X+9Qev/aorw8BFai4en/7sSek6VdnXy62scF8j/0yQfWnp2gyx2Pm3y9Fo0/9slaV2T1PjDd60TJqsKkvDCzbz2ujUmYYU0YYbAEvQugVsmjLEcJoeWatNYTQRCxxIdSb/G+57Qrx4DvTznc9d/L23mDXQaaoUG+1a2j4OJBXW7telP3IDAPhSt1OKoD6/L+4HXTeQxy0P50j/Mbb6yoecvW1v5L6n81ZLLZlVGmuO2BGqI27CWIsGSFCqMjTZRHCdMUjbm8QQnfCiQmh3sK2797N4sn7bzzu7lGp9Na7FsmnGdPniW1pG1ZxfyrjJaAPcp029SvS0e03zYm3Q1qPhYBTCMNmbLE419uozg0efaN5EvyhZ3+tYleFwglS3zKqdC1BM8Fid/lxWl5e2m+rryDGkhEihP2YZ6oAIcxUuDydRQg90UhF7EKo3eskvd/VY91fl9PccbO5mkxmqGTqY/VlWK++vkwc4B7l+sQhbK9pFULNBEdO/r4MzWvdoI5bL6pOvuCXUtQvI9QdNTMMmBHqYbtsLBmhdoAQKolsWoQwm3FTrxFCJeFvYxVC/Ymsb5Vbvco8D8/PrbvvfUh2mTrlx6Vdm8Q2tpj1Qo3NwdYN+fVDfWUCO7vM3Muxxx0mO6588t7KB1CbKgJOIdT1fUk5WWzoka6KDdvKugw6J6gPdG1tPlGO332VuKy1PhuaCWpmqFVartsuFiF0gUKRIYAQZvtMQAhL8au3EOpppMtprpw1SYrmXfsDrapo9X+E5cuflf0ee2ql2H9v6qh4HJXREujo+K80OGeWWRfq9TbAaHultVoJqBCuOO8CaWrQsGRXYzQfcpD0O3zc58T6XRV2jnfS1B9J0e//YO6Rb/K7R94peJoZOsudHfVux5oRan8IoZLIpkUIsxk3hLC0rCYtQqinkV48mX+nebqE1x0nuj8WAhCwj4DnHSRBUajwaUaox2m5bvexiWSE2h9CqCSwEICAF4HcC6EOXB8LddXsaVIUdM5Qj8dCAAL5I6BzgovuNnOCvleJ/RA4M8AKGWKiGaH6jRAqCSwEIKAErBNCHbheRBkxxlzNeuDOG6SKq5JKCAuB/BLQ5wuee4m5l12XazUNG2IG7czowqJwtqOZYZ/yumSEOh6EUElgIWAfAYTQEXO9A2XHxg+lpmXk/mJ/eOk5Yk8cP17swaMPENvc9Amx/IEABNJLoGvbDnFu9eo1Yl9a86bY6+cuFFv8aKfY5k/vI9bzT5/MzXOfIBXOdvpkhnXNCNV3hFBJYCGQHwIIYY2xVGH8+H/bpaWdnfq8MX2ysrmHscZuOBwCEIiVwABpvTBgkLGDG8XungMM2rczkwt6nNd+zvZ6M8NUZIROfxFCJxG2IZBFAghhFqOGzxCAQBIECkYgQ3flzOjCNtSnnVRmhGHHxXEQgEAGCCCEGQgSLkIAAvESqFUI1bs+GZ0WhbK97ZARhiLHQRCAQGgCCGFodBwIAQjkjUCKBJGMMG8nF+OBQFYIIIRZiRR+QgACsRNIgSCSEcYeZTqAAAQqEkAIK+KhEgIQsIlAHQWRjNCmE42xQiDNBBDCNEcH3yAAgUQJ1CqIIdYXkhEmGmE6gwAEfAkghL6I2AECELCFQIKCSEZoy0nFOCGQNQIIYdYihr8QgEDsBGIURjLC2KNHBxCAQCQEEMJIMNIIBCCQZQK1CqGO3eWqMhmhwsFCAALpJoAQpjs+eAcBCCRIIAZBJCNMMH50BQEIREAAIYwAIk1AAAL5IBChIJIR5uOUYBQQsI8AQmhfzBkxBCDgQ6AGYSQj9GFLNQQgkBECCGFGAoWbEIBAfAQQwvjY0jIEIJARAghhRgKFmxCAQPwEQggic4Txh4UeIACBJAkghEnSpi8IQCATBAIIIxlhJiKJkxCAQGgCCGFodBwIAQjkhQBCmJdIMg4IQCA0AYQwNDoOhAAE8kaggiAyR5i3YDMeCEDAnQBC6M6FUghAwEICLoJIRmjhecCQIWA1AYTQ6vAzeAhAwI1ArzCSEbqBoQwCELCHAEJoT6wZKQQg4EEAIfQAQzEEIGAPAYTQnlgzUghAwJsAc4TebKiBAAQsIYAQWhJohgkBCHgTQAi92VADAQhYQgAhtCTQDBMCEPAmgBB6s6EGAhCwhABCaEmgGSYEIOBNACH0ZkMNBCBgCQGE0JJAM0wIQMCbAELozYYaCEDAEgIIoSWBZpgQgIA3AYTQmw01EICAJQQQQksCzTAhAAFvAgihNxtqIAABSwgghJYEmmFCAALeBBBCbzbUQAAClhBACC0JNMOEAAS8CSCE3myogQAELCGAEFoSaIYJAQh4E0AIvdlQAwEIWEIAIbQk0AwTAhDwJoAQerOhBgIQsIQAQmhJoBkmBCDgTQAh9GZDDQQgYAmBwl4jji8OGjzQkuEyTAhAAAL9CSCE/ZlQAgEIWEag0NBwZLGlbZhlw2a4EIAABAyB7u6eBoSQswECELCawC4h/D98DEJ+4wzKSgAAAABJRU5ErkJggg==;labelBorderColor=#121212;fontColor=#FFFFFF;" parent="1" vertex="1">
          <mxGeometry x="544" y="157.01" width="82" height="74.87" as="geometry" />
        </mxCell>
        <mxCell id="QPryyxgIFDQZirliz8h7-13" value="Apache Airflow" style="shape=image;verticalLabelPosition=bottom;labelBackgroundColor=#000000;verticalAlign=top;aspect=fixed;imageAspect=0;image=data:image/png,iVBORw0KGgoAAAANSUhEUgAAArwAAAK8CAYAAAANumxDAAAACXBIWXMAAAsTAAALEwEAmpwYAAAgAElEQVR4nOzda3Cc133n+d/pCxoESAIUKVESKbEpK6EpiyIxsinCjnmJHXmdnbWpdSLnUstLdie1W3FCqXadiTzyEMzUOtlkU5Im2rWTNwSV7KR2S17Ks2sxsxMXoKQcgdLsAkokWbFlsymRlCneQFIA0eju5+wLsCUQwqUb/TzPeS7fT1VKEgn0849v/PLwPOdIAAAAAAAAAAAAAAAAAAAAAAAAAAD4xDTzxac+UdyirLZIkpVK831tbp6fv22oNO/3AgAAAH5pKHjP9N51wJPtk9Qd7DizRLLRqKxGb/whMypz4495nndy+j9njS55Vpfr/zwz0E1No9ns1GdMtGt0/WDphs8DAABABAwPd2u8bbfkFSVJGXNCqryg3p5Sox+xYPCe/uRdB621fYudMaZKs/399ND2rC7LeqNTPz71NZ7RqLke59ODmhVtAACARRj6xwPy1CdjZll0NX3q/dihRj5m3uBNaewGafT6/0nXI7ke0TMDeno817eHEM4AACA1XnztsGT3zfs1RiPadm/PQh81Z/Ce2FnszpfNsKRis/MhcKXpfzXGlOrBXN/KUd/CYWoarXSqxJYNAAAQG43Ebp1nD+lTm/rm+5I5g/et3uLujMzRpoZD1NVXmEvSjaE8fVU5J5XY1wwAAJw4/tpBeU3sMDAaVaGyXj09c3ZLbs7vtdrS3BkOiIHu6/9XlCRr7dS/xWbq3+iMJBmpJilflk71rpem4rg09WWm5HneyemryKwgAwAA3zQbu5Jk1a3x7G5J/XN9yZzBC1xX1PRANkaeJJnrfzyQmz+OjVQijAEAwIIWE7vvM8X5fna+Fd5RVnjRpKJmxLE0dxgbmVFPOpmVd6Iqnaxvp+DlPAAAUqal2F3YnMFbWaL+fFlPBPVgpFpRUtFqakuFJ3PDdooPRbH1XskaXapZvWJqGl37cmnE1eAAAMBnAceutMCxZG/3Fp80MgeCHABYpFFJIwQxAAAx5lfsLnBSw7x7eKsF9eUntUN26jphIEK6Je20sjLG7PZ0/d273PUVYqMRWY1amVfqWyYyVZWIYQAAIiKEld26BXfpnthZ7M5PmgGiFwlSklSqxzArwwAAhMzv2PW8/frUff1z/XRDr6URvUgNoxFjTcmTTlp5g8ZqtNquEU6XAADAJ0Gs7PoRvBLRi9QblTQyfVWYEAYAoElBbWPwK3jr3tpW7M8Ys7eloYDkeD+E6yvCdwyVBl0PBQBA5Bx/da+8uS+HaInfwSsRvcCC6lsjrPeKpEFWgwEAqRZk7ErBBK9E9AKLcMNqMKdGAABSIejYlYILXonoBXxABAMAkiuM2JWCDV6J6AUCMBXB1r5gjUZqBQ2yHQIAEDthxa4kGbNb2z72nTl/2o9nvL2t2GeMOejHZwGYVcnIjBh5gzWrV3gxDgAQad8f3qJMfji051XtLn160+BcP+1L8EpEL+DAYH0rBKvAAIDI+P7wFpncgIzpDu2ZYQWvRPQCThmNGJmRjPEGVdMLtw2VSq5HAgCkjIvYlcINXonoBSKkZGRGMhnvudqkXuFlOABAoFzFrhR+8EpELxBRJWPMICvAAADfuYxdyU3wSkQvEAMlY8xgzXrfYQ8wAGDRXhwuyuaGncWu5C54JaIXiBWjEWvNC7Lec5wCAQBoyIvDRSk/IKnodI6s6dHWj825dS/Q4JWIXiCmRo3MYCbjPcf2BwDArKISu5Kkynr19pTm+tnAg1cieoHYY/UXADBdpGJXikTwSkQvkCCjxpjnMsYbnMjrO+z9BYCUiVzsSpEJXkk61Vt8RDJPhPlMAIEbzGZsP1sfACAFIhm7UqSCV5Le2lbclzHmcNjPBRACo5GMtf3G6jvELwAkTGRjV4pc8EpEL5AKxC8AJEekY1dS773zNq2T4JWIXiBViF8AiK+ox64U3eCViF4glYxGssY+yZ5fAIiBOMSuFO3glaRTnyhuUc4MSHJ3OwcAVwazGdvPaQ8AEEHDw92ayA8r6rErRT94JaIXgGSM6fc87wjn/AJABAwPd6ucH5DVFtejNCQOwSsRvQDeVzLGDGY87xBbHgDAgbjFrtGott27Yv4viRCiF8AMg9mM7b/t+6UjrgcBgFSIW+xOKan33vXzfUGkglciegHMilVfAAhaPGNXaiB4M2FN0qi1L5dGstb2SCq5ngVAZBSttftqxpw41bt+4J1PFfe6HggAEieesduQyK3w1r2zrVisGRP9YzAAuMKqLwD45cXXDkt2n+sxFil+K7x1tw2VSllrd4mVXgCze3/V9/Qn7zr89rbiTtcDAUAsxTt2pQZaMbLBKxG9ABpjrd1njBk41bv+BNsdAKAJ8Y/dhkR2S8N0bG8A0KRSNmP7uM0NAOaRnNgdVO+9u+b7gkiv8Nax0gugScWaZ/prxgyc/uRdh9/ZViy6HggAImXo1ScSErsNiUXwSkQvgEW5YZ8v4QsAko6/dlBWj7geI0yxCV6J6AWweIQvAGgqdj3b53oMn5UW+oJYBa9E9AJoDeELILWSGbsNiV3wSkQvgNYRvgBSJcWxK8U0eKVp0Ws04noWAPFF+AJIvKTHrjWXF/qS2AavNBW9lTaiF0DrCF8AiZT02JUk640u9CWxDl5JWj9YGiV6AfhlWvgeJHwBxFoaYrdBsQ9eiegF4D9rbV/NmAFubgMQS8TuDRIRvBLRCyAQxZpn+rmyGECspC12jUn+lobp1g+WRtf+/Ykez9ojrmcBkCjFmmf62d8LIPLSFrtSOvbwzubOodI+oheA36bv7z2xs9jteh4AuMHxV/emLnYblMjglYheAMGx1vbly2aYbQ4AIuP4q3vlqd/1GFGV2OCViF4AgWKbA4BoSHvseqa00JckOnglohdAsK5vcxg+/cm7DrqeBUAKpT12G5T44JWmotdae8j1HAASq9ta23eqd/0JVnsBhIbYbVgqgleS7hgq9RG9AAJWrL/U5noQAAn3/eEtxG7jjOsBwvb2tmKfMYZfjAAErZS1dtdtQ6WS60EAJMz3h7fI5AZkDKfFSJIq69XbU5rvK1KzwlvHSi+AkLDaC8B/xO6ipG6Ft46VXgAhYrUXQOuI3TmwwjsnVnoBhKhYM5zbC6AFxO7cFohdKcUrvHWs9AIIkzGmf7LNe3T9YGnBqzABQJL04nBRyg9IKjqeJJp6712wZ1O7wlvHSi+AMFlr9+XLZpjjywA0hNj1ReqDVyJ6AYSuWDPmxKne4iOuBwEQYcTuwowa+tMygvc6ohdA+MwTp3rvesL1FAAiiNhtjG0seFO/h3emt7YV92WMOex6DgCpwikOAD5A7DajpN571y/0RazwznDnUKnfs3a/6zkApEqxZszAqU8Ut7geBIBjxG6zSo18EcE7C6IXgANF5cwwF1UAKUbsBobgnQPRC8AFa20f0QukELEbKIJ3HkQvABestX2ne+86emJnkQPmgTQgdhfP6nIjX0bwLuDOoVK/qrZHauwtQADwg5XdzXm9QAoQu60xutTIlxG8DVj7cmlEVbtLRC+AcBVrxgwQvUBCDQ93E7vhIHgbRPQCcIQTHIAkGh7uVpnYbZlnTzbyZQRvE4heAI4UlSN6gcSox64V/50OCcHbJKIXgCPdypnhdz71kb2uBwHQAmLXCYJ3Eda+XBrJWtujBg87BgC/1Dyvn+gFYorYDYAtNfJVBO8i3TZUKmWt3SWiF0DIiF4gpohdZwjeFhC9AFwheoGYefG1w8RuADxTauTLCN4WEb0AXKl5Xv+FX7yPW9mAqHvxtcOS3ed6jDQjeH1A9AJwpXx1vG9s388TvUBUEbuRQPD6hOgF4IJXrenyj9/qK//mLxK9QNQQu8HLVUuNfBnB6yOiF4ALXrWmiz/8CdELRMnQq08Qu9FB8PqM6AXgQq1c1sUf/qSv8ju7iV7AteOvHZTVI67HSIX2xu5FIHgDQPQCcKFWLuvKT97qs7/7MNELuHL8tYPybJ/rMVKjp4fgdYnoBeDCtQuXdPXkGaIXcIHYjSyCN0C3DZVKlYLtkdGI61kApMeVt05r/Ox5ohcIE7HrQqnRLyR4A7Z+sDRaabO7iF4AYbr8k7dUuzZJ9AJhIHYjj+ANAdELIGxetaZz//iGbKVG9AJBInZdKjX6hQRvSIheAGGrlcu68tYZyZo++7tffsL1PEDiELuxQfCGiOgFELb3zvxU4++ek6wesV/98mHX8wCJQey6Z3W50S8leEO2frA0uvbvT/R41h5xPQuAdLj8k7dUmyhL0j6iF/ABsRsNRpca/VKC15E7h0r7iF4AYfCqNV360Yn6PxK9QCuI3eiwhhXeOCB6AYSlfPmKxs78tP6PRC+wGMdf3UvsRoj1Grp0QiJ4nSN6AYTlylun61sbJGmf/erDw/aR3d0uZwJi4/ire+Wp3/UYmMYYgjdO7hwq7bOyT7meA0CyzdjaIMlsUb5tgOgFFkDsRhMrvPFzx4ulR6y1h1zPASDZypevqHz56rQfIXqBeRG70ZXN8tJaHN0xVOojegEE7dIPfyJbrU77EaIXmBWxG20Vj5fW4oroBRC0Wrmsq2fOzvhRohe4wfeHt6hmn3Q9BvxB8EYQ0QsgaGNnfjr9BbbrzBblC8P2936l6GImIDK+P7xFJjcgY/gNYJTlqqVGv5TgjSiiF0CQvGpNV94+PdtPFVWzA0QvUovYjY928dJaEhC9AII0fvb8jBfY3kf0Ip2I3Xjp6SF4k4LoBRCkq2/NusorEb1IG2I3Xkzjq7sSwRsLRC+AoHz4mLIbEL1IhxeHi8rkjxK7MWIJ3kQiegEEZZ5VXonoRdK9OFyU8gOSio4nQTMI3uQiegEEYYFVXonoRVIRu/HFloZku2Oo1OdZu9/1HACSZYFVXonoRdIQu/Fm1fClExLBG0t3DpX6iV4AfmpglVciepEUxG78GTV8rbBE8MYW0QvAb+Pvnmvky4hexBuxmwyePdnMlxO8MUb0AvDT+NnzstVqI19aVM0O26/+8pagZwJ8ReymFsEbc0QvAD9dPXO20S/tljIDRC9ig9hNGFtq5qsJ3gS4c6jUr6rtkZp7YxEAZho789NmvpzoRTwQu8mTzbKHN43WvlwaUdXuEtELoAVetdbIy2vTEb2INmI3mSoepzSkFdELwA8NHFE2E9GLaBoe7iZ2E6qQ4RzeNCN6AbSqfPlKoy+vTdctZYbt7z68N4iZgKYND3erTOwmVm2S4E27adFbcj0LgHhq4uW1G1nTT/TCuXrsWvGnDknV21Nq5ssJ3oRa+3JpJGuJXgCLM372/OK/meiFS8QuZkHwJthtQ6US0QtgMWrlcrMvr92I6IULxG5alJr9BoI34YheAItVvnyltQ8gehG2ifxRYjcVSs1+A8GbAkQvgMVoaVtD3VT0Hmz9g4AFvPjaYUk7XY+BaCJ4U4LoBdCslrc11FnTR/QiUC++dliy+1yPgdCUmv0GgjdFiF4AzWp5W0Md0YugELvpY01Tl05IBG/qEL0AmjHpxwpvHdELvxG76WS9pu8aIHhTiOgF0KhFXkIxN6IXfhl69QliN61sqdnvIHhTiugF0Kixd314eW06ohetOv7aQVk94noMOJLNXmr2WwjeFCN6ATSiMjbu/4cSvVis468dlGf7XI8Bhyoee3jRnNuGSqVKwfbIaMT1LACiaeJC04spjSF60SxiF5KUq5aa/RaCF1o/WBqttNldRC+A2XjVmipjY8F8ONGLRhG7qGsXL61hcYheAPPx5TzeuRC9WAixi+l6egheLB7RC2Auvh5PNhtr+uxXv3w42Icglohd3Ki0mG8ieHEDohfAbHy7gGJ++4he3IDYxYeVFvNNBC8+ZP1gaXTt35/o8aw94noWANHgVWuqTpTDeBTRiynELnxE8GJOdw6V9hG9AOoC3cd7I6I37YhdzK20mG8ieDEvohdAXTWokxpmR/SmFbGL+Xj25GK+jeDFgoheAJJUGbsW9iP32a8+PGwf2d0d9oPhyPFX9xK7mJcxTZ/QIBG8aNCdQ6V9VvYp13MAcCews3jnZbYo3zZA9KbA8Vf3ylO/6zEQcRlzYlHf5vccSK47Xiw9Yq095HoOAG6E+OLaDERv4hG7aNQirhWWCF406Y6hUh/RC6RXdWzc0ZOJ3sQidtGMQoYtDQgH0Quk16Sz4JXej97f+5WiwyHgp7//h93ELpqSnywt5tsIXiwK0QukU63sYkvDdGaLapboTYLvD2+RDCdxoDmLuFZYInjRAqIXSJ/Ke6Gf1DCbItEbc98f3iKTG5AxbFFBM0qL/UaCFy0heoF0qZUnXI9QR/TGFbGLxSst9hsJXrSM6AXSw91JDbMieuOG2EUrrBZ1QoNE8MInRC+QHrZWdT3CdERvXBC7aJkpLfY7CV74hugF0mEyGvt4pyN6o+7F4aIy+aPELlpivUW9sCYRvPAZ0Qskn/uTGmZF9EbVi8NFKT8gqeh4EsSeLS32Owle+O6OoVKfZ+1+13MACEZEg1cieqOH2IWfPLY0IGLuHCr1E71AMtlqzfUI8yF6o4LYhd8WecuaRPAiQEQvkEzViUnXIyyE6HWN2EUQFnnLmkTwImBEL5A8XjVSpzTMpaiaHbZf/eUtrgdJHWIXQTAaXewtaxLBixBMi95F/wcVQHREeA/vTN1SZoDoDRGxi6B4i790QiJ4EZI7h0r9qtpdInqBRLDxWOWViN7wELsIkmmtHwhehGbty6URohdIhlq0X1ybiegNGrGL4JVa+WaCF6EieoFkqJUj/+LaTERvUIhdhMGzJ1v5doIXoSN6ATjSLWWG7e8+vNf1IIkxPNxN7CIci790QiJ44ci06C25ngVA86oTsXlx7cOs6Sd6fTA83K0ysYuQtHDphETwwqG1L5dGspboBeAA0duaeuxasUUE4Wjh0gmJ4IVjtw2VSkQvED+2FptTGuZG9C4OsQsXWrh0QiJ4EQFELxA/XrxOaZibNf32d7/8iOsxYoPYhQstXjohEbyICKIXgDNWT9jfffig6zFi4VruMLGL0LV46YRE8CJCiF4AzljTR/Qu4MXXDsuY3a7HQCq1dCSZRPAiYoheIB5idL1w44jeub342mHJ7nM9BtKqtRMaJIIXEUT0AnCG6P0wYhfOtXYGr0TwIqKIXgDOEL0fIHYRBRlzouWP8GMOIAhELwBniF5p6NUniF1EQsW73OpHELyINKIXgDNpjt7jrx2UFce1IRqWVkda/QiCF5F321CpVCnYHhm1/B94AGhKGqP3+GsH5dk+12MAknw5g1cieBET6wdLo5U2u4voBRC6NEUvsYuo8eEMXongRYwQvQCcSUP0EruIIqOWV3clghcxQ/QCcMaaPvvVLx92PUYgiF1ElTWv+PExBC9ipx69RuY517MAaZUtFFyP4Mq+xEUvsYtIa/0MXongRUytHyyNrnnxJw951h5xPQuA1ElO9BK7iLqa9eVPdAlexNqdQ6V9RC8AB+IfvcQu4qCQ8WUPr/HjQwDX3tpW7M8Ys9f1HEBaLLtzjZbfucb1GFHQr0r5UfPkc778ohwaYhdx0XuvL63KCi8SgZVeIFwp3sM70z7l2wbsI7u7XQ/SsKF/PEDsIhZ8OqFBIniRIHcOlfZZ2adczwEgbcyW2ETv8Vf3yponXY8BNMT6dyITwYtEuePF0iPW2kOu5wCSLtfOCu+NYhC9x1/dK0/9rscAmlDy64MIXiTOHUOlPqIXQPgiHL3ELuLIsyf9+iiCF4lE9ALByuT45WN216P3936l6HqS9xG7iKtsZtivj+J/sZBYRC8QHJPNuR4hwswW1Ww0ovfv/2E3sYvYqniX/foogheJRvQCwcjmsq5HiLqi8+j9/vAWycT7rGCk29IqL60BjSJ6Af+ZHCu8DXAXvd8f3iKTG5Ax0dtPDDTCaFQ9PRxLBjSD6AX8wxm8TQk/eoldJIGPR5JJBC9ShOgF/JFhdbdZ4UUvsYvkKPn5YQQvUoXoBVpn2L+7GMFHL7GLJPHxSDKJ4EUKEb1Aa3Ltba5HiKvgovfF4aIy+aPELhLDxyPJJIIXKXXHUKnPs3a/6zmAOGIPb0v8j94Xh4tSfkCSf58JuJYRK7yAH+4cKvUTvUDzMmxpaJV/0UvsIqm2foyX1gC/EL1A83Ks8Pqh9egldpFUPp/QIBG8ANELNIkzeH1TVM0O26/+8pamv5PYRZIZ+Xb+bh3BC+h69Mo+JPn/XzIgabIFXlrzUbeUGWgqeoldJJ01r/j9kQQvcN2dL5aeU9XuEtELzCvXzpYGnzUevcQuUsGW/P5EgheYZu3LpRGiF5gbJzQEZuHoJXaRFjXLHl4gaEQvMLcsq7tBmore/+FXdn7oZ4hdpMnSqu/Ba/z+QCApTn2iuEU5MyBpUQe5n+5eq9Nda3S6a+0NP77m8iktm7iiNaOntbx8xY9RgdB0rF6lFT9zl+sxks/YfeaP/o8jkohdpIvRqLbdu8L/jwUwp+vRe1QN/EJzpbBcz235kv5mwy/oB6vv0dX25Qt+/rKJK9p49nVtLR3X1pND+uhPf0AEI9KW3blGy+9c43qMdDB2n/nVx76jcn5AVs2f5ADE06B6793l94cSvMAC3tlWLNaMmXN15aV1D+jpHQf00rptvjxv68khPfTKt7W1NKQ1l0/78pmAX1Zu/Bm1r/R98QVz+J3Nnyv96Ue2Fl3PAYTGmqf0yY894vfHErxAA2aL3iuF5Xp65wE9szW4I3zr8fuZN/4jK7+IhFWbNqrQtcz1GKny0LaH9dztG1yPAYTD6lF98t4n/f5Yghdo0PToPd21Rnv2/JVOd69d8Pv88tArz+orLzzFqi+cun3bP+PiiZCN5tvV85l/oVLHol4nAOKlanfp05sG/f5YghdowjvbisXhNVsG/utfP1JsZI9uELaeHNJXXnhKW08ed/J8pFcml9Vt2+53PUYqDa5ap13b97geAwhee2WFenp8PyWJ4AWa0Pldu8UYLfrkBj+tGT2lr/ztU3rolW+7HgUp0da1XDdv+qjrMVJr3/1f0JF1m12PAQQnoBMaJM7hBRrWfswWZXRUEYhdaerYs8e+8Mf6zG//rb634Rdcj4MUaOtc4nqEVOv7wd+6HgEIlpXv5+/WEbxAA9qP2WLWasBE8BzM091r9VsP/5l+6+Fv6XQXx0UhOFw64VZxfFQ7z5VcjwEEx5pXgvpoghdYQJRjd7rvbXhQn/mdv9NjX/gjwheByHd2uh4h9faeDKwHAPcyGgjuowHMKS6xO93Rzb+kPXv+Skc3f8n1KEiYTI5fMlzb/c4PXY8ABCejk0F9NC+tAXOIY+zOtGb0lJ555lc5ygwt44SG6Fj/n/02R5QhmXrvDaxL+e06MIskxK40tb/3M7/zd3p6xwHXoyDmcmxniIzNo2ddjwD4L8AX1iSCF/iQpMTudE9vP6DP/PbfsrcXi8YJDdGxftz3I0qBKAhsO4NE8AI3SGLs1rHai1ZwQkN0dFcmXI8ABGEwyA8neIHrkhy70z29/YD27Pl3rPaiKZzQACBQNcuWBiBoaYndupfWbdOePX+lv+HCCjSILQ0AArW0SvACQeo+aruzkzY1sVt3unutvvLwn7HFAQvKd3bK5HKuxwCQXCX19AS6OZ3gRap1H7Xd1TYNmLwpup7Flae3H9Duf/F/s8UBc8q1t7keAdOM5ttdjwD4rRT0AwhepFY9dmW0xfUsrr1x6z3as+ev9IPVG12Pgghq61rmegRMc4IzeJE0nn0h6EcQvEglYvfDTnev1UO/+V22OOBDeGEtWi7nOTEDCZPNDAf9CIIXqUPszu/p7Qf0jQcfdz0GIoQX1qJlpPtW1yMA/rKTrwT9CIIXqVMt6DCxO79nHvgN9vVCEi+sRU2po4s9vEgWo1H19pSCfgzBi1TpPGYPS9rteo44qO/rJXrTjRfWouUVVneRNAFfKVxH8CI1Oo/Zw8Zqn+s54uR091peZks5XliLlsFV61yPAPgrhBfWJIIXKUHsLl79Zbajm7/kehQ4wAtr0TJ4M8GLhAnhhTWJ4EUKELv+eOwLf8wJDilUYIU3MkodXRrpYksDEiaEF9YkiTcRkGhLn7dPiNj1zdPbp4L3Ky885XgShKGta7nrETDN4Kqi6xEAv5XCeGFNYoUXCbb0mD0o6RHXcyTN09sPsNKbEhxHFi1H1t3negTAX1ahrO5KBC8Saukxe1BWfa7nSKqntx/QY1/4I9djIGAFVngjo9TRpcGbi67HAPw2GNaDCF4kDrEbjqObf0m/9fC3dKVAFCUV+3ejg+0MSKSaDeVIMongRcIQu+H63oYHtWfPvyN6E4gLJ6Ll0D3bXY8A+G9pleAFmkXsujF1QQXRmzT5pezfjYrBVetU6uh2PQbgL6sR9fSMhvU4gheJQOy6RfQmD9sZoqN/3WbXIwD+M+HcsFZH8CL2iN1oIHqTpbCcfx+joNTRpSMEL5IoE94La1OPA2KM2I0WojcZsoWCsu0F12NAUt/GHa5HAIJhTGhHkkkEL2KM2I0mojf+Ct1sZ4iCUkeXvnP7BtdjAP4zGtXWj7GlAVhIx3dqxG6EvXHrPfrKl7/legwsEvt3o+HIus0azbe7HgPwnw13/65E8CKGOo/ZvZl8ps/1HJjfS+u2cTlFTLF/171SRxcvqyG5rL4T9iMJXsRK5zG711j1u54DjTm6+ZeI3pjJd3ayfzcC+jbu4CgyJFeIF07UZcN+ILBYxG48vXHrPZKRtp487noUNKD9pi4tWbnC9RipVuro0v6Pf9H1GEBwPrVpf9iPZIUXsUDsxtvT2w/o6R0HXI+BBiy5idh1jZMZkHCDLh5K8CLylj1vdxO78ff09gM68kDov6lHk3hhza2Rrls5dxfJZsM9jqyO4EWkdX7XbrHSYddzwB9/8ODXdXTzl1yPgTm0dS2XyeVcj5FqD/X+susRgGBlNODmsUBEdX7XbjFGA5J4cwo6c2EAACAASURBVCNBvvHg1/WD1Rtdj4FZtHUucT1Cqj119wO8qIbkK0y+4OKxBC8iidhNrqvty/WVh/9Mp7vWuB4FM7SvvMn1CKlV6uhS38btrscAgmU1op6eURePJngROcRu8p3uXqs9e/6K6I2QTC7L/l2H+jbu4JIJpIBxsrorEbyIGGI3PU53r9VvPfxnXEEcEYUu/n1wpf/OzbyohnRwtH936tFARLQfs0UZHRWxmxpv3HqP/uBzj7seA5LaV/JfOxdKHV06dA9bGZASjvbvSlw8gYhoP2aLWasBIxVdz4JwcTFFNHSvX6cMJzSE7pH7PqcXbi66HgMIntWItm5+ytXjWeGFc8Qunt5+gOPKHOI6YTfYyoB0cbd/VyJ44RixizqOK3On0LXU9QipU+ro0qObH3Q9BhCemvecy8cTvHCG2MV0HFfmDseRhW/X9j2cyoB0WVodcfl4ghdOELuYDSc3hC9bKHAcWcgObdzOBRNIm0FX5+/WEbwIHbGL+bxx6z16esfvuB4jNQrdxG6Ynrttg/o27nA9BhAuzzrdvysRvAgZsYtGPPPAb+jIA/tdj5EKS25a4XqE1GDfLlLL06DrEQhehIbYRTP+4MGv66V1D7geI/HYzhCeXdv3sJUB6WM0qk9vGnQ9BsGLUBC7WIzHvvDHvMQWoLau5TKcvRuKR+/7HLGLdPLkfDuDRPAiBN1HbXfO01FiF82qv8SGYHSuXul6hFQ4tHG7nrx7q+sxADeyOup6BIngRcC6j9ruapsGZLTF9SyIpzduvUffeJDrh4NQWM5pGEEb6VrNS2pIN6/CCi+SjdiFX5554De4ic1nbV3LuV0tYKWOLj3U+7DrMQCXSurtKbkeQiJ4ERBiF377xoNfZz+vj5asZD9pkEbzBV5SA+T+dIY6ghe+I3YRhKvty7Vnz19xKYVPOI4sWA9t+zKxC1TtEdcj1BG88F21oMPELoJwunstl1L4IN/ZyXaGAD163+c0ePM612MA7kXgOLI6ghe+6jxmD0va7XoOJBf7eVvXwekMgeFEBuB9g64HmI7ghW86j9nDxmqf6zmQfOznbQ2XTQTj0MbtnMgA1GXU73qE6Qhe+ILYRZiuti/nfN5FyhYKynd2uh4jcY6s20zsAtNF5DiyuqzrARB/xC5cOL/0Zl1pX6ZP//hvXY8SK52rV6l9BS9T+Wmka7U+/6lfcz0GEB1WI/rk5v/J9RjTscKLlnR+p/YEsQtXnnngN/TSugdcjxErHatXuR4hUUa6VmvX9j2uxwAixkRqdVcieNGCpcfsQZPPPOJ6DqTbY1/4Y44qaxDbGfxVv1hiNN/uehQgWmrec65HmIngxaIsPWYPyqrP9RzA6e61+sqXv+V6jFhgddc/pY4uLpYAZleK0nFkdQQvmkbsImpeWrdNRx7Y73qMyOu8heD1A7ELzGvQ9QCzIXjRFGIXUfX09gMcVTYPLpvwB7ELLCBCt6tNR/CiYcQuouxq+3I99sU/dj1GZHHZROuIXWABRqNR3M4gEbxoELGLOHhp3TY9veOA6zEiaclNK1yPEGvELtAAq8i9rFZH8GJBxC7i5OntB/SD1RtdjxEpbV3L2c7QAmIXaJAxBC/iidhFHH3l4T/jqLJpOtnOsGjELtAgo1Ft+9h3XI8xF4IXcyJ2EVenu9fq6R2/43qMyCgsJ/4Xo36pBLELNCDC2xkkghdz6Pxre4DYRZxxC9uUJStXsJ1hEYhdoEkR3s4gEbyYRecxu9d4etL1HECruIVNal9JsDXryLrN2rV9DzeoAY2K+HYGieDFDJ3H7F5j1e96DsAPad/akMll1XHLza7HiJUj6zZr3/1fIHaBZkR8O4NE8GIaYhdJlOatDe0rOYqsGYc2bte++7/gegwgfiK+nUEieHEdsYsk+8aDX3c9ghOs7jbu0Mbt6tu4w/UYQPzEYDuDRPBCUsf/Xt1N7CLJ3rj1ntRdSJEtFFToWuZ6jFjYf/8XiF1gsWKwnUEieFOv87t2S2ZZ9rDrOYCgHdm6X6e71rgeIzRLeFltQaP5gnp+/l+of91m16MA8VW1R1yP0AiCN8U6v2u3GKMBSfzKiMS72r5cj33xj12PEZqlt9/qeoRIK3V0qeczv6mRbv51AlpQ0qc3DboeohEEb0oRu0ijl9Zt05EH9rseI3BcJTw/ztgFfDPoeoBGEbwpROwizZ7efiDxWxu4Snhu9TN2iV3AB1nzlOsRGkXwpkz+8CSxi1S72r5c3/hcsk9tWHITx5HNpn7sGGfsAj6wGtHWj424HqNRBG+KtB+zxbbV+aMidpFy39vwYGLP5u1YvUoml3M9RqSM5gucxAD4LRuvG1kJ3pRoP2aLWasBIxVdzwJEQVKvHebs3RuVOrq069N7OIkB8JtXecH1CM3Iuh4AwSN2gQ+72r5chVpZW08edz2Kb7KFgrrvutP1GJExuGqdHup9WG8sW+V6FCBZrL6jT27+lusxmsEKb8IRu8DckvYC29I1q12PEBlP3f0AL6cBQcmY2J3fT/AmGLELLCxJZ/PystrUft1H7/ucHrnvQdejAElVisNVwjMRvAlF7AKNeWndNv3Nhl9wPUbLlqxckfqzd+v7dZ+8e6vrUYAkG3Q9wGLwKm8CxTF2bdXKVu3U35e96z/mSTX7oa/1rv+8JGUKs/yeLWtkclM/bnKSslN/n2nn93eY3R88+HVtLR3X8vIV16MsWsct6d6n+txtG7T/4xw5BgSvcsj1BItB8CZM1GLXVq1suSZvwpOd9ORNeFLVypa998PVTgvYMJhCRiZrZHJGppCRclN/nylkZApZmZyu/9WEOhfcOd29Vs9s26+vvBCbM9RvkC0U1L4yvdsZHr3vc6zqAuEYVG9PyfUQi0HwJojL2PUmPHlXKrI1K++9mryxmuyk9/6qbZTYsqdGpjI5I9OWmfprZ1aZ9oxMW2bqrwRx4jy9/YAeGnlWay6fdj1K0wrdy1yP4ESpo0v77/+iBm9e53oUIB0y6nc9wmLxK3ZChBm73lhV3lhNtbGavMvVyIZt0EzOKNORfT+GMx05mZyU6eT3kXG19eSQnnnm11yP0bRbP745dft3B1et0/6Pf4FTGIDwlNR773rXQywWvzInQPdR2131dFTG/9i1VStvrKrqxYrsWE3eeC2VcTsbW7WqXalKV6o3/PhsIZzpZEU4Dl5at00vrXsgVmfztnUtT13ssoUBcGLQ9QCt4FfgmOs+arurbRqQ0Ra/PrN2uSLvSlW1y9WpoIMvTCGjbOdUCGeX54ngiFozekpH//yfx+YFthU/uz41t6uxhQFwqbI+rvt3JW5aizW/YtdWrWrnJ1U5U9bkj8dVPTup2pVq6C+TJV7NyrvmybtSVfXcpCqnJ1R9d1LelapsxZO86/uGM0SwS3G6gS1bKGjFz97leoxQPHfbBn3+536NW9MAF2J4s9pM/MoaU63Grq1a1S5OTgUX2xQiJdORVaYzq2zX1FYI9gSHb9nEFX3v326P/Crv0ttvVVfCrxIezRd0aONOtjAALlXtLn1606DrMVrBCm8MtRK7tcsVTb45rspb11Q9X5laxWUhN1Jsxcobr6l2saLq2ckbVoFNRjJtnCcctMlcQeVcmz794791Pcq8btrwEWVyyf0N0UjXau3avkd/vfojrkcB0qykT2161PUQrUru/1Im2KSxhzPGNBy73lhNtYuTqrxTZiU3hmzZU7XsSRcrkqa2PWSX55Tpyk39lRXgQDzzwG/os//0HyO7tSHpN6s9dfcDXA8MREFGfa5H8ANbGmKm85g9bKz2NfK1tcsVVd6e4MWzhKsHcPamPFsgfBblY8pWbdqoQlfyzt/lxTQgUmJ9FNl0/MoYI43Erq1aVd+ZYDU3RWzVqnqxomp9BbiQmRbAOa5UbkFUjynLFgqJjN2n7n5AfRu3cz0wEB2DrgfwCyu8MbFQ7BK6mMsH2x/yynbxe9xmrRk9pe/96XbXY9wgaUeRsaoLRFW8jyKbjpfWYmC+2LVVq+rpCZV/NKbaaJUX0PAhtvzBUWjVdyfljdWkmpWyGc4BbsDV9uVaVr6iLadHXI/yvu716xLzshrHjQGR1a/ezUdcD+EXfrWLuKXH7EHZD28YZ0UXfsguzym7Ms/LbwuI0jFlHatXacXPxP/s3dF8Qfvv/6Keu32D61EAzCo5q7sSK7yRNlvssqILP9myp9po9YPjz8qeTMaw73eGyVwhMpdRrNz4M7Ff3X3utg3atX2PRrpvdT0KgNkNqnfzU66H8BMrvBE1W+xWL0xqsnSNG9AQuOkvvuVWtrkeJxKisMrb1rVcN2/6qLPnt4q9ukBMJOCiiZlY4Y2gmbHrjdVU/uGYKmfKU3svgaDVrl9+caGi6jtleeM1SVOXXqT16uMoXEaxfN3tynd2Ont+K566+wH96tb/kr26QNRZjejnNj3megy/pfNXrgibHrv1fbqTb084ngr4QO6mvLI35ZW9qS2VL719799+Wmsunw79udlCQbd+YnPoz20Vq7pAzGS0Tw/cm5iX1erS96tVhE2P3drlispvjrN9AZGWuymv7M1tqdr24Ooyiu677lTn7fHa83po4w49efdWztUF4iMxF03MFO83HxKkHru2alV5+5oq75RdjwQsqH7hxWRuXNkV+VTs+XV1GUX7TStCfV4rBlet06P3PchLaUDcJOQa4dmwwhsB9dj1xmqaeOM9VnURa/UX3nK3FBJ70UXYq7xxOYpsNF/QoY079eTdW12PAqB5iV3dlVjhda4eu9V3yiqfGHc9DtAyW/amLrk4N/l+/OZvLyTqnN+wV3mX37EmlOe0ov/OzXp084NsXwDiKsGruxIrvE4tPWYP2ortK7/xnmpXqq7HAQKV6chOhe/yfCLO+Q1rlTfqR5GNdK3Wo/d9jpfSgHhL9OquxAqvM51/bQ94V2t9bGFAWnjjNZXfnPpTjKktD23K3VJwPNXihbXK27l6ZaCfv1hsXwASJOGruxIrvE50HrN7a2fK/ZNvX+NaYKSayRllV+Rju9836FXeqB5FxvYFIFESv7orscIbus5jdm/1rYn+ybevuR4FcM5W7Q37fdvuaI/VloegV3mXr7s9kM9drMFV63Ro4w62LwBJkoLVXYmb1kLV+X/avZNvvtdfOcuRY8CH1KxqF6dudrNjNcmzsXjR7XT3Wj30yrd9/9xsoaDld65RJuf+X4PRfEGP3ftZ/Xc9v6hSZ7frcQD4Z1Db7n3U9RBhcP+/pCnR/pfVvRNvXOmvX9EKYG7vn+/79sTUKQ93LInsqm9Qq7yF7mXKtrvf4/zU3Q+ob+N2ti8ASZQ1qYhdiT28och+48puW/OO8nIasHhRftFtzegpfe9Pt/v6mbd+fLPT4B1ctU77P/4FlTpY0QUSql+99+53PURYorlkkiD5J97bYsu1w8Qu0JralarKb45r/P+9rPKPxuRNROe/U6e71+ro5i/59nkdq1c5i92RrtXa9ek92rV9D7ELJFrlkOsJwsQKb5C+dmmLydgBSfyqAQQgSqu+fq7y3tLzMeU7O335rEZxzBiQKqla3ZXYwxscYhcIXO1KVbUr1Ujs9T3dvdaXvbxtXctDjd3RfEFP3b1NT969lX26QDqU0ra6K3FKQzCIXSBcNStvvPb+CQ8mn3ESvn6c2LB83e2hBe9Tdz+gh3of1l+v/ogmsqx/AKlgdUif3PzXrscIG1sa/NZ3qWiqdljELuCUq3N9n3nmVxe9yhvWRRO8kAakVioumZgNL635qe9S0VRY2QWiwJY9ld8c17X/L9yX3J7ecWDR3xv0RRODq9bxQhqQZim5ZGI2/BmWX+qxa1R0PQqAG9VvcwvjJbeZ5/L+U3aJTmXbdT6T07j5YBfZKq+in62Oa0Nt6tbFbKGgjltuDmQmbkgDIKlfD9x7xPUQrhC8fiB2gViY/pJbkNsdvrXtv9HZn76p7xVu0rhZ+PN7Jy/r11f7/8JYqaNLj973OT13+wbfPxtA3KTvRbXp2MPbqr5L3ddjd4vrUQA0L3dzm2+nO+TKY1oz8pzWjBxVrjzW9Pd/dkWbfu2Wgla3tTZLqaNLfRt36Mi64PcDA4gBzx7Spzb1uR7DJYK3Rebxi0cl7XY9B4DW1I81y3Yt7g++2q+c1X3f/pdqv3q2pTlWt2X0m7e1a9vyfNPfy1m6AGaR2hfVpiN4W5B5/NJBK9vneg4A/qmf7tDMPl+/Yne6X7ulXb++urEZOEsXwNzsLvVuGnQ9hWsE7yIRu0CymUJG+VvalL25MO92hyBit+7RtR367Iq5V3oJXQALSN2NanMheBfjsfO7TTZz1PUYAMIx3z7frYf3BRK7ktSZNfrTu5d+aE8voQugASWpsku9PSXXg0QBwdssLpYAUit389SRZvV9vuuO/29ad/wvA33mps6c/vCuqZvXSh1devLuB3Rk3WZCF8D8MtqX5mPIZuJYsmZ8cPwYsQuk0PTzfJctu6w1I8H/Qc8/jlX1f9ml+vbHf55TFwA0KtVn7s6G4G2CqdonOGsXQO1KVd0/+rtFHT22GP/je+06TuwCaEwp7WfuzoarhRuUefzSQXH8GIDrimePhfaslaUfKzdxLbTnAYixjPrYt/thBG8jHju/mxMZANQtKZ/TkslzoT5z7ch/CvV5AGKJrQxzIHgX0nepaDKZJ1yPASA6ll87Gf4zf3om9GcCiJUSWxnmRvAuwFTsUfbtAphu2Xj4wbvk8sXQnwkgTux+tjLMjeCdR+bxSwdltMX1HACiJV8bD/2ZHaMEL4A5ePYQt6nNj+Cdy+OXdrJvF0BUTLYvcT0CgGgq6VOb+lwPEXUE72z6LhWNtYddjwEgmirZjtCfWSV4Acxk7ahU2eV6jDggeGeRqdT62LcLYC7XCjeH/sxKgeAFMEPWPMK+3cYQvDN97fw+azJ7XY8BILouLtsY/jOLHwn9mQAizLOHOIKscQTvdH2XisZkDroeA0C0XWu7WdWQtzWc/ejHQn0egAgzGmHfbnMI3mlM1R5mKwOARpxY/fnQnnX51tt1rfum0J4HINJKspWHXA8RNwTvdZnHLx2QtNP1HABioPOC3vr8mKpLTCiPe2fX55TJZkN5FoCI8yoPsW+3eTnXA0RC36WirXIEGYAFdF5QZtPzMncNqSbp5PZ2feQ/XAv0keWVq3Rp5y+oS9Lk+Lgm3ntPtWo10GcCiCirR/WpnhHXY8QRwaupUxmsyXS7ngNARN3yw6nQXf2jG3745PaCbn+prCWXvMAe/dp///X3/76to0NtHR2qlssqX7umyfHwL8AA4IhnD+lTm550PUZchfPncVH2tfP7TCbDmbsAPmyO0J1uyUVPvX9yRblr1vfHlx7+r/TOZ+beK+zVarp29SrhCyTfoHrv5bzdFqQ7ePsuFU3FDvCiGoAbNBC60y07XdMn/tervkbv2//Fl3Tqn3+poa/1ajVVrl3TxNiYvFrNtxkAREJJ7ZUe9fSMuh4kzlIdvJl/db6fM3cBvK/zgjLb/qLh0J1uyUVPH/9frra8vaHa0aFT//xL867szmdyfFzXrl4lfIFkKEmVXbyk1rr0Bm/fpaKp2hOuxwAQAdNeRmvFkouePvIfrun2lycX9f2Xf3ajfrzvv1V5Zes3ubHPF4g5a0dlqj3Erj9SG7zmX108wVYGIOXy48rc/+2WQ3em9jOTuuvfv6fVJSk/ufD/zF64zer07j0a2+L/2b71fb7VcplVXyBW7C71bhp0PUVSpPKUhszjlw5Y2aLrOQA4kh+X+eiAMh8dlPL+r4COaVL/sMNKO6Sb3rFaecZo+QUpd33ht9omjS+Trqy0OrtOqhak3JKXtUz+B28mm1Vnd7es56kyMcF2ByAWvP3qvW/Q9RRJkr4VXl5UA9Ir4NCVJFupqfbm4t4tWbrhXyu/7B6fJ/qwarmsibExVSYmAn8WgCZNHT/W53qMpEndCu/1M3eLrucAEC6zYUCZ+54PLHTrvHOLv4hi4syzym/41z5OM7tcoaClhQLbHYCoIXYDk64VXl5UA1LHrH1Fmfu/LXVeCPxZrazu1oW1yjsTt7gBjhG7gUrVCq+pWi6YANKiybN0/WAvtr5FIKxV3pm4xQ1wiNgNXHqC92vn90na6XgKAEFr4SzdVnlXF3cc2XTVq6+rcvV1J6u80tR2h1yhoCXLlqlaLvOSGxA0YjcUqdnSwDFkQMLlx2Xue16ZDQNOHu+NluW9854vn5Vbdo+WOVjlnQurvkBAiN3QpGOF92vn9xG7QHKZTd8N9OSFRnjn/Xu261XemVj1BfyXyWUPeZ/Y2Od6jrTIuh4gcH2XisYzh2XU7XoUAD675YfKfvYpmbX/IGUrzsbwRsuyl8v+fubkORVW7fD1M1tlMhll83m1L12qfFubZIxqFXf/ugNxZDJGbUuWHKr+s5/tcz1LmiR+hTdT1V7L6i6QLA736c7G79iVorfKO9PMVV9OeAAWlslmtaRr2ZGxDWv7XM+SNsle4e27VFTNPsnqLpAQ+XGZj/0/ym7/c5mlF11PI2nqKDLvbDBbKaK4yjtTfdW30NmptvZ2WUnW82StdT0aECnXbz088t6GNftcz5JGiV7h5ZIJIDnMXUNT5+k63Kc7m1YumlhI1Fd5Z8rm8+rsnlpfmBwfV3l8XNXJ1k+uAOKuraND7cuWHrly1y37XM+SVsk9pYFLJoBkcHCebqP8uGhiIVE7saFZXq3Gi25ItfZly9TRufTIxfUr97meJc0Su8J7fXXX9RgAFsvxMWON8OOiiYXEbZV3pkw2+/6lFrVKRRNjY1xljFS4voVB+XwbsRsByVzhZXUXiLWobl+YqfrmJaniBf6cuK/yzqZy7Zomy2XO9kUi5dra1LlihTLZ7MildTf1uJ4HCV3hZXUXiKmInb4wH2+0HErsSlOrvOXzL0T+BbZm5JcsUX7JEnUsX67KxAT7fZEYHV1dKnR2StKI9cwu1/NgSvJWeFndBeInPy7z0QHnl0c0I6zV3bpM283quu9PQ3ueC/X9vsQv4iiTzWrpTTcpm89L12N3dP2KYDf5o2GJW+FldReImVt+qGzvX0qdF1xP0jA7Xgk1dqWpI8omzh5T++rPh/rcME3f70v8Ik4KnZ1asmyZTCYjEbuRlKwVXlZ3gfiIwUtpc6mdeS+QyyYWYrKd6rrv38pkO0N/tkterabKtWsqj49zuQUiJdfWpo6urvqqrkTsRlaiVnhZ3QXiwax9ZeqltBit6tbZSs1J7EqSrY1p4uwxLbn9l5w835VMNqvC0qUqLF3Kyi8iwWSMlixbXt+rW1eynnmI2I2m5Kzw9l0qmoodENcIA9GVH1em9y9l1r7iepJFc7W6W5fWVd7ZEL9wYcb2hbrS9ZXdkqOxsIDkrPBWvN0ypuh6DACzMxsGlLnv+di8lDYXO15x+/yUrvLOZrY9v5MTE6pOlmU9rjaGv3JtbVqybJlyhcLMnyJ2YyAxwWtkDrieAcAsYnTU2ELCPIpsPuWzx1RYuUOZws2uR4mM6fEraWrl99o1LrlAy+YJXYnYjY2s6wF88bXz+0zG7HM9BoAbmQ0Dyv7cYZnlZ12P4gvvzHtSLQIrh7Yib/Kc2m76pOtJIiuTy6mtvV3tS5eqrb1d2VxO1lriFw3LtbWps7tbS5YvVyY36/ogsRsjiVjhNSZz0PUMAKZJwF7dmex4RbYcnViqjP6nWF85HKZsPq9sPn/DS2+VyUlWfzGrBVZ064jdmIn/S2uPn99tlDnqegwAU8zaV5Tp/cvY79WdyfXLarNJ4pXDYatVKtP2/vLiW5o1GLoSsRtLsV/hNcqwdxeIghifq7sQl0eRzad69XVWeVs0ffXXep5qlcpU/JbLnPmbAiZj1LakQ4WOjuln6c6H2I2peK/wctEEEA0xvC2tGd5oWd4777keY1aZtpu1/GN/yDFlAfBqNdUmJzVZLqs2OUkAJ0iurU1t7e1q6+iYebzYfIjdGIv1Ci8XTQDumfufTeSq7nTe+ehuz6hfOcwxZf7LZLPKLFmi/JIlkj4I4Pr+XwI4XuqruW3t7Y1sW5iJ2I25+K7wsroLuNV5Qdntfy6tOOV6kkDZ8YpqJ6+4HmNeXEbhRn0LxAcBXOH834hpMXLrRq1neojdeIvvCu9kbaca/2MIAD5KyiUSjfBGo7d3dyZbG9O108+q4869rkdJFZPJKFcoTIXUsmWSpl6Cq0cw2yDcyGSzyre3txq5daOs7CZDbIOXo8gAB/LjMh//tjLrh1xPEoqovqw2m/K7x5Rf8QleYHOs/hJc/QKM+ipwPYK9apUI9pnJGGVzebW1tyvf3j7XmbmLUY/dEb8+EO7Ec0sDR5EB4VtxamoLQ0JfTJuNd35c3rlrrsdoGMeUxUe1XJ4K4Vpt6q9sh2hYPXDzhYJybW3K5vPNvHjWKGI3YWK5wmuU4c/tgBCZDQPK3P+s6zFCF4ftDNNVr76uydGX1db9CdejYAHvb4WYZvpqMCH8gWwup2w+r1w+r1yh0OjxYa0gdhMofiu8vKwGhCeBN6Y1yl6dVO3UVddjNI1jypLHep68Wk1etapqtSqvWpVXq00FcoK2R2SyWWXz+ff/mru+PSRs119QI3YTJnYrvBxFBoQkhVsYpvOuxvPWLY4pSx6TySibySibz2u2/JsewF6tJs/aG37MWuv8CmWTMTJm6v8HY4wyudzUsW/GTEWuf/tuW2I9b//o+lXEbgJF4z9hTbDK7HA9A5B0aTqFYTZxelltNuWzx1RYuUOZws2uR0EIMrlcw8HoVauy1sp6niSpdj2EZwax18DKsclkbtg7m8lmp/5qjEwm88E/RyRmF3I9dvtdz4FgxGtLAy+rAcFK8PXAzYjyzWqN4gU2oHHEbvLF47dd1/GyGhCglFwk0Ygo36zWqOrV11W5+jrHlAELIHbTIT6bYfsuFSXtdj0GgbIocgAAIABJREFUkEi3/FDZX/xDYldTN6up4rkewxfjJ74pWxtzPQYQWdazjxK76RCf4J2s7XQ9ApBEZsOAsp99KrX7dWeK21Fk86m/wAbgw4xnD42uX/mk6zkQjtgELzerAT7Lj8v0/kUqz9edS9xfVpvNxJln5ZXPuR4DiBTj2UMX16/scz0HwhOP4H380k4ZFV2PASRG5wVlP/tUaq4IbpQdS86ZptONlb7pegQgMojddIpF8GZsbZ/rGYDEWHFqagsD+3U/JGmru3XVq6+ztQEQsZtmsQhezt4F/GHWD03Fbkovk5iPrdSmXlhLqIkzz/ICG1KN2E236Afv187vYzsD0Dqz6Xllev+Cl9Pm4J275nqEQNnamMbfesb1GIATxC4iH7wmk/mi6xmAuDO9f6HMpu+6HiPSkry6Wzd54QVVrr7uegwgVMQupKgHL2fvAq3JjyvzmSd5OW0BSTp7dyGczYs0IXZRF+3g5exdYPE6Lyj7i38os/pHrieJvCSdvbsQb/Kcrp3mKDokH7GL6SIdvCbDVcLAolw/doyX0xaWxLN3F1J+9xhbG5BoxC5mim7wTm1n2Ol4CiB+VpyauiaY2G1IUs/eXcj4Cc7mRTIZzx4hdjFTdIOX7QxA08z6IWU//wecxNCEtK3u1nmT53TtDFsbkCzXY3ef6zkQPZENXrYzAM0xGwamjh1Dw5J+9u5CJs48q9p4yfUYgC+IXcwnmsHLdgagKWbT88rcz2pds+zV9MZuHdcOIwmIXSwkmsHLdgagYWbT85yxu0jexWRfNtGI2vhJtjYg1ohdNCKSwct2BqAxxO7i2XI1NWfvLoStDYixkYujbz3ieghEX/SCl+0MQEOI3dZ4FyZcjxAp7735J1xIgbgZsZ7ZpZ6eUdeDIPqiF7xsZwAWxFXBrUvzy2qz4UIKxMyI9cyu0fUriF00JHLBy3YGYH6m9y+4KrhFabpKuBlcSIGYIHbRtGgFL9sZgHkRu/5I01XCzRo/8U22NiDKiF0sSrSCl+0MwJyIXf+wnWFubG1AhJWsZx4idrEYkQpek8l80fUMQBSZTc8Tuz5hO8PCyu8e0+Toy67HAKYrXV/ZLbkeBPEUqeCVtNv1AEDUcBqDv9jO0JjxE9+SVz7negxAInbhg+gE7+PniV1gBmLXf2xnaIytjXELG6KA2IUvIhO8GcvqLjAdses/tjM0p3r1dU2cPeZ6DKQXsQvfRCZ4rTI7XM8ARIXZMEDsBoDtDM279vYRjiqDC8QufBWN4O27tEVGRddjAFFg1r6izP28JR8EtjMsDkeVIWTELnwXjeCtemxnACRpxSllev/S9RSJxHaGxfMmz2nsBPt5EQpiF4GIRPAaGbYzAJ0XlN3+51J+3PUkicR2htZURv8T+3kRNGIXgXEfvNyuBkzF7mefkjovuJ4ksdjO0LqJM8+qNl5yPQaSidhFoNwHL7erAVMru8RuYNjO4A9bG9N7b/4J+3nht1FiF0FzHrwZw+ou0s3c/6y04pTrMRKN7Qz+YT8vfEbsIhTOg5fjyJBmZtPzymwYcD1G4rGdwV/s54VP6rE74noQJJ/b4H380k6OI0NambWvcNZuCGy5ynaGAHA+L1pE7CJUboPXelucPh9wpfOCMvd/2/UUqWCvTLoeIbHGT3xTXvmc6zEQP8QuQuc0eI0xX3T5fMCJ/DgnMoTIXiV4g+JNntN7P/6fXY+BmLFe7SFiF2FzF7x9l7rFcWRIIXPf88RuSGylJluuuR4j0WrjJzX+1hHXYyAmrOftH11/86DrOZA+7oK3ynFkSB+zYYCX1EJkx6quR0iF8rvHeIkNC5qK3VX9rudAOjnc0mB2uns24EDnBWXuf9b1FKliL3McWViuvX2ESykwJ2IXrjkLXq4TRqrU9+0iPDXLcWQhe+/NP+ElNnwIsYsocBO8U9cJc0IDUoN9u+EjdsNXf4mNm9hQZz37KLGLKHATvNUasYvUMHcNsW/XAY/TGZyYeontGddjIAKMZw+Nrl/5pOs5AMlR8Gasdrt4LhC6zgvKbHre9RSpxAqvO5MXXtC1M+xXTzPj2UMX16/scz0HUOckeK3JbHbxXCBsmU1sZXCB29XcmzjzrCbPv+B6DDhA7CKKwg9e9u8iJcxdQzJ3DbkeI5U4jiwaxkrf5OSGlCF2EVXhBy/7d5EGbGVwitvVouPqP/0bTm5ICWIXURZ68LJ/F2nAVgaHOI4sUmxtTFf/6feJ3oQjdhF1oQcv+3eRdGxlcIvYjR6OK0s2YhdxEG7wsn8XKcBWBrc4jiyaOK4smYhdxEW4wcv+XSScYSuDexO8sBZVkxde0PhbR1yPAZ8Qu4iTkLc0mJ3hPg8IUecFZTZ91/UUqWYrNdlyzfUYmEf53WOc0ZsAxC7iJtTgNTI7wnweECa2MrjHcWTxMHHmWaI3xoxnjxC7iJvwgrfvUrfYv4uk6rzAi2oRwAtr8cHFFPF0PXb3uZ4DaFZ4wVsldpFcrO5GA8EbL2OlbxK9MULsIs5C3NLg7QzvWUCIVv+I1d0I4DrheBorfVOVq6+7HgMLIHYRd6EFL/t3kVSZe3lRLQrsNV5Wi6uxN/+EK4gjzBrzHLGLuAvzpTW2NCB5Oi/IrP6R6ykgyb7H+btxNXUb278heqNpRDXtdz0E0Kpwgrfv0hZJ3aE8CwgRe3ejw3L+bqwRvZE0Yj2za3T9ilHXgwCtCid4J7lwAgnEyQyRwf7dZCB6I4XYRaKEErwZo51hPAcIE6u70cH+3eQgeiOB2EXihBK81mQ2h/EcIEzs3Y0OjiNLFqLXKWIXiRR88HLhBBLI3DUkdV5wPQauI3iTpx69k6Mvux4lTUrWMw8Ru0ii4IOXCyeQQGbNK65HwHW2UmP/bkLZ2pjG3vwTLqcIR+n6ym7J9SBAEELY0sCFE0iYzgsyd/yD6ylQN8H+3aQbK31TE2ePuR4jyYhdJF7gwWtk2L+LRGHvbrSwnSEdrr19RNfOPOt6jCQidpEKYby0tjOEZwChYTtDtFhWeFNj4syzRK+/iF2kRrDB23epKC6cQMKwwhstrPCmy8SZZzX+1hHXYyQBsYtUCTZ4q1w4gYRZ/SOp7ZrrKXAdsZtO5XeP6crr/1K2NuZ6lLgidpE6AW9pMAQvEsV0n3I9AqZhO0N61cZP6sprvyevfM71KHFD7CKVAg1eI7MjyM8HwmZu+aHrETANK7zp5k2e09V/+n0uqGgcsYvUCvqlNVZ4kShm6UXXI2C6SVZ4086bPKcrr/8ex5YtjNhFqgUXvLywhiRawZaGyKhZ2TLBiykcWzavUWIXaRdc8PLCGpKG/buRYstV1yMgYibOPKur//T77Ou9EbELKNAtDbywhoQpcDpDlPDCGmZTvfo60fuBeuyOuB4EcC2w4OWGNSSN6bzgegRMwwtrmIs3eU6X//G3076vl9gFpgluhdfywhqAAPHCGhZw7e0jGjvxzTSe10vsAjMEE7x9l7plVAzkswGAF9bQoMkLL6TuvF7refuJXeBGwQRvldVdAMHhhTU0o77FIQ2nOEzF7qrnXM8BRE0wwWs9ghfJM9nhegJcxwtrWIyJM8/q8j/8dmJXe6/Hbr/rOYAoCiR4jeGGNSSPvbTG9QioqxC8WJykrvYSu8D8gnpprRjQ5wLujK2UJpe4ngJihRetS9JqL7ELLCyo4GVLAxLJXlrregRIshPs4UXrkrDaaz37KLELLMz/4O27ROwisey7P+t6BNSs5FnXUyBB6qu95fMvuB6lKcazh0bXr3zS9RxAHPgfvNVa0ffPBKLi3Z9xPUHqcUIDguBNntN46ZuxuaXNePbQxfUr+1zPAcRFAFsauFIYyWXP/ozsWaLXJfbvIkjVq6/r8j/+tsZOfDOy4UvsAs3zPXiNOKEByWZf/c9dj5BunNCAEExeeCGS4UvsAosTxEtr3QF8JhAZrPK6xQovwhSl8C2/8+9HL478er/TIYCYMr5+Wt+lblO1l3z9TCCKOi8o+/k/kNquuZ4kdWo/GeVaYTiT7/64Cqt/Ufll94T63PG3n1H57POSVFIms0sP/XUp1AGAmPM3eB+/tNPIDvj6mUBEmdU/UuYzvCAdtuoPLrgeAVCm7WYVVn9ebd2fUKZwc2DP+f/bu5/YOM7zjuO/d5aUZDqqyFBO0KKNNkEvNo2YMppeWsQkYTLuJRZlqQgQoCZ16ymSTwZiwEvYsn2K6VNv1epQi7UtU82hcUQ1EoqcI17iY8Uc0yYm21iBLe7O0wM1FP8t99/MvPPn+wECBBa1fALH4Fevn3kn/PJ/dH/tn9T4w6c7/zLRC3Qp5uD93RmnYDnWzwQyzP3lLzeCv77GGk9K7MuGmv/1v77HAHYZOP6Ujow+p8HjT8UWv9a4ry/++2f68rc/kzXvH/QlRC/QhZiD9/eLTu5HsX4mkF0bFrrJyg//cdw5d8X3MGVgf9xU8zf/53sMoKXK0ClVHqtqcOSvFBx5QgND1Y5/rzXua/PzT/Xgd/+pxh8+bRW6OxG9QIdiDV732me3JU3E+ZlARm1Y6Cb11siqJFV+/YM5ojd54WdfKPxt2wgAMsNVHldl6JRcZUjBkSfkBh7f9evWuC9r/lGNzz/t9aG4DTVtUn+/shrLwEBBxR28d8VrhVECFrrTUexGKr/+wZxT8K6cseKQkPC39xV+9oXvMYCsIXqBNuK7lqy2PixiFyVgLpzfG7uS1BxbqjtpUuY2fMxVBrYZ+h4ByKJhVdxtfTDNz2CghfiCt0HsovjMhfN642S91a9vjr2/SvQm6AHXkQEtEL3AIWJ88USTf42LQmsXuxGiNzmc8AKH2oreD5+f8D0IkDUxBq/jT5UorE5jN0L0JiQ03xMAWTesILitj2de9j0IkCWxBa+TeyauzwKyxMwudRO7kSh6TVqLf6rysS8bvkcA8sNUJ3qBR2I84VU1xs8CMsFkC7o82vPr1DbH3l9tOiN649DkdBfoCtELbIszeFlpQKGYbEFvjtb6/qAnl9aI3hgQvED3iF5AUlzBW1sndlEoscVuhOjtGw+sAT0y1XX9exd9jwH4FE/wNsQNDSiM2GM3QvT2Z5MryYDe2btannnd9xSAL/EEr4Wc8KIQEovdCNHbM2OlAehPqBrRi7KKJ3gdD6wh/xKP3QjR2xtWGoD+Eb0oqViClyvJkHepxW6E6AXgC9GLEorrlgZ2eJFbqcduhOjtDju8QHyIXpRMXMHLDi9yyVvsRojejrHDC8SM6EWJ9B+8XEmGnPIeuxGitzO8VhiIH9GLkug/eLmSDDlkZlczEbuRJ5fWml8ePS3Tqu9RMonTXSA5RC9KoP/g5Uoy5IyZXdXl0Tnfc+xzur7ReHB0kujdzzjdBZJF9KLg+g9eriRDjmQ2diNE78FCriQDEkf0osD6Dl6uJENeZD52I0Tvfqw0AOkIVdP16Su+xwDiFsctDezwIvNyE7uRKHpld3yPAqBs3BzRi6KJI3jZ4UW2mVZ1P7joe4yuna5vNJ5amrRQV32P4h0nvEDKiF4US3/B++p6NZ4xgISYVu2+m9TiyIbvUXrVfPraXOmjt8kOL5A+ohfF0V/wDvDAGjKsALEbIXoB+OHmdH1mWVcmWF9ErvUXvGGzGs8YQMwKFLsRoheAJ2d0/Mhtohd51l/wBq4ayxRAnAoYu5Hm09fmZHrP9xwASsZpnOhFnvUVvFxJhswxrVnTzRYxdiONsWsXZbbgew4AJUP0Isf6vaWB/9MjO7Zid1LvjKz5HiVpjbGlWpmi1zZ5aA3IBKIXOdVf8BoPrSEjShS7kbJFL4CMiKJ3+YWq71GATvUXvLxWGFlQwtiNEL0AvHAaVxgSvciN3oO3ts4LJ+BfiWM3UororcTxjhwAMasSvciL3n+KNNjfhWfE7raiR6+jd4GsInqRC73/GOEOXvhE7O5T9OgFkFlELzKv9+DlDl74Quy2RPQC8IToRab1Hrzc0AAfiN22iF4AnhC9yKyeg9c5dyrOQYC2iN2OEb0APCF6kUn9PArCQ2tI0wax253G2FLNzOZ9zxGLIxXfEwDoHNGLzOkneLmWDGnZsJDY7UVzbKlemOgFkCdELzKlt+CtrXO6i7Rsxe5bI6u+B8mrQkRvxfmeAED3iF5kRm/B2+B0F6kgdmOS++gNuIgXyKmqwvCuPpimG+BVjz9FmpzwImnEbsyaY0t1a2hW5jZ8z9ItF3DCC+TYsCruNtELn3oLXnPVWKcA9rBmOE/sxq/57Ws3nDSZu+hlpQHIO6IXXvUWvI4bGpAcc+G83j55w/ccRbU59v5qHqPXDbLWAOQc0QtvevoJ4uSeiXsQQHoYu2+crPueo+jyGr0Acm8rej+aOeN7EJRLr0cmnPAidsRuunIXvYPcxQsUxLCclvXxzMu+B0F59LjDy2uFES9i148oek1a8z1LW6w0AMViqhO9SEuvO7zVeMdAmZnZJWLXn82x91ebzjIfvY4H14DiIXqRku6Dl5dOIEYmW9Dl0UXfc5Tek0trmY9eVhqAYiJ6kYJeTnircQ+BcjLZgt4crfmeAw9lPHodGw1AcZnquv69i77HQHF1/yOkwQNr6B+xm1FZjt7HBnxPACBR9q6WZ173PQWKqfvgDZvV+MdAmRC7GZfV6OX1wkDxhaoRvUhC9z9BAleNfQqUBrGbExmMXjcYSLxiGCg+ohcJ6OXIhJUG9ITYzZmsRi+A4iN6EbOuf3o4uVNJDIJiI3ZzKmvRe4w9XqA0iF7EiBNeJI7YzbkMRS938QIlQ/QiJt0HL29ZQxeI3YJ4GL0yrfocwx3lLl6gdIhexKD74OUta+gQsVswTy6tNR4c9Ru9XE0GlBPRiz51F7y8ZQ0dMrOrxG4Bna5v+IxeN8AJL1BaRC/60O0JbzWJIVAsZnZVl0fnfM+BhPiM3orjpgagzELVdH3mXd9jIH+6+8nBW9bQBrFbEj6jd2gw9W8JIFMu6vr0Fd9DIF+6PCppErxoidgtmSh6pRtpflvH1WQA5OaIXnSju+A1V01kCuSeyd0gdkvodH2j8dS1WQt1Na1v6Y6xxwtAInrRje6C17HSgAOYVvW55n2PAX+aT1+bSyt63VFOeAFEiF50pssTXh5awx6mVbvvJrU4suF7FPiVWvRWHPfxAtjBzen6zLKuTHAoh5a6Cl7neK0wdiB2sUda0ese58E1ALuc0fEjt4letML9PugNsYsWmk9fm5PpvSS/h+OmBgB7OY0TvWiFlQZ0j9hFG42xaxdltpDU5xO8AA5E9KKFbh9aqyYzBnLDtGZNN0vsop3G2FItsehljxdAK0QvDtB58PJaYWzF7qTeGVnzPQryIcnoZY8XQEtR9C6/UPU9CrKh8+D9givJSo3YRY+Sil53/EjcHwmgSJzGFYZELyR1E7wDrDOUFrGLPiURve7ogBS4OD8SQPFUiV5I3NKAdohdxCT26K04XjMMoBNEL7oI3rBZTW4MZBKxi5jFHb2sNQDoENFbcp0Hb+CqiU2B7CF2kZA4ozc4cTSOjwFQDkRvibHSgP2IXSQstuitOO7kBdANorekOg9eXjpRDsQuUtIYW6qFYXip389hrQFAl4jeEuo4eJ1zp5IcBBlA7CJl4dP/umhm8/18BmsNAHpA9JYMKw2IbJi5WWIXaWuOLdX7il7WGgD0hugtEVYaIEkbFrpJvTWy6nsQlFO/0ctaA4AebUXvB9PjvgdBsjoPXseb1gqK2EUm9BO9wYmjvIQCQK+qqjiit+C6WWkgeIuH2EWmNMeW6tbQrMxtdPUbK07BMLu8AHo2TPQWW2fBW1sndouH2EUmNb997YaTJruNXtYaAPSJ6C2wzoL3C053i8aa4Tyxi6zaHHt/tdvodUODPLwGoF9Eb0F1FrwDPLBWJObCeb198obvOYDD9BS9nPIC6N9W9H40c8b3IIgP15KVjLlwXm+crPueA+hEt9HLw2sAYjIsp2V9PPOy70EQj86CN2xWkx0DaSB2kUdR9Jq01vaLK07B6LHkhwJQDqY60VsMnQWvc+zw5hyxizzbHHt/temso+gNRh5LYSIApUH0FkKHwctDa3lmZpeIXeTek0trHUVvxcnxumEAcSJ6c6/THV6CN6dMtqDLo4u+5wBi0WH0BqOc8gKImamu69+76HsM9Kaz4DWCN49MtqA3R2u+5wBi1UH0uqMVrigDkAB7V8szr/ueAt3rKHidc6eSHgTxInZRaB1Eb/AEp7wAEhCqRvTmD9eSFRCxi1JoE71uaJBdXgDJIHpzhx3egiF2USptojd4YijlgQCUBtGbK+zwFgixi1I6JHrdYKDgq9zLCyAhRG9udHotWTXZMdAvYheldkj0BieHePsagOQQvbnADm8BELuAtqNXptVdf523rwFIGtGbee2D99X1avJjoFfELrDDk0trjQdH90VvcHJIGuTP9wASRPRmGj8BcsxCe4/YBfY4Xd84KHorf/YVXxMBKAuiN7PaB+8A+7tZZGZX9dYob3wBDnJA9HJNGYBUhKrp+sy7vsfAbpzw5pCZXdXl0TnfcwCZdkD0Vr7+OA+wAUjDRV2fvuJ7CDzSQfA2uZIsQ4hdoAtR9Eo3JG09wPY17uYFkAY3R/RmR/vgDbmDNyuIXaAHp+sbjaeuzVqoq5IUjByTGxr0PRWAUiB6s6J98DpH8GaAyd0gdoHeNZ++NhdFb+XPj7PaACAlRG8WdBC8nPB6Z1rV55r3PQaQd9vRW3Hc2gAgRW5O12eWdWWCpvKkk4fW+Jvjk2nV7rtJLY5s+B4FKIIoet3xI7x2GECazuj4kdtErx/tg9cIXm+IXSARzaevzclsITg5JHd0wPc4AMrCaZzo9aNt8DrnTqQxCPYgdoFENcaWagq0EPwF+7wAUkT0esFKQxYRu0AqGmNLNTfgFtjnBZAqojd1vHgia0xr1nSzxC6QjsbYUs19ZXAheOIx36MAKBOncf3JkbtafqHqe5Qy4IQ3S7Zid1LvjKz5HgUok8bYUi0YfWwh4NXDANJVVRjeJnqTx0NrWUHsAl5F0ctDbABSRvSmgHt4s4DYBTKhcfqDmvv60IIG2fYCkCqiN2GsNPhG7AKZEn7no1rwp19Z4OYGACkjehPEMYZPxC6QSeF3PqoFX3uM6AWQNqI3IYcH76vr1XTGKCHTPWIXyK7wb27UgmOVBUnmexYApbIVvT+d+abvQYqEE14ftmJ3itgFsi38u3+vadC9IqIXQLqq2tQviN74HB68x9jfjR2xC+TL93++KNkFEb0A0kX0xujw4G0QvLEidoF8emmlTvQC8IDojQkrDelZN3NniV0gp4heAH5sRe9Hz5/2PUietQneJie88Vi30E3prZFV34MA6MNLK3UF9qxk675HAVAqVbmA6O3D4cEbstIQA2IXKJLZlVUFmpJ0z/coAEplmOjtHSsNySJ2gSKaXVlVEBC9ANJG9Pbo8OANXDWVKYqJ2AWKbPaTNaIXgAdEbw844U2GWTO8QOwCBTf7yZqCB8/Kwtu+RwFQKlvRe3161vcgeUHwxs/MhRf09skbvgcBkILZOxs6d2tKoRZ9jwKgVIYl97GWp+d8D5IHhwevqZrOGIWxFbtvnKz7HgRAys7fvKRQvIoYQLpCd4XobY8T3vgQu0DZnb9ZkzXPir1eAGkiets6NHidcyfSGiTviF0AkqRz/3GDh9kApI7oPVS7E17u4e2AyRaIXQDbth9mc3XfowAokdBd0fJMzfcYWcRKQ59MtqA3R2u+5wCQMbN3NnTu5/Ps9QJIVajXid79CN4+ELsA2jp/s7b1OmJWHACkhOjdh1saekTsAuhY9Ga2rRUHTnsBJI/o3YUT3h4QuwC6NvvJms79fF4KXxHRCyANRO82grdLxC6Avrx0a1FB8C2x4gAgDUSvpHbB61hp2InYBRCL2U/W9NLNb/FAG4BUEL2c8HaK2AUQOx5oA5CWkkcvwdsBYhdAYmZXVhU8eFahFsVpL4AklTh6Xctfqa0Pu4atpzhLJhG7AFKzPD2u0H0s6Zu+RwFQYIEWdObmglx5/pDd+oT3C96yZk1bJHYBpGZ2ZZXdXgCJC/W6Pp75ieyQg8+CYaWhBTOr6+3RS77nAFBC52/WdtzkQPgCSMJFfTz9z2WJ3tbBe6y8J7xmVtfl0XnfcwAosegmB9kF8VAbgES4ubJEb+vgbZQzeIldAJny0kqdt7QBSE45opeVhh2IXQCZFL2ljTUHAIkofvQSvA+Zc8vELoBMY80BQGLcnJanf6F/+dsR35MkgeCVJNNd/UEXfI8BAB15aaX+6DYHro8EEBNzEzo6VMjobR28YbOa3hgeme7afTelxZEN36MAQFfO36wpqDzLfi+A2DiNFzF6y33CS+wCyLud+72EL4A4FDB6yxu8xC6AItkVvuFtEb4A+lGw6G0dvM4V91oy0z1iF0AhzX6ypnO3phSGU4QvgL44jevY0K/005ncv+78kOAt6D28pnvWJHYBFNz5W3cIXwAxqGpTv8h79JZrpSGK3XdG1nyPAgCpIHwB9C/30Vue4CV2AZTZrvDl4TYAXct19JYjeIldANhy/tYdbnUA0KPcRm/r4DVV0xsjQcQuAOy37zozWxfxC6C9XEZvsU94iV0AONx2+Fae3fHKYsIXwGFyF72u5a/8+Pd159zLKc4SL2IXAHpzfXpOZv8gF0zosJ8TAMpuTYOa0vdv3vM9SDvFPOEldgGgdy+t1HXu1pQC2/naYk59AeyVm5PelsHrnDuR5iCxIXYBIB6zK6vbe76sOwA4WC6it+W/qnKvfXZb0kR6o8SA2AWAZH34/IRc5WU5i1beWHkAIElrsvCszt2663uQgxRppWHdzJ0ldgEgQTuvNePUF8AjVbngF/ro+dO+BzlIUU541y10U3prZNX3IABQOpz6AnhkQxZOZe2ktwgnvMQuAPi0fer74KuSXdjxCmNOfoHyGc7iSe85GTEUAAAFRElEQVRhJ7x3JY2nOEsviF0AyKLlF6pS80WF7keSquLUFyibTJ30tg7eH392Ty7Tb1sjdgEgDx6tPDwn4hcokw0FdkmzK3Xfg+Q1eM2a4Vm9ffKG70EAAF0gfoHyCWzed/TmMXjNXHhBb5ys+x4EANAH4hcoD8/Rm7fgJXYBoIiIX6D4PEZvnoKX2AWAMvjw+QkpeFGBXpS2fw4RwEAReIrew25pyNR1MubCeWIXAEpmeXpc0nNq2otywcTDv0r8AnkWaEGzN2tpfstcBK/JFvTmaM33HAAAj5ZfqCpsTkju+5JNSG5YxC+QTylHb+aDl9gFABwoWn1w9pyci+6NJ4CBvEgxejMdvMQuAKAju05/NS52f4F8SCl6Mxu8xC4AoGfs/gL5kUL0ZjJ4iV0AQKy21x/CZwhgIIMSjt6D/2F/db3qBuxeUt/0MMQuACBRyxPDagyME8BAxiQYvZkKXmIXAJC6RwE8IRd+d+sBODf88FeJYCBNCUVvZoKX2AUAZMaHz09owD2j0D0nHoID0pVA9GYieIldAECmLb9QVXNzXFZ5bs8ahEQEA/ELtKAzNxfkFMszZd6Dl9gFAOTSzlNgsyp3AQOxW9TZm6/EEb1eg9eatqi3Ry8l/X0AAEjczl3gQN8WqxBADKyusysX+o3eg/8BrK2Pu4bd7eeD2zGzui6Pzif5PQAA8GpvBO8+CZYIYaAD/Ufvwf+gvbY+4WS3e56rDWIXAFBaUQQPuGfUDMal5il2goF2+ove1IOX2AUA4ADL0+NqhlVZZZzTYOAgvUdvqsFL7AIA0IXoNNjZ8PYNEXLDhDBKy7SqL/84pR/+cr2b35Za8Jrpti5/dSrOzwQAoJR2h3CrE2GJGEYR9RC96QSv6a7dd1NaHNmI7TMBAMB+y9PjatiwBtwzarjq1r3Bu94eJxHCyLsuozf54CV2AQDwb3liWBqsbu8JSycevkSjqkfXp0UIYmRfF9E7kPAgxC4AAFkwe2dD0urD/9zY9+t7T4YDndpak1B1z+mwRBAjC5zGdeyxn0hq+3xYcie8xC4AAMWw83S4Epx6FMTh8AHrEhJBjDSF4aTO37pz2JccfMIbNqsKgt6/sekesQsAQEHsPh0+WHRCbK4q56qKVibkhlucEkuEMeLg3BlJdw77kvhXGkz3rEnsAgBQKrMrrWM4sjxRVWOgKmfD+06KCWP0zFXbfcXBwXuksqpGDy+yiGL3nZG17n8zAAAotNk7a5LWDv2a5YlhScN7wnhEgX1DZlVJavGgXYQ4LpvATrT7kpb/p3CvfbYu6aA/ZR2M2AUAAGnaGceSdq1TBHZidyDbcIvTY4lIzjez93Ru5eJhX9JypcFk7zm51zv7RsQuAABI2dZu8YbanRrvtDxRlQaH1bBhORtWGAw/jGQpsG9IbnhrxUKdhHKEYPbJbP+tI3sc+jfIvfbZrySdPvybELsAAKDg9p4mR7E8qBNquBFFp8r7gllS6/WLvQjnboVa1vmbZ9t92aEPrdmAm1IzfN2Z+5H2/00wM91R010gdgEAQKH1cpq8VxTNkrbDWdpaxZC0fdIsPTxtlnYFtLQjojs6eW6lKGF9TwPBK518YWf/g19dr2ognJO57yqwDTX0G1XCf9ObT9zpZ0oAAADEYHmiuv3fd8a09CioJe04kY6c2PXQV7T3vNOjk+roi/qJ7W4c1KnRrQo3FDy48PAPIj19EAAAANCdndG97eG+9EGitZBWdp54R8zWNLh5o9PQBQAAAAAAAAAAAAAAAAAAAAAAAAAAAAAAAAAAAICH/h97vY0kmoso5QAAAABJRU5ErkJggg==;fontColor=#FFFFFF;labelBorderColor=#121212;" parent="1" vertex="1">
          <mxGeometry x="289.5" y="360.64" width="55" height="55" as="geometry" />
        </mxCell>
        <mxCell id="QPryyxgIFDQZirliz8h7-20" value="Amazon S3" style="outlineConnect=0;fontColor=#FFFFFF;gradientColor=#60A337;gradientDirection=north;fillColor=#277116;strokeColor=#ffffff;dashed=0;verticalLabelPosition=bottom;verticalAlign=top;align=center;html=1;fontSize=12;fontStyle=0;aspect=fixed;shape=mxgraph.aws4.resourceIcon;resIcon=mxgraph.aws4.s3;labelBackgroundColor=#000000;labelBorderColor=#121212;" parent="1" vertex="1">
          <mxGeometry x="599.0000000000002" y="394" width="78" height="78" as="geometry" />
        </mxCell>
        <mxCell id="QPryyxgIFDQZirliz8h7-36" style="edgeStyle=orthogonalEdgeStyle;rounded=0;orthogonalLoop=1;jettySize=auto;html=1;startArrow=open;startFill=0;endArrow=open;endFill=0;strokeWidth=2;strokeColor=#808080;entryX=0.5;entryY=1;entryDx=0;entryDy=0;exitX=0.499;exitY=0.016;exitDx=0;exitDy=0;exitPerimeter=0;fontColor=#FFFFFF;labelBackgroundColor=#000000;labelBorderColor=#121212;" parent="1" source="QPryyxgIFDQZirliz8h7-13" target="QPryyxgIFDQZirliz8h7-11" edge="1">
          <mxGeometry relative="1" as="geometry">
            <mxPoint x="320" y="350" as="sourcePoint" />
            <mxPoint x="411" y="300.46" as="targetPoint" />
            <Array as="points" />
          </mxGeometry>
        </mxCell>
        <mxCell id="QPryyxgIFDQZirliz8h7-40" value="Data Cleaning &amp;amp; Transformation" style="edgeLabel;html=1;align=center;verticalAlign=middle;resizable=0;points=[];fontColor=#FFFFFF;labelBackgroundColor=#000000;labelBorderColor=#121212;" parent="QPryyxgIFDQZirliz8h7-36" vertex="1" connectable="0">
          <mxGeometry x="0.1991" y="2" relative="1" as="geometry">
            <mxPoint x="2" y="18" as="offset" />
          </mxGeometry>
        </mxCell>
        <mxCell id="gEaBa9LvoSOmhP2szkFJ-1" value="" style="edgeStyle=orthogonalEdgeStyle;rounded=0;orthogonalLoop=1;jettySize=auto;html=1;strokeColor=#808080;fontColor=#FFFFFF;labelBackgroundColor=#000000;labelBorderColor=#121212;" parent="1" source="QPryyxgIFDQZirliz8h7-11" target="QPryyxgIFDQZirliz8h7-13" edge="1">
          <mxGeometry relative="1" as="geometry" />
        </mxCell>
        <mxCell id="QPryyxgIFDQZirliz8h7-11" value="Python&#xa;" style="shape=image;verticalLabelPosition=bottom;labelBackgroundColor=#000000;verticalAlign=top;aspect=fixed;imageAspect=0;image=data:image/png,iVBORw0KGgoAAAANSUhEUgAAAyAAAANtCAYAAABoth/aAAAABGdBTUEAALGPC/xhBQAAACBjSFJNAAB6JgAAgIQAAPoAAACA6AAAdTAAAOpgAAA6mAAAF3CculE8AAAABmJLR0QA/wD/AP+gvaeTAACAAElEQVR42uydeZxlRXm/v3W6e2YYYNhlcUMUBUZAREUEDQiCrK4zCi7RGNkUI+6JmrRR2ZeoMW7RuEZ/kLihomwzwMwgClHRQRBlkX0XZmCW7nve3x8DOEt337NUnVN17vN8PsY49/a995y6p+p9btW3jhMAADTOPqPzZkzTyllDQ70Ne8NDG7vcZsk0K3e2oZNmOtkmJpeZ3EZSPmxyGzqzEUkbyGm6M5tpcjPk3HoyG5I0a403cJoh03qSSbbqn0zaUNLwxJ/IlkpubPUnr/lyetiklSaZk/4iSbm03EnLHn3yg84pz3sac7Kl5rKHneXLzGUPOdlS59yy3LTEmVuSZb1l48qWWt57MBvOlk0fH1py3ujBD/GtAAAYDBynAACgOvuffMFGQ9bbwsxtlinfzMxtbnKbSbaZSZs5aQtz2iyTNjLZRjK30SpZsJEir29r/D9W8tPZZD7R790m/AOr8DcTPd8mfomepAce+4+TPWDKHnCy+016wDl7ILdV/20uuz/L83tWrph2z2UnHXwP30IAAAQEACBpDhs9d+b4zKGtx8eHt8pcvpU5t40zbSnZE03uCU56okxbStpc0vBElbf1qdWLVOvNysdqz7S+euJbPopJ0er/+td/HpfTPTLdI9mdTu5uc3aP5bpLmd3l8uwey3TXiHT7XvrVnaOjoznfcAAABAQAoDHmjJ497ZHpmz6pJ3uKc3qKZNua6cmSnmLSkyV7otZezlRSJKyYUXRHPgq+kZX+m77yUc5mTOOS7pB0i6TbzLnbzOzPTrrdWe/WoaFptzxw++13XPXFo8e4UgAAEBAAgIJ1tLmDTp3/RMvHn2GyZyjTM5zpqZKeImlbSVtJyiauhQtV0cHlY82nW5VzEJ18lJ/98C4fhdrbpNxJd0nuZie70eRukOxGU3aDy/Ibt1g8dss558ztcaEBACAgADBgknHwGRc/Je/1niHLniHZMyT39FX/rWdIj4avaxaj/WtcQz6ikI8+L+hXNscku1lyN8rphjzXjS7TDXlmf1pv6QbXnX/6gQ9zgQIAICAAkDAvO+X8bbIs22nI8tlmbidJsyXtKmkDH7+Gd0o+qobOrcxZDJ37sH5u1aZ8FGnvB0y6xpktNuducJZf0xtxixfotzeJ/AkAAAICAPFw2MkXPGVc2a7O2bNtlWTsuOo/tp63YrRqQdq4fBT/m27JxxTv3Jp8eGvvpZKuk3SdM/1eTtdquPfr+aNz/iQ5owcAAAQEACAQu3/hypHNH3hopyzr7WrmdnVOz5HpOZI2DVqMeitIuyAfUwtIJ+RjwvaOcaZLS+Tsapn7jZl+mWe9yxd+Ys4fkBIAQEAAACpy6Knnb9+z7AVOeoE5PV/SbpJm9K/V4pcPXwVp93a8ilE+yv9Ni7J5n5Mul+xy5TbPTd/il/NH9x2nNwEABAQAYC0OOO1n62f5yAsz2Ystsxc6cy+QtEnHQsjIR1n9SEE+qrZ3MzNdD0m6RC6/KOtlP5t/0muvpbcBAAQEAAaSg068dIuhkbG9c9OLJe2tVbMbw33K0a6HkCsWpOx4lZx8tCebf5S5H9qQnTs8vPkCZkcAAAEBgM5ywGk/W3/IDb/EmdtfZvtL2nnqfoQQcrrysda/Dt52u7HKx9rcb859T859Z+vrevO4RwkAICAAkDZm7rDTLt6tl+lgmfaXtKekaYSQfcqH94I0aflANqvLpkl3SfqfIbNvXXLS3MvpwAAAAQGAJJhz5qL1Humt2Mtkh0l6taQnEUJGPqJub+Rj3XfLdZ3J/isfH/mvRae/+m56NgBAQAAgKg456bJNbGj8Fc7Za03aT4/tUjV5dVeuHCWE3JJ8VBEQttvtmGyulNO5meyzl5z4unn0dgCAgABAa7zyrHkbj4/Z4cpsjpk7QNI0Qsgl5aNkQcp2u2m0d9LyMckfPPoRrlOmz81cufw/zz/9zQ/TCwIAAgIAwdn9C1eObLX0oYOUu7dIdoikaX3Kwsjko88LdlY+lMaOV8x0pSKb9ztnnx1a0fv0/DOOvJeeEQAQEADwzmFnXjw7N3uTeu4tctqyYFnYinxULkjJAbQrH8hmKvKx+r88LOnLWZaffuknj7iFnhIAEBAAqMU+o/NmrL+BXiezd8rpeYSQkY/YZLOL8rGmdyQjmyvl7MvWs08sPPWI2+k9AQABAYBSHH7K+dvk2chRJh0npy0IIcciH1UKUrbbRTaDy8fqrJTsq2NZ/s9XnHjkXfSmAICAAMCUHHTGJbs5yz/opNdKGgpUoCQgH1UK0gEJIXdMNjslH4+2dyQzXQ/JdFpvpTvj8rPmLqN3BQAEBADW4LDT5+1t0gdNOmTNa5oQchX5mPQV2G6Xma7YZDP8TNdtzvRPC0553TckZwIAQEAABptDT5u3jzn3Scle5LUYDVaQEkKOUj4Kn7bu3dslTfmYur1DzHQ5aZGUvWvByXOvoucFAAQEYAA55LR5z5bTP0ua46cYrV+gIB8TPJ3tdqOWj0lfodyBDtJMV26m/+zNHH//FaNvfIieGAAQEIAB4ODTL3qqlJ3ipLmTX7uEkIt/DELIyGa99h7EmS4nd6tc/q4FJx/xPXplAEBAADrKPqPzZszcQO9zzv2jzGYWqrgIIacnH3GFkDskm4FnugZXNv83y7JjLztp7j300gCAgAB0iEPPuPhgM/dpSU8PWqAQQvZYjJYrK1eXj9LvhnykKZvdmem6KzM75rJTj/w+vTUAICAAiXPISZdt4kbGPmVyb4qlQCGEHIt8TN3ezHRFLh+dlE37+vh6+fFkQwAAAQFIlIPPnPfyLNeXTHpSLPJBCDkN+eh7lMnOdJX/G2a6Gm5vp5tt3I5YdPqRl9OLAwACApAIc85ctN7yfOW/mewoQsgtyUfJgpTtdtOQzS7OdEUqmyud6UMLT3v9v3HfEABAQAAi5+AzLntmpvGzZdqVEHIa8rHm09nxKlb5GEjZbH+m64cr3NCbrzpl7oP07gCAgABEyKFnXPI6Kf+STBuWLn2RjwIvSQiZma4Bko/Cpy34TNd1NqRXXn7SkdfSywPA2mScAoCWMHOHnjFvVMq/XU4+KpUJgYvRvrV2uWK06vNTCSFXeb5VfLWGZbNr8lH7uCOUD1/H3efafpbr6Rd7vu/br6KzB4C1YQYEoAUO+vRPpg+NzfyKZEcSQvZUkBJCTrO9memKvL1rz3TlcvrHRacceSo9PwAgIAAtsf/JF2w0Y2TkXMleTAg5VEFKCJl7uyCboeSjUnub+9wTbxo6/pxz5vYYBQAAAQFokENOumwTN633U0kvIITcjHz4Kki7lwNIdKark7I5KDNddr5zy1+78NS3LWE0AEBAAKABXnXawieMDY1dINMuhJCRj7bbu4szXZO+AjNdMcnmL2x8+KDLz5p7P6MCwOBCCB2gCfn49ws3W5mNzZNpF0LIoYrREg8TQvZy3MnMdFU50lRkMy35kKQXaHh8/vPff/ZWjAwACAgABGLOmYvWW7li5AdO2qk7SzPkr0AhhJykbFrVap+ZroZlMyr5eKy9dx7W2KIXvO/rT2OEAEBAAMAz+4zOG16usXOcbK9qBUqN6iKVpRlVnt9KCFn+jyN62WSmy1PztSQfVvJIGpXNpw25oXkveu+3nspIAYCAAIBHNtgg+4yZHcLSjDIFSozyMaghZPlrb2a6ara3Ard3K5mup1qmi/b6wLe3YbQAQEAAwAOHnHnJ38rZMfGGkGOUj0C/VEcfQlb142amy3N7K8x3MGrZbHWm6+mmfB6ZEIDBgl2wAAJw6Fnz91SueZKms92uR/kgByC22w0pHw3NdE3yB53YbnfCj1yora+ePr7yb+b/21v/wggC0H2YAQHwzIFnLtpUprObkY+yT2hCPsp9xu7IhwghN9je6clHlXZL/8aSJdp6lxXD07930PE/mc4oAoCAAEBJRvKVn5XpSSzNCFWMlni40RByIjNdXovRyGSzykfrzHa7SjPTteZf7POX6fd/XaOj1CYACAgAFOXQ0y95g5xeTwg5pHwQQubGkp5ks1MzXZ25seTcPZc+42RGE4BuQwYEwBMHnzpvq2zI/V6yjbkTcpECJdYQ8iDueGXIZjSyGWOmq3nZNOfe+vPT3vBVRhaAbsIMCICvi2lIpzcuHwVfP/2lGR2Tj3JnvQHZlN/27qp8qLszXZU/SKiMj+Wff+H7vr4HIwtAN2EGBMADh5w5/8XOdInMXKPyUaVA6UgI2aoUNa3KR832ZqYrTdlkpqtOe9/per3nXX7W397GKAPQLZgBAajJPqPzhp3pc0nIR/nKoE9xUu7lmgshd3C73Sqtx0xXi+1d+qw3IJvy295h5UOStrKhof+3z+i8YUYaAAQEAFZj/Q2zN8tsdthitEpdQAi52HsRQg4nH6G32y359Ehksx35CL3dbn1DnuQl91q+9LZRRhqAbsESLIAazBldPG3ZhndfK9PTio/JLM3wXKAQQkY2k5EPH+1tHZTNPh8lN9nLrzjjTRcw6gB0A2ZAAGrwyAb3HF1JPsqVCYGL0b61dvkCpavyQQg5KfmofdwpzHRVfH5iM12Zk77+ovd9/QmMOgAICMBAs/sXrhxxsvdXKm1YmtGyfKjah7QKB8VMl7+vEDNdDcx0NS8fBeextsrN/ScjDwACAjDQbLNk6eslPZkQsocCpXH5IITspb29yEe8M11hZbMd+aj8QeKY6Tpsz/d980hGHwAEBGBgMdkJhJDDFyg+aitCyOHb24chxzbTlW6my7NsRjTTlZt9ds8TvvZERiCAtGFrO4AKHHravH1M2i0m+Wh5u92bZLrOOV2by/3RlN/jnC11Zg/nLltp5jYYkjaS2axc2tY5PUvSs2TaQdK0gmeiUhXMdrsRyWbj8jGoM12e27vK8wPJppM2Npd9RtKrGYkAEBCAgcKkt4UpRqvUBa0szbjDST+Vs4ucm3bRTz6w751VzuNho+fOXD59+t6Z5ftJeplWkzpCyGGLxSRmuqoeKTNdgdu7HflYzUJe9YL3feOQX5z+ph8zGgGkCdvwApRk/5Mv2Gj6yMjtMpvpXz6iDiGvcOYuMNnXl68Y+d780X3HfZ/bA0782Q6Z5a/vOfcWJz21rnwQQma73bbkg+12A8nHo+TSn2ZuOP7s+aNvXc6oBJAezIAAlGTG8PAR1lc+KpUJgYvRvrX2ZJ9pqUxfsTw/+acffvkdIc/t+f904LWSRkdHR/914fQ9XuPkPi7Ts+rJh78W8iub7chH5Q8S+Y5XtY6bma7GZNMHJslJT1/20PD7JX2cUQkgPZgBASjJIWfMu1SmFwcrUOJZmrHCSWfk0/Izfvael9/fxrmec/bZQ3+5fsMjnNyJkp4cZw4g1hCyx4KUG0tG3t4DO9O1LNf4s3555t/dwsgEgIAAdJbD/+3CLXvjQ7dJGgoiH4XH+bBLM0x2aZZnx573T/tfE8N5P2z03JkrRoY/IOkf9XhoPQb56Ixslno5i1I+BlU2Y723S0Oy6ey/rjjjb/+O0QkAAQHoLIeePu8Ykz7XpnwE/nV0mVx+/E8/cMBX5JzFdv4P/ORPnyvZt016ZvLyUVAkkt3xqoEcQCvyMckfMNPVgnysoieX7XLFGW+8RgCQDNwHBKBcyfLqDsvHHzTkXvjTDx745RjlQ5J+9uGX/182Zs93Tud0Xz7USfkoaBORyUf5w2G73ZCyuQZDsvxERieAtGAGBKAgB5z2s/VH3PT7JZtWvxhtokApvjTDZOdNdzNf98MP7r0kmfb45Hnvl3TKY/0YO16lIR/seBWpfCQ+05WZ7XH5WX/7C0YqgDRgBgSgINOykb9JRz761tqr/8t37t1k01ekJB+SdP6HDzrNpDdLGo8/hBybfJT7jN2RD0W641X35EMe2rpMe5vLPsQoBYCAAHQOM+3v6ZUakI9iBYpJX3rh8kVvuOro542l2CYXfPigb8rZHElj8W63295MV6W/6fR2u4nMdHmVj8hks8pHKyCbJnvFHu/95k6MVAAICEC3BETZft4LlBblQ86ds+fyhceMjo7mKbfL+f908Pdl7m3lS7AaIeRo5KNvrd2SfAzqdrsK3N6Ds92uSsjH4/WM5R9kpAJIAzIgAAV45VnzNh7rufsky7zJR5vb7ZouWb5i+OXzR/ftzF2EX/bJn3xQppPDyEfN9ma7XY/yUU3k2W53IGRzTMPZdlec+sZbGbUA4oYZEIAio1rP9mhaPsLdCdndNKQVr+qSfEjSBR8++BRJX4tOPgq+fpwhZNX6Dia/3W408iG/8qFOyockjag3/nZGLAAEBKArl8qLqhejVeqCYEszxnO5N/z4Hw99oIut5KYPvUPS72u4hH/5IIRc63yw3W749k5ku91if527o3Y/6gsjjFkACAhAB7A9qstHRCFk5/75/A/tt6irrXT++w98OMuzIyQtn6piI4QcXj6s4nG0Kx+hZ7rETFf49t5qaIP1XsmYBYCAACSPk9utA0sz/m/Dp91/atfb6mf//PLfSDqpefmo0m6EkIu9V1e22w2U6aolHx2c6TI7mlELAAEBSJqDT523lcmeUH5gjWpphil37zxn7tzeILTZ8CydIun66hbHdrtVP4b3X8PZbreEbDYvH5HOdO27x/HffBKjFwACApDwVeJ2Tj+E7L7203/a//JBabLz3nXwCie9d4oCpXLBRAh58n+IYrtddXemq13ZDDzTVVk2J/zLLB/OX8fgBYCAACRM/uxa8tF+CHksG3ajg9Zq53/k4HMl+zkh5PIiEYd8qNqFYxUame1263+F2pDNKWe68iMZuwAQEIBkcabtU16aYdK3f/K+/W4eyLaTO7FcLUsIucpRpLndbqWz3oBsym97e5GPSGVz6mv/ubu/9792YAQDQEAAUi1it6007McRQjbr5acNatud/+GDfmTSbxuRD0LItQrt2Ha8akc+Qs901TfklGRzyLJXMIIBICAASWLKty1YJrQiH33eY975Hz7wd4Nrj84k97lY5IMQchry0d2ZrnqZjORmuswOYQQDQEAAUq1in9K+fEw1xk7+Hs7sW4PeekO97P9JWuGvGK3SboSQax9DteZrTTZ9HHcSM11Vj7QR2XQv2v29/705YxgAAgKQFAedeOkWktYvPGrHtTRj2ZjL/nfQ2/Bnoy+/X6af+pMPQsg+5SNcCLk9+Qh/b5fm5cNHe7cw0zWU9VYeyEgGgIAAJIUb6j214rBcvNwItjTDzr/wQy97kFaULHPn1G6nxmTTo3zIl3zEu91u6ecz09WKfNQ+7oozXZm0Pz0gAAICkNYFMqRtCw/LkYWQTW4eLbiKYZddXL+iIYQcRj5U7UNWubdLVDNdnmWTma4J29ukF9MDAiAgAElh+aoAepoh5Hw+LbiKn3345XdIuq56QUoIOZx8tLvdbmdks8rzO7DdbgHZfPrz3/OVJ9MLAiAgAMngnHtyoksz7t9z+c9/Swuu1pbSfC/yQQjZT2nfmR2vjHu7RNPeEz/ZmWMWBAABAUgHM2025UAd69IMc4tHR0dzWnANfksIubp8JBpCDt7eyc501bq3S1ozXWbuRXR/AAgIQDo4bdK8fHgoUDK7jsZbkzzXH8oVo1WkkRBy7WOo5hKtyEdXZ7q83kk+AtnMpOfQAwIgIADJYNLGycnHqudfT+utdU6G9AdCyLVr3MryEfd2u+3JJjNdYeXj0X/eVaOj1DsACAhAMmxctZJsc2lGZnYzTbcmLxn/5S2S8tKtRwjZo3x4qLSDyEd793ap9DeRy2at4w4w02XSBnvc/9Sn0wsCICAASbBqBiS9pRlmbgmttyaPZmKW9j+ThJDDyUdDIeRyZ70B2ZS/9vYmHxHe2yXgTFcvy3alFwRAQACSwMk2qSIfbS/NMOUIyMQsLSUfhJATko8qQsBMVzjZDNZopeXj0b58e7o/AAQEIHrmjJ49TdJ6bchH5YH68Zug62FacEIe8ikfhJBjkg+2263yHRycmS5tR/cHgIAARM+KjTfdJKx8TPFKNZdmDA1nXNsTM1yjbgwim4SQS7uEf/nw/DtASrKZnnxUaTeTnD2N7g8AAQGInpUrso3Dyke4pRm98XxDWnBCNiCEXOHhRkPIoXe88nRvF6/XdmSyWeWjxT7TZSKEDoCAAMTP8LBmFB0Qo1uaMeQ2oAUnPE0bNi8ffWvtluRjsELI1f2oiZmuxO/tksRMl3sSW/ECICAA0ZOPu5FUQ8gut41pwTV5NNMzs3n5IITs7ThqywczXUHaO4mZLht+wT1P24SeEAABAYj74sh6I8GKpoDyIZnMOQKXa/Gg1ttOkqvTdoSQi8oH2+36ls1OzXSpnZmunsu3oCcEQEAAosZsVWDZX4HS3LpwJ3sWLbgmucue5bWSH4gQcsmns91usPbu1EyXVWhkHzNdQ/nm9IQACAhA5AYylYBEvjTDOQRk3d7umdXlY1BDyKF3vIpxu10x0xWjbNaVD0lDLkNAABAQgLjJnRvxIx9TDKChlmaYdppz5qL1aMU1ztPu1U4zIeRi79WV7XbL/g0zXW3JZhn5WNUmxuYcAAgIQOQXx4QCkszSjBlLVjy4B634+Ml2MtuHELJf+UgrhFyxvb1e21Xch5muSu09AU7ZdDpDAAQEIO6aVWsvwUorhGw2tC+tuIr9P/6TZ0u2ZVj56Ftr1xIWQshKYrvddmUz8ExXZdlsWD4m/TtDQAAQEIDIBSTPR+qNw+0uzTBnB9CKj52r/GXh5YMQcuHisq0QcgPy0e69XRS4vdOe6XKu6L2dAAABAWjr4shWnwFJb2mGk/bY/6QL2Y531Yk/olbrEUKe5OlphZD9yab8tneV53Nvl/KXlWkanSEAAgIQec3qXLUCJZoQshtS/oZBb8cDRs/dQc49r0xBGp98EEIufUCJznRZpXbr0L1dAs50GTUPAAICkIiGJL4u3N4kMzfILdhzenOtgtRrMVrFfQghF/vEXdlut95sCTNdPvtmAEBAAFrRDz9jWGshZNP2Lz/pp4cNavsdcNrP1pfT2wkh1y9Iax13CtvtepfNiGa6qh5pCjNdqnhtAwACAhAjeekxL3QIuZoxmdyHB7YNl688TqbNi5w4QshFCtIOb7frfVll8/Lho72Tm+mqf5kAAAICEClpL814wQEn/eylg9Zke5559nqW6wT/xWjfWrtWCRTvdrtBLpyaxWiVt2OmK0zbqSMzXQCAgAAgH14KFGd2+pyzzx4apGZbf8l6H5S0tX/5iHOmK7x8pB9Cbl02melqXzYBAAEB6KqdRLg0Y7e/XD/rmEFplZd+4sdPNen9Nev4eGWzc/JR82JJZcerKs9npstfewMAAgKQsF/UGKnbW5rhnD6+3ycv3HIQms318s9KmhmkaGpbPgYwhGwe2o57u8TS3mnNdAEAAgKQhrPEuzRjkyE3/u3R0dFOX/f7/esPj5N0iN8ChRBytPJRfxKhW7LJTBfyAYCAAHRWM/wWKFWeX21pxr6Xj7zw/V1tlQNGf/RsmTu9Cfmo3H6R5wBqHTfb7bYvm1WOdKBnugAAAQEYRPlo+E7IJn38ZSf+5G+61ioHjv50056z/5G0XhMFSrszXaGX4nQ4hMxMlwf5iFU2kQ8ABAQA+VCkIeQRZ+6HL/vkj5/TlVbZ88yz1xt3Yz+Q9Cy/8kEIOUylF2MOgJmueGTT071dAAABAUA+QhQolYfcWU7Zj/Y/+YKnpN4qc84+e2jmkvW+JWnvqOWDEHKhz8R2u02296DOdAEAAgLQSfko93ItLc14YtYbv2S/E3/8zGTlY/TsafddM/O/Jb2qRl3XLdlMJYRsFZ7Idrue2ztYo9WQD0LnAAgIAKjjSzO2HTJ36f4n/WS31FrlgNN+tv79br0fOmdzgxRNqcpmlY/GdruBZbPel4aZLuQDAAEBgOoFSpRLM9yWWe7mHfiJn74ilXP/0o//5Om9R1ZeJulAvwVKFflo794udQpSQshNyQczXaWfGEw+cgYuAAQEIAnN8FugVHl+M0szNsqdfe9lJ573qTmjZ0+LuUX2/fiPDs/y3i8l7daEfFRuP0LIDctH2RAyM13h5CP0TJe/ZZUAgIAAREbPr3zEvzTDKde7/jKywaX7ffK8XWJrjb1P+tEm+33sR5/Pcvu+SZv4lY++tXZL8kEIOZ7tdtOc6VIt+VAa93ZBPgAQEIAuMxBLM0x7ZGZXvewTP/7U4af8YMMYzvtLP/ajOdPH7PeSHS3J+ZcPQsjejqO2fLDdbpD2ZqYLACJimFMAUFc+yo1/iSzNGJbcu5aPjcx92Sd+fJqbPvyF899/4MMNn3C33yfOPUS5+6icvaDoERFCrtTexf6a7XYLHFNHZrrU3ZkuAEBAADogH90NIZu0leTOsBW9D+3/yZ98KrfeVy/+yGG3hTzXe5559nrrL13/VfaJH71X5p77+HwHIeRatRUh5PDt3amZLqvQyMnPdAEAAgKQhpoELkZLPBw2hLyFM31iSEMfe9knfnKR8vwb+fDK8y76p1ff5+MsHvTpn0xf8aD2csqP1FLNMeWz1vhYhJBrtR8h5KZks95RpDnTVemsNyCbAICAAKSsGCzNWJ0hmR0g5w5wven5/h//8W9k7iJzusKZXTeysfvDee86eEWfE+pe/rGfPrU3NP5Mye1m5l668i/53k6aWf00E0Iu9l6EkMPJx6DOdJX9g/ZmunJ24QVAQAA6LR9dXprxVzJJu8nZbk6SnDT2oPX2//iPb5N0j+SWmNkSp3yl5DZa9R/bQB//8bbjmdaTuUkKN0LIQdqbEHIJ2WxePpjp8tWVem5vAEBAABqlp0n2W2JpxhR/OSTpKav+k8s9ZiZW9JgIIYdpb0LI8chm4JmuyrLZsHxYiONAPgBSgW14AXwO7CzNqPE5uxBCrnI+CCE3LR/t3ttFgdu7wzNd3pdVAgACAtAxN2FphgYwhFzvF1tCyD5lU37b24t8DOq9XdqRDwBAQAC6Zxhtygch5DTlgxCymOlKWTZjnOmqIpsAgIAAIB/lHiaETAg5EflgpqtL8lHprEcomwCAgACkLh/yJR/xhpBLP58Qsj/5IITspwxOYaar6pGmMNOlENc28gGAgAAMqnwMQAh5sJZmEEKOST5aDSFHLJvJzXTV/00mvGwCAAICkKKbsDQjNvkIXaAQQq70asx0eWxAZrqQDwAEBAD5qFmg+Bg7CSEHKFC81FSEkJnp8tneMc50tSebLLsCQEAAkI8K8kEIuVId35J8MNPVWdms8nxmuhpq7yaybACAgAAMunywNMPLcRNCTkE2E53p6qRsDsBMFwAgIACDIx8lHiaETAi5K/KRQgi5lWWVzHS11t4AgIAAdMJIKlRVhJDDykflDxK5bNY67oGc6YpMNqt8NGa6kA8ABARgsF2DEHKpMiGwfEzxSq2GkCO8t8vAhpDT3PGq3rUdq2wiHwCAgABUlA9CyKWPmxCy5/aW/+OIXjaZ6YpHNj0tq/R6bQMAAgIwyPJBCFmEkFOWTaty1huQTQWTTWa6NFAzXQCAgAAk5CKEkCvJByHkhOSjStGW/r1dmOmKSTbDznQBAAIC0GH5KPEwIWQvx00IOQLZTFA+mOmKST6meCVyHwAICADy0W8MZGkGIeR67U0IuSn5YKar9BOTnekCAAQEICEFiUs+Ah1HbfkghOyzvWsdNyHk9mWzykfrzEyXkA8AQEAAmijZm5MPlmZ4KVC8yEeEM11ipqt1+agim52a6TIvXyK/M105gxoAAgLQEQVhaYYIIYeUTVVu73DywUxXkPZmpquEbMp/ewMAAgKQnp+wNKPo6xNCjqW9memKRzaZ6WpVNgEAAQHotHwM/NKMGOUj9ExXrLJZ9nMOSAiZma6G2tv8yibyAYCAAAyOfJR4mKUZAxpC7uC9XerX8fHKZuPy0aBsRiMffbuuWjaJfAAgIAAdlw+WZgxODoCZrjLtnaR8dHKmq+wfsN0uACAgAAMsHxU/JEszAhSjJR5mpouZrkTkg5kuAEBAABK2EULIvuSjb61dqfCrLx/xznSFlU0Fbu8BnOmqLJsNy4cF/A4iHwAICACUHTcJIRNC9i2bCtzezHTJ91eoSdlMZabL+71dkA8ABAQA+RBLM7zV8Y3LByHkmOSjb63twSY7dG+XKs9npgsAEBCAAZMPlmakKR+EkNWFma5qq4c6tKwyqpkuz7JZ9drmRugACAhAevJR4mGWZhBCTkQ+mOnqknzUvFhSkc0qz2dyBAABAeiCjRBC9lWgEEL21HytyaaP405ipqvqkXZGNhOd6QIABAQA+fBQu1YqUFiaUbWGZqYrrGwmM9NVor2Tk4/6cZlEZBMAEBAA5GPAQ8gxLs0ghDw4M13hZLPWcTPThXwAICAAyIfvQY4QclMFSozyQQi5dnt7K0YjXFYZfKarPdmMbaYLABAQgAjpVRirCSHHIx+EkDsrm1Wez0xXQ+2dxkwXACAgAEnA0oywxSIh5BRksysh5A7NdJU76w3IpoLJpq+ZLgBAQAAGSj4IIRNCjlY+BiaEXHZZZeQzXQO0rBL5AEBAAJAPQsiEkIO0nQZ0pisy2azy0ZjpCiyb9b403IcQAAEBGGD5IIRcu0AhhJykbFpVQe3sTFesshmjfBA6B0BAAAaAXpLyUVOzCCF7bm/5P47oZZOZrnhk09OySq/XdrmXi2mmCwAQEIAkYGlGAPkghFzoMxFCbrK9q0sXM13IBwACAgBlKsxuyQch5ITko0p1RQg5nGyqcnuHkw9mupAPAAQEYKDko/YQSAi5MfkghJyGfDDTFZN8TPFKKcx0AQACAtBF+SCEPDghZNUqRkUIucH29uHVzHSFb+9q5wP5AEiJYU4BwCR2nrs7zelCSZIrN6Q56dE9H6sPg43sePX4h52afO0n5VM/2+vR5hWL0YlbpYR8FDuOvE7Jk/vdGLSGfLxQ0gaTFqRei9FyL9fcTFcHl1XWr+PjlU3kAwABAegiP/vwy+dJmseZgK6z94f+39WSdu5GDoCZruJvVPZvEp/pclzrALHAEiwAAJBP+Wj33i5h5MPqSBfb7bYvmwCAgAAAQMry0bfWLm8KXuQj3u12Sz8/gUxX5Q/S2kwX90IHQEAAACBWH6n0hCRCyC1tt9tIpqth+ejiTBcAICAAADBg8hE0hJzKvV2ikQ/5lY+qz29INgEAAQEAAOSjwN91Zbvdsn+Q/na71W4/hHwAICAAADDQdsJ2u+Hlg+12kQ8ABAQAAAbFL2oUcolvt1v1uFPYbte7bEY00wUACAgAAHRXPjq93a51eLvdCu2dzEwXsx8ACAgAAHTUWToYQq6941WV57PdbmuyCQAICAAAxKcZfuUj4hBys7mPGLfb9Syb3uSD3AcAAgIAAMiHN/lgu93Sx53KjldVno98ACAgAACAfLQqHw2EkLu341Wi2+02JJsAgIAAAEDy8lHu5WIKIScnH/UnEbolm8gHAAICAADdlI/Kf5NMCJntdmOWD2vpmw0ACAgAALSlJR0MIce93W6V6pntdvs+NedaBkBAAAAgJs3wJx9Vn892u+v+K9vt+m5AAEBAAAAgWiXpYAi5le12yylfYPkI0N5e5CPCmS4AQEAAACBV+YgjhNzadrtW4YmpbLdbxX6SmOkCAAQEAAAikI9yhWWUIWS22w0sm/W+NHHMdAEAAgIAAJHIR+gcQIzb7SrSHa9ilI/QM11NyCYAICAAABCLmgQuRks83Oh2u6F3vKq23a55OO70ZroakE0AQEAAAKBBxSCEXPVoKspHldPcxHa7ac50CfkASIZhTkE3OfyUBRuODy/fWuNDs1zW29jMNpJls+Rslpmb8df2tw2LvmZe9dGqe6/nU7+I1y3d83qvaGUPKvdz1gv9lYV5j6Ivl4d4j3XeywKezdX+OuypWvNf8oqvkZd/V5NtRQh5gr+2Cr0A2+3W/wrVbe8W5MPuPuEZMvf3VB+TnSC3VObGHv0fS5TZUuXZfcp0v7L8Pi23e92Tz7qfE4WAQMTMOfvsoSV/2uLJyuzpLrPtJD3dmbaTtI2krSRtPa4VM9VzkuspN0lykrMCnfPkj7mmb0bmKjxcdcByDS/NcEXO4lpPDLY0w012aB7b25WoQAghF339dc5s31NNCDlMe7Pdbjyy2dLMR+6eKrkPUqFMwerjrD1ak5iknpNGnOzO9z4s6SZJN8npZsn+JLnfSuNXuy0/dRcnEAGBBjnwrEu3Hhrr7WqyXZyzZ0t69sM3a6dsKJ/ev29uecDiTsg1itEq7cbSjDDFqAghN9jeNevilmSz7Ofswna7Vc4H2+3ClKwvabak2Xrsh9NHS1W78333SHa15H4us4WaPrzIbXrKg5wyBAQ8MGf07GmPbLjZ88zcHpL2kGlPjY8/RU5yKQ5YVZ7PnZAbKlAG9U7IhJCLy2bz8tF+CDnGmS5Fut1uvWuP7Xah5PdnC0n7SbafnKSV47nd+d7fSXaxnPuJHlp5qdv+Mys4TwgIFGB0dDT75QYv2c3J7W3SXo+YHahcs3wUvOwPH0uBwtKMeGSTEHI8shlpCDnKmS7z8iVipgs6RiZpF8ntItO7teG0pXbney6Q6YeaPvI9ZkcQEFiL/U++YKMZI8MvV26H/1I6SKZNbMroHEszSoxAkclHlXbjTsjhZFOV2zucfLQ309XuskqFbW9mugq2dRX3YbtdiJINJPcqOb1KK8c/b3e+9wI5O0e9Wf/jthl9hNODgAwkB5z2sycMZ9PmOLNXSvoby22EAcv3gBWjfHAn5CpfGma6fLa3/La3F/mId6YrrGwqcHsP4EyXt9EBOsZ0SYfKdKiyhz5td77na1L2b26r02/k1CAgnWfVTMfQK2RujkkHyh6VDkLI7Q5YhJADywch5NJPJITsWTYVuL2Z6ZLvr1BqO15BAjz+3dhI0ruk/J1253t+JGWfcludfjHnBwHp2Pfd3KGnz/8bc3aU5F5lphkpDljtyUcDAxZLM0rIZvPyQQi5Uh0fr2w2Lh8NymY0fXnfrstD/9+VZZUwYPKxOpmkw2X54XbHCZfL6SRtedaPnOObhIAkzGGnz9s8l/5WZ1xylDk9c82N+FmaEc+ARQg5HtlkpqtMeycpH52c6Sr7B+nPdFmldmPHK4hGPCa6KPaU6Ye684Qr7fb8I26bT/2Mc4eAJMXhZ857Rm7u+Fz6e5nNLFO0dXnAIoQck2wSQi5r38x0tSibVZ7BTFf7sol8QMzyMfl35nly2U/t9hMu1FD+Xrflp67mPCIgUXPoGRfvZ3n2nl5uB626nScDVq06n6UZzHR5bW9CyP4G7Qblo9F7uzQsHxbwO9i2fFjd7yDyAYHEo+h3xtn+yt1Vdsc//KdWrvwn99TPPcB5DU/GKSjOYafP2/uQ0+fNM3MXytnBWnOtVfsDFkszWpSPwVua4cOQCSFHKptdDiFbd5dVJjPTVaK9kQ+o/AOKWZ/vzBqPD0vuGE2b/nu74x/ezLkNDzMgBcVD0r/m0r5hBiyWZlQYjpKRD5ZmNCkfgzrT5bm9qzw/Fdms8nw2EGlNNmsbOAymfPT9vkz6+JaS+5rd8a7XanzoWPfks27jXCMgjXPwmfOel0mnWa59CCG3KB8szUhTPpjpEiHklGWTma542hv5gKL9l9X7+8ef4w7TcP4Su/Ndx7itPv0dzjsC0ggHnTLvScMj7qNm+nuZZaUvDELIdWuedgYsQsjty2aVZzDT1b5sdk4+al4szHR5bm+AIrVJXflY5/GNZO7bdvu7D9bwyuPcE/5jKW2AgAThsC9cOdOWLv2IpBPMbAYh5CLHRAi50qsx0+Wx4iCE3Kp8RB9CjlE2jQ1EgrU3DJR4hJOP1V/7TRof3t1ufcer3JM++wfaww+E0B+TjzPmHZovXbpY0j9KVeSDEHIc8lGxc2NpRoBitMTDzHQRQu6KfNT/TaZbsol8QCj5KB80L/64rfNl3EnZ0JV2+7tfSZsgIF54xRmXPPnQM+Z/1+TOddK2LM3wPGA1Lh+EkL20d5XnE0Ku+HaEkMO0nQZ0pisy2azy0ZAPKNRvhZz1mFBONpTy/7Xb3/Vhs6l2QQUEpA+HnDF/Tk/2G0mvGuwBi6UZjcx0FXw+IeRY2puZrnjam+12i8tHmssqkQ9Y89tgfa7tOrMek3zHrNB3NpP0Cd3xzv8yO2qEtqrOQGZADj513lbZkPuCpMObHbBYmhHPgMXSDK/t3Tn5qHmxMNPlub3l/ziil01mumBQ5WOqh5qY9SjyGd3f6o4Z29g9H3iN2+LUJbRbeQZuBuTQ0y95Qzbkfr+OfLA0Iyn5qH3czHQ11t5ehyRCyIHbu17/kfRMV7mz3oBsKphsst0uxCkescvH2p/RXqaxZRfaLSdsSvuVZ2BmQOacuWi9ZbbyZMne5W3AYmlG3ZqnnQGLOyEnJZvMdCUum6nMdA3UBiJstwuxyUeb4lHrPV6gofGL7faj9nfbfPFe2rI4AzEDcshZl+y43FZeIcmDfNS8uFia0fKAxdKM1GSz1nETQm5fNqt8NO7tElg26x0F2+1Cd+TDS55kV2napXb3cVvRngjI4xx65vy3utyuMmnnNAYsQsjxFCjMdMXT3sx0FZePxJdVVi1GU5DNgZjpakI2oRviEW3QvMTjjz9nR63MLrBb37EZbVuMzi7B2md03vCGG+oTZvqgn2K0mQGriyHkgiNQZPJR85ccZro8t7fCfAejls3BmumyOsedygYiXq/tKu7TxEwXO15B3X4qlqB5yQvM6dmy7Dy7+7iXctf0/nRyBuRV/37hZhtsmP3U5D5YcfxpbcDycRHH9msZSzMilQ9CyIU+EyHkJtu7unQx09ViX97kTBckLh6pBc37PL720509X2PuB3b98dNp7wETkIPPvGTnlSuGr5Rsv34jOCHkNAas2r+WMdPVWHunJx9V6ndCyOFkU5XbO1xfzkxXkPZGPgZQPqaq6Ru7o7k/ubFJ3+ylmpl/nZsVDpCAHHLG/H2HzC5bdUdzX509A1bbA1at4450aYaP4yaE7EM+mOmq8qVhpstne8tve3vpy9luFxqUjzSC5qWuGUlzdcc7/pW2HwABOeyMi1/jpJ+YtJH3AYsQcpoDFiHk9uVj4EPIMcpHF0LIzHT5+o2G7XYhrHh0Kmg+wUeyqQaRD9vtx76R70GHBeSwM+a9z5SdI2lGkAGrSk9OCLnlAYuZrnCyqbDtTQi5hGw2Lx/th5DZbtdrezfel2MggyMfU9X0nsVgwi9bE0uupvx7J3NfsluPfSHfhw4KyCFnXPJBkztNmmqtHUszKl1byQ5YLM0odsSEkCudxYGRzcAzXZVls+G+fIA3EPFxqMjHIIpHx4Pm5T7jDDn3PbvpqK35bnRIQA45Y94nnOzkNAesGOWDEHLpJxJC9tzeqtze4eSjvZmudpdVKnB7d3imq8sbiFR5BvIxQPIxVU3fqaB5mc+4laYNf8tszhDfkdQFxMwdeua8f3NyH+7MgOW1GI11wIpRPrgTcpWjSHOmq9JZb0A25be9vchHvDNdYWWzHfmoVdQ12Zc3OdMF3ZKPbgbNy5yDfXXH5qN8TxIXkEPOuOTfZe4f2peP9gYsQsilm6812YxPPgY1hFz2Dwghh5NNBW5vZrrk+yvEjldQpbDvetC8zDGY/sluO3Z/vjOJCsihZ15yknM6zv8vLoSQoxmwCCGXkM3m5YMQcqU6Pl7ZbFw+mOny0t5Vns+OV+BdPqaqyQciaF78GEyZTF+1W9+xGd+dxATk0DPm/6PMPuR/wCKEHM+ARQg5HtkkhFymvZOUD2a61IWZrmo5eXa8gjriQdC88ONrvvYT5exLfIcSEpBDz7jkHZJODDNglR1YCSGHG7AqNBoh5ADFaImHCSEz05WIfDDThXyAD/mYqqYf2KD5xI/bhBf/q+zWo9+MgCTAYWfMO1SyTzFg+Ryw6h0FSzN8yqb8trcX+SCEzEyXz18L2G63Vfmwut9B5AOK9EUDHjRfux+yqT6j+7TdcswTEZCIOfjMec8zue9IGip6bbA0o6UBi6UZhJALt7cCt3eMM12eZZOZrsb78oHabrdEeyMfgyAeU1xcBM0L1hhrPLCRnPscAhIph512ydMycz+StH5nBiyvxWhkA1aVZ7A0o33ZbFw+BnWmy3N7V3l+KrJZ5fnMdLUmm7UNHCKXj6keImjed8nVpMdgh9ktR78aAYmMV541b2PL7CeStix6gRBCblE+WJrhpwxmaUZw2eyEfHQ2hMxMVzj5iHFZJcQtHgTN/Sy5mgKnf7f7jp+FgETC6KhlPcu+KWmHMgNWOPkghBzNgMXSjKRkk5muiGSzc/JR82Jhpstze0O35GOqmp6gef9Zj8KfcWstW/kvCEgkXLnh/H82s0OaHrDYH77JAYsQsrfBIFL5qH3czHQ11t5eS5bOyKaxgUiw9oZk5YOguYoHzQsfw7vslqN2RkBaZtWOV+6jbQxY7cjHoC7NqNApsjQjQDFa4uFOzXS1J5vMdEUgH0F+/+jCBiLIx2CLB0Fzz0Hzoo8PS+6zZnIISEscdOpFTze5b/T/XCzN8DpgNS4fLM3w0t5Vnk8IuaH2JoQc7HchNhDxL5tVPhry0TH5mOohgubVg+YF38Ppxbr17QMVSI9GQPYZnTc8NDT0TUkbpzpg+bjgWZqRgmwy0xVPezPTFU97M9NVXD7SXFaJfHRRPAiaBw+aFzkGM0nuVFs8ZxoC0jAbbqhPSHph+wMWIeR4Bqw4l2Z0caZLHtq6nfaucbEw0+W5vRXmOxi1bDLTBSnLx1T1MkFzj0HzQuOepO00a5OjEJAGOezMi//G5N4Xx4DVjnwwYJVuvtZk08dxxzbT1f7SDGa6Ko2vFb6DSc90lTvrDcimgskm2+1Ca/JB0FwBguYTdxTrPuVf7E9HbYSANMCr/v3Czcyy/1bfO52zNCOcfLA0g5mueu1NCDkd2UxPPqq0W/obiLDdLoQRD4LmLQXN1+oDJ33O5pqmExCQBli5YvgzkrYJNmBVGdlYmtHygMXSjHCyqSDtXeu4CSG3L5tVPhr3dgksm/WOgu12odz4QtA8eNB8rT5wis/wbrvxLRsjIAE57Ix5hzrpiPQGLJZmxFOgDMDSDGa6asqmArf34ISQVevaVhrLKgdipqsJ2YR4xIOgeTRB82LjwkYaGTkWAQnE/idfsJE597no5KPLIWSWZoiZrpCyGazRasgHM11B2lsxyiYzXcUPnR2vBkc+pqqXCZq3EDQv9hnN3mt3H7cBAhKAGcMjZ8n0pBrjT2sDlo8OgBByBLKZgnww01XoMxFCbrK9q0tXF2e62pXNwDNd3kYHiE4+CJqrxaB5gc/oNtPysU7viNWKgBx62rx95PSWIiM4IeQ0Bqzav5YRQm6svdOTjyrtRgg5nGyqcnuH68vbm+lqd1mlArc38pGmeBA0jzxoXuwYnL3fbjlhPQTEE/uMzhvWkPuUNNUt51makdqAVeu4WZrRvmxW+WiEkAPLZr2jYKbLp2zKb3t76cvZbhfK1hAEzeMJmhd6fCvZkr9DQDyx/qzsH2TahQGLAasZ+ahymgkhF3svQsjh5KMLIWRmunz9RsN2u1BJDLzLR50vDUHzSnLj9MGu3h29UQE5+NR5W2VmH2XAqjtgEUKORzYJIccjm8x0FT/0Dt7bpX4dH69sNt6XYyBpycdU9S5B83iC5pXk5smatdGbEJC6bzbkzjBpo3QGLELI8RQozHTFI5uEkOORzUhDyGwg0lh7+zhU5KOj8kHQXHEHzQtL5PEISA0OPnPe8zTVPT8IIQ/QgMVMVxWRiEM+Kg6ShJADXNslHu7UskpPM11d3kCkyjOQj8TEg6B5J4LmxSRyV7v5bXshIFXfyLKTNVnwnKUZAzRgsTSj0o9AFY4izZmuSme9AdmU3/b2Ih/xznSFlc125KPyB2G7XfAuH30LVn9iMOH3iqC5x6B5MYl0Og4BqcDBZ857uWT71Rx+kxuwCCFX+EGiJdmMTz4Gdaar7B8QQg4nmwrc3jHOdHmWTbbbBa/iQdC8k0HzYu34Wrvh77dEQEowOmpZZu6T1QwyhQGLEHLZEZyZrhZls8ozmOlqXzYbl49Bneny3N5Vns+OV1C2ZiBorsSD5qt1NJM+Pk3D+nsEpAS/nDV/rqTn1h+wCCHHM2ARQo5HNgkhl2lvL2UwM13BZbMT8uHlK8qOV0DQfECC5gX+Pj/abHQYASlWhbvM3D/5GbDKDqyEkMMNWBUajRBygGK0xMOEkAkhJyIfzHQhH9CnKCZoXuLHjGSC5kU+45N1yy2HIiAFOOzMea82aWcGrKoDVr2jYGmGT9mU3/b2Ih+Dem+XduSj8gdhpqtx2fTSq6Qw01X1SJGPBOTDS8FarigmaD5p/eJdbipLZN6ZMHoW9hIa+sckByxCyC3KByHkeOSjoXu7EEL29xXq1ExXe7KZzExXifZGPlIRj64HzT3KTfeC5gX+3u1vf/7bpyMgU3DIGZccLtnuzQ5YhJArDEfJyAdLM7okH5XOenqyWeX5zHQ11N6DtYFIbQOHBuRjqnq3K0FzT3LTzaB5kfdwctkbEJApz5B9sF6pxdIM7/LB0gw/ZTBLM4LLZifko7MhZGa6wslHjBuIQOvyQdBcgxM0L3AMpjeZTXJfvUEXkEfvev6i4kaZwoBFCLnsCE4IOQ3ZZKYrItnsnHzUvFiY6fLc3hCfeBA0J2he+vFn6Na3PR8BmQBn7j2hBqwuhpDjHbC4E7KX42amq3HZ9NKrMNOVgGwaG4gEa28ILx+hC1aC5mkGzQu8R54nvwzLu4AcfsqCbTLptaEGrHbkY1CXZlToUFmaEaAYLfEwIWRmuroiH0F+/+jCBiLIR/riwR3NCZrXlEjTEanfE8S7gNjI+DtMGmFphucBq3H5YGmGl/au8nxCyA21NyHkYL8LsYGIf9ms8tGQjwjlY6pakzuaEzSf4vHVX9bZFrr5hpchII8yZ3TxNDO9PeYBy0dnwdIMH/LB0ozBkU1muuKRTWa6istHmssqkY9E5YOguQia95HItf9H4rtheRWQ5bPufaWkLQghD9KAFefSjGRnuqJfmsFMV+1iozX58Fw0JSObzHRB2+JB0JygeRCJfJXdfdwGCIik3OzvCSEP2IDFTFf7slnlSJnpCtze9fqPpGe6yp31BmRTwWST7XahXl1A0JygeS2JnKlly1458ALyyrPmbeuk/ViaEUo+WJrBTFe99q69NIMQcmPtnZ58VGm39DcQYbtdqFRwhsoIlPoicEfz6IPmhT5jjoD0cvs7mWVh+z+WZsQzYLE0I5xsKkh71zruVJZVer22I5PNKh+Ne7sEls16R8F2u12Vj6lqzYAZAe5oPmE/5lUMQktk+XY80G58y4yBFZDR0dHMzL0lrgGLpRnxFCgDsDSDma6asqnA7T04IWTVLUZTWFY5EDNdTcgmNCofBM1F0LyPRJb/jBvI2X4DKyC/2ODFe0t6MiHktgcslma01t5Vns9MV0PtPVgzXVbnuJnpal82qzwD+YjbSQiaF/x1g6B5pc/o7BUDKyBOQ68jhBzDgBWjfDDTVeU7yEyXz/ZWMNnsVgi5uzNd7cpm4Jkub6MDBJEPguYiaB5aIt3hZqNZapdH7Q885+yzhyR7TdcGLELIFX68aEU2Y5QPZrpKP5EQsuf2VuX2DteXtzfT1e6ySgVub+QjTvkgaL5OX0HQvKJE9j2GLXXTTS8YOAFZftNm+0nasmsDVvUvarwDVq3jZmlG+7JZ5aMRQg4sm/WOgpkun7Ipv+3tpS9nu93BEw8RNF/7cYLmgdvRpCxPbhlWbQHJs6HXMWB1fMAihNy+fBBCjlA+uhBCZqbL1280bLcbP86UB3xxR9B8gjGBoHmNMaHM4+7wgRKQR5dfFT9olmYkOGARQg5TjJZ4mBAyIeRo5GNQZ7rqzTKz3W4c5M5Whntxm07QvH8fQdDcx3me4HGznexPb37mwAjI8j9vsaekzdsdsAghx1OgMNMVj2wSQo5HNiMNIacw0+VdNtlud5BxciuCvbhpujcxKF2wViiKCZpP8PFS2a1sktfO7OCBEZCe3GHtD1gxygdLM0o/kZkuz7Kpyu0dTj4IIUcjm6nMdHV5A5Eqz0A+6hJOQLLJBISgOUHzCu1URSKd239gBMSZHRbdgOW1GB3UAYulGVWu/SpHkeZMV6Wz3oBsym97e5GPQV1W2Y581CtAGuzL2W63FVzIJViWTa8lBhP+M0FzguZlJNL2scVzpnVeQA469aKny2nH1AcsQsilm6812YxPPgZ1pqvsHxBCTlc2Y5zp8iybbLc7SDwSTkBsWu2im6D5uhc0QfMy7bi+Npy+R+cFJMuGDk5nwCKEXHYEJ4TcomxWeQYzXe3LZufko9JZT082qzyfHa+SJJe7L9yru5kEzT0eA0HzahKZ62WdFxA5269sg7E0o8kBixByPLJJCLlMe3spg5npCi6bnZAPL19RdrxKRkAy3RuumsoLbMhD0JygecV2LCyRbr9OC8ics88ekukl9QdWlmaEG7AqfEhCyAGK0RIPE0ImhJyIfDDThXykyLBWBpwBmWpHUILmBM0rHkN5iXyB/WnORp0VkOV/fsJzJW3CgNWVAYsQcrFj6tZMV1jZbEc+6g1ODcoHM11+epUUZrqqHiny4Z2Nlm5wf7AXN21RqmAlaD5hDeJVDNboKLoSNO/7HsPK1tunswKSm7209QGLEHKL8kEIOQ75qFjeEEIOcG2XeLhTM13tyWYyM10l2hv5CMr987/61uUBX3/zQt8IgubrXsgEzf1KpMuT2I53uNJfOe3btHwQQk5DPpjpalI+2p3p6oxsVnk+2+021N6DtYFIbQOHycsW002B32Hzv7ZbCgVrvf4g6qxH4TGyiXu0lHzcS1umcT+Q0jMg+4zOG5a0V/UBy4N8sDTDz3GzNKOx9vZa2ndGNo17u0TT3sx0xSObyEeQ/jPTzYHfYUuC5hHIx0AEzfs9bjvYn1+/TecEZOYsPUfSBoSQa4p52wMWIeSkZDM5+ahf1yUpm8x0RSybVZ7PdrudwZluDHY13Hf8LMk2q9e4BM0JmnuUG8v26pyAZLn6HlQXQ8jdGrAIIacmm7WOm5muxmTTa2nPTFfg9q7Xf7DjVWKYCzcDslxPn7oOJWhO0LxpiXQvjv2SLJ0BMWlv9oePST5YmlG7vbu8NIMQcmPyEUUIOUrZjLEvD72BCPIRHc5dE+61s+2qfQ+s/AUTMmgeRDxUMAhe8fFGsh6xSGSpOjt6AamwC5a9qNaAVb+Oj3fA6px81KzuWJrhub3l/ziil01muuKRTTYQqfn7CPLRImNj7rfhBMSe9nhbckfztWoO7mje0m5lu8R+P5BSAnLIWRduJ2kblmbUNeU2BiyWZlT6USIa+WCmq3Z7M9NVs70VuL2ryEeaG4ggH41z7+/+8+13hXt59zSC5pOPQd7lhqB5kb48UzZ9z84IiPXcXoSQUxywCCF7be8qFTQzXcx0+ft6+DluZrrqdhkeGhD5aIjfBn79Z5Uu/Is8TtB8kocImheSSMujXoZVLgOSZy+Sq/C7NwNWuwMWIeT2ZbPKkTLTFbi96/UfSc90lTvrDcimgskm2+2CpN8EfXXTrglmBOp/xin6oyCvbxUyM0UejyrrUVIip3rcae+YL8pSMyAusxd3csBiaUaNYrQ92WSmKxXZjFE+uhBCrjHTNUAbiLDdLkhuUTD3uPX4J0m2+dStzh3NuaN50b/3ulvZHnbjW2YkLyCHnHTZJjLt2MkBq8rzWZrRUHsz0xWPbBJC9lk/dm+mS8x0hfxxASqTD2eXB3vxIe1ar2AlaE7QPJhETlc2tnvyAqLhsRet/XyWZsQ8YLE0I5x8MNNFCNmTbHZqpsu8fInSmulqQjahHu7mqz/z9luDvbxlu3opigmaT/DxCJrXlsg83hxI8QyI6UVyfgesLt4JueAIFJl8VBlYmekKJ5vBGq2GfDDTFaS9mekqIZvN9+Xm4dpDPtrFpMuDvoHLd5G5BsWjxHtEm/Uo0n83Mevh+Rgaz+0UaqdocyDFZ0DcX++qSAi5zoAVo3wQQq7yHWSmy2d7K5hsdiuE3N2ZrnZlM/BMl7fRAUr7gcsvDms4bs/m5IM7mlc+hmTvaF5DPiTJaW+zOUPJCsg+o/OGJds9tgGLEHKFHz58ywch5Frng5mu8O3dqZku89cZxDbT1e6ySgVub+SjPQHpnR/MPW7/h6dIegpBcw/HQNC8oESW/q5tpBuHZycrIOttmO0saSZLM8IPWLWOm6UZ7ctmlWcQQg4sm/WOgpkun7Ipv+3tpS9nu92uYk7X/uqz77w53DvkLyZo7uEYCJqXkMgKcuMU5Q0JCwmIy/MXMGBFPmARQm5fPgghRygfzHSVfmKyM131DZntdruFy/WzwG/x4np9IkFzguaNSOQeMV6fhULoTvZ86+SARQi5xFlvRT5qdWxeZFNh25uZrhKy2bx8MNPlqyuNRDYb78sxkDYx2XntCAhB82JjNEFzL0Hz/sfwghivz0IzIGZrf3hCyPEMWCzNKHbEhJArnUVCyB5/LejoTJd32YxopqvqkSIfMfCX8fs2mxdMbu44fgtponujETQnaF5BIi1UO5pk2tGuf8Os5ATkgNN+tr6c29FrJc/SjJbko8rnZKYrnGyqcnuHkw9CyNHIZiozXWwggnzEyfcWnzN3ZbBXNztQWv3mBL7ko27BStB8AIPm/eqFTC5/XnICMmQjz9PjS7VYmlFhOIpIPgghVzmKNGe6Kp31BmRTftvbi3wM6rLKduSjVvESqXx4uQjAK07ZOYHf4JBJC0aC5pO8PUHzYEHztdvR1vm+RpcDyfo/wZ7PgBXhgEUIubH29tFksclmO/IxqCHkhpZVRjXT5Vk22W4XyvHAyns3vijUi5vNGZK5lxUb9wiaEzRvUiIneyyPLgfSN4RuWfaCdb48LM1od8AihNy+bFZ5BjNd7ctm5+Sj0llPTzarPJ8drwYY+07Q5Vd3bLOn1NusZqcoguY1HidoXq54cpbeDIjMXsDSjIjkg6UZ7csHM11+ymBCyMFl00fbJbmsMomZLgiFy91Xwr5D75D6BStBc4LmvtqxyHfJbW3Xv+FJyQjIAaf97AmSPTW8fLA/fJgChRCyfH+FmOkihJyIfPhob2a6kI8E+d2vvnDMlYHf4xX15KNuwVoz55B80DyA3KQfNO//99lYVLMgUwrIkIZLf1gGrJgKlNJnPXAx2rfWrmWThJDFTFdL8lH7uJnpaqy9fYB8xIz7cshXt1uPe46kHbuXEfBwDNEsuRrQoHnf93BR5UCmzoCYe55cmZGREHI88kEIOR75IIRcu72Z6UpSNpnpgoZ5ZGzl0NeDvsNQdoTyQAWrqhasvuSj4uNexGOS50S3vW7d2qvFpXPOpTMD4jJ7bq0By2sxGtmAVeUZhJDbl83OyUfNi4UQsuf2lv/jiF42Y5zpCiebtQ0cwmH66uIv//39wV7e5JTb3DW/A6n/Wl7zGLzNetRZclXhGKLbrayJe7Tkz7N5+wzHcrlOHUI3tytLM1oesFia0Vh7ey3tOyObxr1domlvZrrikU3kI0b9GMrdZ4K+w+3v2lNy23oTA4LmImhetB29CNj6evKWO0QvIK868cLNZPbkJuWDpRkTnxBCyGnIJiHkNGSTma6IZbPK89luFyRJ7tyrvnj0tYEd50h/RbEImhM0b14iM3tO9AKyfMTtGmbA8igfnR6wCCGnJpu1jpuZrsZk02tpz0xX4Pau13+w49XgkKt3elD1uOWE9aT8SILmHgWs8nVJ0LzGMUQjIJOvBcttNznXvQGLEPK6/8rSDI/tTQi5WFurwrXdkRBylLIZY18eegMR5KMrOOniqz933GVh32TlXEmbeCkGCZrXuI4Jmtd8/V1juW4nFRCXTZ3/IIQci3zUrO5YmuG5veX/OKKXTWa64pFNT8sqvV7bkclmlY+GfERO9q8NWM5RtQtC7mheo//ljuZeJNLZbtFctVN80Od4L5ralg+WZoilGSnLplU56w3Ipvy1NzNdNWVTgdu7inwkvoEI8hE1Trr4V5876pKQ72G3H7ejpBdN/OUgaE7Q3Fc7et7pa6J+zLSZXf/qKO6IPqGAHPTpn0yXtEN7A1bz8kEIuVJd1y3ZTGWmq8v3dqn0i1Ebshms0WrIBzNdQdob+YgaM/vn8G/ijg1TsBI0J2jegkRmQ1Esw5pQQIaXT58taYQBK2DRVK7eaEU+ujrT1f7SDGa6Ko0jFb6DzHT5bG8Fk02224WKnPPrzx+7MKh73Hf8LDm9uVLBSdC8xrVI0DyYRLo4gugTZkDG5Z7j1jkolmYEG7AIIbcvH4SQI5QPZrpKPzGVma4qgwnb7cKarMxc75+Cv8uK/B0ybVS6GCRoXqOvJmhe+/WnaktzUcyATCggzvJd19wBi6UZ4QYslmaEk00Fae9ax00IuX3ZrPLROjPTJWa6Qv64AE3yqf/7j3f8MeQb2PXHT5fs+HRmPeqOuwTNOxE0739H9OfEcAFnE8tRtktU8sHSjEKfiRByk+3NTFfx/nRAQ8gpLKsciJmuJmQTGsXpLk2ffmLw91m/92ZZvjVB84rHQNB8gnZsIGje/++fYde/YVaUAuJksyvLJUszAslHlYGVEHI42QzWaDXkg5muIO3NTFcJ2Wy+LzcP1x7ykZh/5PbuX//bW/8S8j3M5GQ6oX7BStCcoHlgibQiErnG405uxbOjE5ADz/zpppK28FkssjTDh3wQQq7ypWGmy2d7K5hsdiuE3N2ZrnZlM/BMl7fRAYLKh/SzX33+2O8Ef6Pbjn2tpB2rXrcEzT2LQS35qCuRNY/BIsztRBBEX0dAsvFpO/ocsLq4NIMQclPy0YWlGcx0VRGJOOSjogCbv84gtpmudpdVKnB7Ix8JsCzruXeEfhOzOUNy7l/7FpxR/1o+Vb1cd2ZmkvfwvuRqqo/k8RgGUyJ3aftiXieEnrl8hwlljaUZfo6bpRnty2aVZxBCDiyb9Y4izZmuSme9AdmU3/b20pez3S5IztxHr/ri0X8K/ka3bf5GuYnuhUbQnKB50T6s7aB538d3jE5AcrMdJMeAFWTAYmlG6/JBCDlC+RjUma6yf9CFma76hsx2uwMqH9Jlv9rqjrNCv49dedSI5P65/LUX+7asnrYArtU3h856lHgPJHKHtq/pbIJfGHaMa8BiaUaJs96afHR6aQYzXeXHsRhks8ozmOlqXzYb78sxkAR4UNn4mzQ6mgd/p61G/l5O2014rRI0n+JCImgeWdC832d4gv3+VZtFJSC2+rQjSzNaKlAIIccjm8x01RWWVuSj0WWVDcuHhTiOhGe6qh4p8pEOZu/41WffeXPwt7n7uA3k7CPFL26C5gTNG5JI39sYS9K04VaXYa0hIPuMzpshadt45IMQcuknEkL2LJuq3N7h5IOZrmhkM5WZLu8biDTfl0exgQg0j9O3fv35Y7/VyHuN6cOStiFoPsV7EDTvjkTm1uoyrDUyIDPW7z1TpqGqlQFLM3zIByHkKkdBCNmnbMpve3uRj0G9t0s78lGr8IlUPrxcBNCse5h+m/XcUU28l9117HYa17vJCBTppAiaFyt6Le52dIpHQDLZDibHgOXruAkhN9bePpqMEHL49vZhyEkvq4xqpsuzbLLdLvhlSZa7uVd98ehHGnm3cZ0l2Yy45YOgean3QCL79JsRzYCYuR1YmuFpwCKE3L5sVnkGM13ty2bn5KPSWU9PNqs8nx2vYGJyM/vbq754zLVNvJnd+o79pPzw9grWmu8RxaxHE/IRetajZYn00o6lJDKeDIhMz6x08RJC9jNQszTDn3ww0+WnDCaEHFw2fbRdkssqk5jpgpb4yG8+f+z3GpGP64+fLmf/TkagzrVW8hhMBM2DtWOp3cq2tVvmrBeFgJj0tLYGrGrjctwh5HSXZjDTVda+CSGnIZvJzXTV/00mXtlEPmDiVvvarz93zEmNvd36Yx+V2Q7lC9Ii1wZB82KzHgTNW5LITGPjz2zrSl9DQNykAsKAFa5AKV0mBC5G+9baHmySEHKlV2Omy2MDMtPVal/OdrswAU66bOnw2NGNqc4t79xZuftAtWKvwK/lvsXAe8Fa594eFY4hyKxHnd3KChxD9BJp9SQyd63lQB4XkEe34N2qUwMWIWSWZkTT3oSQ5ecr5KG9Y5zpak82memCKOTD9NuVK4df+cfPvGtFI/Jho5lc/gVJI96L4lA3o1ORgrXiMXif9ZhqyZXHY6i15KpfO6Ygkf06wH6i3F4O5PEQ+rRpK7eVhlynBqwqzyCE3L5sdk4+al4shJA9t7f8H0f0shnjTFc42axt4NA0f8pyd+DiL//9/Y294213niC5PZsTj5rvQdC8YF9J0LzcZ8y3b11AhrLhp635gVma4ane8C8fLM3wU9p3RjaNe7tE097MdMUjm8hHGrjb86HsZb/+3NvvaOod7fbjdlRu/9qcfNTNksQgH3XFw+N7sFuZP4l02batC4iUbyu5yAesMPJBCJmlGdHKR5dDyLWWVTLT1Vp7V3k+2+3CxO11Z5bby67+3NtvbOw9rz9+uvLx/5Y008uv5dHfjG6S50R1b48Sx5DsPVpilUh7WlvX/+MZEOfc0xiw5P84ahWjVd6OpRlh2k4DOtMVmWxW+WjMdAWWzXpfGna8GmT50H6/+sIx1zT6xuuNnSTpOQTNCx4jQXMlHzSf+vGt7PbDZrYqIH/dgpcQcpgChaUZ8bQ3IeTi8pHmssraxWiUshmjfHRhpgta4M9DrvfipuXDbjv6ZZJ7N0HzAHJD0DygRPbr9Godg9OKaU9pVUAkbUsIOZR8VPx9KLh8MNPl7Tiil01muuKRTU/LKr1e2+VerjszXdAC17ls/CX/9x/v+GOj8nHnMU+Qua9J5qoXa9bQr+U15KX2rEeFY6g061HwGCrNerQskUndo8WkXq+VZVirCYhtF4V8EEIWSzNSlk2rctYbkE35a29mumrKpgK39+DMdAn5SI0r3PC0F//qs++8uVH5sDlDGtc3JW0dtmDljubc0dyjGDQlkU7btiYgh5+yYENJm5YbsJqXD0LIleq6luRjwEPIXb63S5XnM9PVUHsP1kyX1TVwaA6n760345F9f/WZv7un8fe+bbNTJL2s+heWO5pzR/MiEhlo6Vx4iWxPQMZ7y7celAGr1kBNCLl92azy0ZjpCiyb9b40zHT5bG8Fk02224XqnbE7a/t7Np1z+VnvWdb4W99+7CslvadysUbQXATNi0pkALlpQiJbEpBhScqdbeN8DFgszahRjFapC1iaEaYYFSHkBtvbh1cz0xW+vdluFypcHsslHfebzx/9X79u4/1vO/ZZ6tnX5Ca6x0Db27IGuOlf6f42tHiUeI9ot9dtSiLrdHQVjmHN2/61kgFZdR8Q57ZaYzKbpRl+jpulGfVrntoNSAi59JgXg2xWeUZnZrrETFfIHxegKfu4VbLX/Obzx/6ilbe/9R2byXrnymmW34K1ZkHIHc0L1jzc0bwxiXS2bRvXaCZJWZZvyYDlq0AhhByPbDLTVVw+BjSEnMKySma6kI/07OM8NzLtua3Jx+I506TxcyRt779gJWhO0NzXOYhltzK3hV17+IatCIjktkpvwCKE3FqBUuX5zHQ11N6EkOORTWa6ih96A8sqoQnG5Oxjv97yrkNbCZuv+u47zdrsq5Lbt1ynRNA8fNC8X9bD0zEQNFfpe7QMWeP3Alm1BCt3W1nln9DbGrBilA9CyFW+NMx0+WxvBZPNboWQuzvT1a5sBp7p8jY6QAD+kGfuiKs/e8z/tfopbjvm43I6wm/BWve6Sjwj4FtugtxUUAWD4DG3Y1MSOdGfuW0kLW7yUs1W+Ydt1bUBixByU/JBCLn0E5MNIVc5H5HOdJm/ziC2ma52l1UqcHsjHxGSS/rimOvtfvVnj25VPuyWY/9e0oebkw/uaF7qM3BH8z59YYu7lblsq6av1+FHzWfriT8YIeR45IOlGfHIx6CGkOtde2nOdFU66w3Ipvy2d5Xns+MVSIvzzL3t6s8efUXbH8RuOfrVcvY5P+JRs+AkaF6wLyRo7v08V21Hs8YF5NEMiG1ZZ8BiaYZYmuFTPgghpykfnZzpKvsH6c90Vbv9EDteDRiPOOlflg6v3D0K+bj9uAPk3H9LGiZoXuEYCJoHbMdYguZ9/t6p+RmQOWefPbTkBm1RZ8DqVAiZpRkBitESDxNCZqYrEflgpgv5GFB+JLPjf/X5Y2+K4cPYbcfspdy+K2l6/Xtv8Gt5+FkPT++R4j1aSktkyHZc+znNz4AM33/9ppuPDNlQvQGr3rBLCNmXfFS5npjpCiebCtzehJA9NV9rsunjuJOY6ap6pMhHRLirc8tPuPrzx14cyyeyW499oczOk/L1wxasTcgHQXOC5m1KpGt+CdaMYds0ygGLEDIh5MLtrcrtHU4+mOmKRjZTmenyfm+X5vvyKDYQAd/cJLmjt793k+dGJR+3H/timf1Msg3DygdB81KfgaB5n06txaD51I83PwOSSxtFOWBVeQZLM4LJByHkmOSjyo9D3NslnGy2Ix/1Bto45cPLRQCecDdL+sTGW97x1fmjo+O/juiT2a3H7au890M5bVBdPGoWnATNC453BM29n+cw7di8gJg9JiAszWhEPggh12oyQshNtXeM8tHQssqoZro8yybb7UI/7TD9VplOz8b17au+ePRYbJ/Pbj32EKn3P5JmtFKwRiMfdQtWj+/RWtYDifTYjpvY9QdNd9uft6I5AZE2cizNiEo+CCGnIR/MdHVJPmpeLKnIZpXns93uIGBmutiZzvzVF44+T3JRtoLddvQRsvxrkkYqmHkkBeskzyFo3rBEDmLQfMo6x2loeEtJf25MQDJpo6I9TRdDyKWfz9IMf/LBTJeX4yaEnIJsJjrTlYRsQg0ekHSOZdmnf/PZox69C/IxcRrSLUf/g0xn6vHbB/guWJuQD4LmBM0jlshetnWjAqKpMiADEEJOd2kGIeTizU0IOSXZTE4+6v8m0y3ZRD5iZ4XkfmaWf2v8vs2+v/icuStj/rBmc4Z066afktM7ilz33gvWwh1txaB5NAVrifeIdtYDiazVjm6iewKGFBCzWXIeB6zG5YMQspcCpdKvFInIZpXnM9PVinzUPm5mutpv7ypHinyEZlzSxSZ9x02f/r1f/9tb/5LCh7Yb3zJDt834upzNqVaw1izWyAgUrGkImschkSWOYaKn5tqkUQExZxtrbQMhhFyjoiGEnK5sEkKWn6+Qh/aOcaarPdlkpgsqNP49kpvvnH5k06b/MBXpePzT3/r3T5KGvyvZ8xsvWKORD4LmSGSDEukK7orrS0Bkbs0ZEELINQoUQsjpykfN6o4Qsuf2lv/jiF42Y5zpCiebtQ0c1sLd7mSXSVqoXJf+6gvHXB1rmLzvN+K2Y/aS7H9kk2wNStBcBM2LdFYEzctJZN6sgJhzf90Fi6UZ/uSDELKf0p4QcuD2rlfwJj3TVe6sNyCb8tveXuQjxg1EQHI3O9nVJvutmX6TO7vyt5877oY1n3NMkkdmtx59lMw+I2ma/4K1CfkgaE7QPFGJdFmzAuIeC6GzNKNx+WBpRkfkgxByQvJRpX5Pf1kl2+0mxb2S7pPsPid3n0l/duZuzDO7UbndOJxnN1z1xaMf7NpB241vmaGR6Z+T9JZ+17r3grXwYErQnKB5YhJZqh2t4SVYLp8hc9VOIEszKr4dSzPCtJ2Y6YpBNv9KT9Ktkm4x6V5ndo8y3e2U3Zvnute5/BE5e8hJysf1sBuyarvxuDX+qxhjfV9uyn+Z+qVdyQMo9WFKnZN6H8OVfElX8qNFd4+7RhmXlpo0Nq03NL5yqLdEkn675d0PanQ0H7RzYbcftYNy9x1Ju5YvWGsWa2QECv7QQtA8DomsGTSf+vu6caMC4sxNM0LINeRjUEPIES7NIITclnzc7aRfS3a15dkNzumGPNMNS9efdvPi0bi3+ASAluXj1qPfrFz/IWn9RgvWaOSDoDkSGYtENjwDYmYjq/8mRQi54nETQvbc3vJ/HNHLZhIzXXebtFBmV1qW/XrYZb9eeOoRt1NGAUCpnutPR22k6fq8pNeXHOQiKVgneQ5B84YlkqC5R4lseAmW3LR6BQoh5KKvTwg5lvYmhFxCNm+WdKmTLsuzfMHPT33z7ymdAKDW+H7L0S+X0xclPdl/wdqEfBA0J2jeRYl0TQvIqp0mCCGLELIv2SSEnHIIuSfp5046t2e68Ioz3ngV5RIAeBGPPx21kaa7UyW9XROGhgiaEzRHIltrR7PGBWSEELISDyFXuQa6cCdkZroq9XnrPn+pc/qBOf1gZTZy/lWnzO3cDjsA0LJ83HrUIZL7vKQnlS9YaxZrZATWfZygecQSGTBoPtXjruEQuknTCCFX/ApEE0IOnQOI9E7IUcpmjPIx4d+skHSBpHOmbzDy3fmjc5dSIgGAd/G47bgny3pnSnpt4wVrNPJB0ByJTEIiZ9iVu4+4513VyBaFwzIb6bt7IiHkgg0fRj7qXbB15aPEw43OdCVybxev8lGl31vnxX5hcl8aHrL/XXDyGx6gPAKAIOJx5VEj2tIdJ+t9XNKG1To7MgIEzUXQvEmJHNlsmhraI31YbqK7jRY/AELIvuSjyrU3qHdC7u5MVyDZXC7TOebyf/v5aW/6P0ojAAgqH7e9fX+ZPi1pxzAFawzyQdAcieygRLqRaZIebkZApJHin5kQMndC9t3eqtze4eSjvZkuz/d2uU6yz+TL9Y0rPvPGhyiLACCoeNx+7O7q5SfKdED1PpygOUFzJLK5dlzrmhmy6U31F1MLCCFksd1uSPlgpstLe6/zzPwKmU65fIM//mAQ76oMAA2Lx23HPkvW+7Dy/A1yyqoVrDWLKTICBccwguZxSGRLQfN+7Th9fKRJAfErH4SQI5SP0NvtxiqbZT9n2jNdTm5hbnbKz09/47mURAAQXDxuP+opsuyjsvwtkhtupWCNRj4ImiORHZBIG5rWVP8xLGlcWisHQghZHQ4h+5PNKs/ozExXPPd2cdKFcu4fF556xJWURAAQXDz+fNTTNZS9S7kdJdmMImN1ugVrE/JB0JygeSQSaVmLAkIIuaIfdWHHqzAzXeUGiwrXY0uy2b58uJ/L7MMLTz/yYkoiAAguHrcds5tMJ0g6UmZDYQvWGOSDoDkSOWASmeeNLsEaa08+KnWBhJCDyEeJh6u2NzNd5fr0yV9usSn/0OWnvfFHlEQAEFQ6Fs+Zpo03e7WkY2V6ibdCp9bgRNC8yHhH0DwxiWwqaD7Vazg1GEI39Sa+DwghZLbb9dneQQI0HmRTgdvb63H/RbKTH1x/5KzFo3NXUhoBQDDxuOWYJ0rujXL2Ttljdy8nI9CMfBA0J2jekkTmQw3OgDiNl2+0arUVIeQptMfbdrtVzkfcM12l3q2bM10m2Td7w+79V5z4hrsojQAgiHTcftRMmXuFzL1J0oGSZVEUrNHIB0FzJLLrEtlrOANCCFkph5DX/J/1NgBIc6ar0llvQDa9yMdVTu6YhaceScAcAPxLh80Z0h2b7KncvUm5O0Lr3LWcjEAaBWsT8kHQvPNL54ZdgwJij86AlC3LG93xqmH5SCaEXEE+OjnTVfYPkpjpWi7ZKSv+svSTV33x6DHKJADwJh13vm999ZbtL/UO1W16haQt2ilYY5APguZIJBL5OL08a0xAnDRuZT9mkzkAQsiNyQczXQVfI7x8XJ4re9vPT3397ymVAMCPdLzzaerlB0l2mMYf3qfv9rkEzcWv5Uik9+9KDEHzqR7PVp+UCCwgJhuXnAghi+12PbR3reNOYabLu2yu8cAyyX1o0czr/p07mANALeG4+djtNOT2lmwvSftrvLddMwVrzfcgI7Du4wTNI5bIBIPmUz3ussZWXAxL2biUB5aPSt1nB0LIVUS1A9vtdnmmq8JFXvB0/NY5HbHwlCMWUzoBQKnu8853Pk25PUdmu0r5c2TuBZK2XrdPij0jEIN8EDRHIgdYInsNzoBI+cPh5WNQQ8iecx9Vnp/KjldVnt+ZmS77xoqZs465avSwRyilAGDC3uKWt22qofW2k+VPl3NPl9l2kraXtIt6vY3/+kQXoGAVGYEoCtYUJJKgeRwSWfEYMtekgOgh3/UhIeQA8uFl9VCH7u3SjZmuezOnv1twyhvOHahCyuYM6a6nbiazzeVslly2waOnZH1ZPk0A3ujF9fprP91plpyGZJou2cxHr5DNJbe5pFX/bfkT5PQESRvI8gk6FjICBM2RSCTS0+v3xhsVkCXFv76EkOORD7bbTVw2f5Vn7tWLTj7ipk4Kxh1PfKaGhp4l2XaS207SdjK3rWRb6C5tLtmq6JncmifKOWpm8FjouMCFjivXcbsiY5db7XGb4i34tXzSxwmaI5Glvyce3yPlpXPNZkBWCQghZF/HkfB2u1WPtDOy2ZB8mL5p48NH/fysucvSl43RTHc/tLOkF8nccyTtprv0bGVab9WpccG/hzAg4kGh061Ch4yACJqnIpEdC5pP1ZZDWbNLsAYjhFylNm00hNyYfPho7+Tko35cxod8jEv2kUWnveGUpIXjziW7S9pXTi/WXUv2ltzGFM4QVD4odLpX6KQkkQTNkchBkchx1+g2vEsmnOPtXAg59FKcGLfbLfEwM11ejnsK2bw3c3rVglPesCC5svD20ZnKlu4n2aG6a8khcnoixTKkJR9kBMgIpFKwpiCRBM3T+DGgwjXpxptbgmVyS5xX+SCEXOw6bUI+Iry3y2DOdN3gNH7wglPedF0y5eD1x0/XhtMPkNkcuSWvlrQ+RTI0Kh4hCx0yAu0XOkgkEolExieRww1uw5s5PTTRhhqEkOtXuWy36+m4E57pMqcrXG/s8IWnv/nuJMrBu9+7t3L9naRXS7aRyIRDG/JBodP9QgeJRCK9SyT5q9rtuGK4wRkQc0uqlv+EkAPIh9U7gubko6GZrnJnvQHZLDPGuu+vXG/9N8R+fw+75wMbKu8dIdNxyrUrhTG0Jh4UOoNT6DTSjilIJEHzNH4MSEEiPfSt4+NLmhMQlz/kHrtxUWMhZA1qCLnC9RNox6tUZrrSvbfLFxfNvPZYjY7m0ZaBt7/3qcrsPer13ippQwpjaFU+KHQGq9AhaI5EIpGxSeS4djm/sR9Mh5XrITk1HEIOnQOIMoTcinx4vZM8M13F2tvZpxadcsQJkoty31m7833PltkH5PR6yY1QFEM35IOMABmBVArWFCSSoHkaPwZ4vSYfcq65/fKHpaH7Hr+7KiHkgn9XRT5Ch85j3G5Xke54FVA+pFMWnXLkh6Qj4yv/7jhhtlz2CcleIUe6AyIQj5CFDhmBmAsdJBKJRCLjk8iHmhwZhjWsu1dl3gkh15GPehd7Xfko8TAzXWVj5OXk49QjPhRd+Xfbe56sIfcRSW+TNERBDFHIB4XOIBc6SCQSGeh74vE9Bm/p3IONCsjYspG7p40szyVl5eSDEHKx/rds+d2R7XbV3ZmuiXEfWXTq6z8ZVel33/GztHLaP8vpnZKmUwxDFOJBoUOh47UdU5BIguZp/BiQgkSG7FtdYwF0Scrmj+47LumBuOSjSg2Y4Ha7Vewnle12rUIjJzLTtXZ7m9NZMcmHmZzd8Z45Gpv2Ozm9F/mAaOTDHruArM/fV5SDkGvLrcxnLHEMrRY6NY4hGokscQwWWCIrL7nqcwwWu3xYH/kwpTETaX0kMmL58NG3Wt7sDMij1nO3ZJvFIx9st1tloGe7XZ/tXVA+pH+//JQj3hNN6XfX+3bRXfl/yLm9KIQhOvkgIyAyAkUHd5bOETT30Y4lJTLKdmzomsyazoBIMmd3OdOO/T87IeRw8hF6u92ST2emq4h8fO3ymdf9QxRln40O686l75XZv0puGoUwRCMeIQsdMgJpFjpIJBKJRMYnkaYWZkBMd/f/2ISQS7d5g/Jhtb+AXZzpCnlvF/f9J92YvU3ntH+fD7vzhJ1195L/ktPuFMIQlXxQ6FDoIJFIpPfvicf3IH+1Os3PgDjprqm/S4SQ/Q3GDcpHlSBHp2a6zMuXaIKv/5Ub5CvfeM45b+61WvbZaKa7ln5Qso/JxP08IB7xoNCh0PHajilIJEHzNH4MSEEi2+pbrXkBkdPdk7Y5IeQiBWlD8lHi4aq5D2a6+rX1Tb1hO/T8E9/8cKul353ve4LuXPo1OXs5hTBEJR8UOhQ6bUokdzRHIpHIan2rubsaFxAnu8tWuy9ZazmAaOSjb61dsdHryke82+2GlU0Fbu/Cx/CgcnfYFSce0ehFus6nveO9B0n2VTk9gUIYuicfZATICKRSsKYgkQTN0/gxIIJr0uV3NjmSrLr3R57d3Z58lP2DLmy3W+V7GPd2u+ahrSOf6Rp3yl616PTX/661ss/k7I73fVBOP5KQD2hDPKxPoRNoSZTXQmeqbVk9HkOtbVn79bsBtjFuXCI9H0MrElnzGKyJbVlrXNNTba8bjXyUOIaoJTKCvtXs9iZHlFUzIEN2u+WEkJuQD1PFcxtcPpjpmqq9nekDC0973bzWSr+7j9tAd6/3X3L2WgphaEc+2ixYYyl06hSssRQ6JTo+n4VONO1YUiKjbMdYJDLk98Tje7B0rmA7jtzRuICM5SN/HtJYvaothRBy1TKY7XaDy2Y78lG4vb+98LQjzmqt9LvzfU9Tbj+QtDOFMEQjHhQ6FDpe2zEFiSRonsaPASlIZHR9a667VtzT5OiSSdJF/7Tf3SY9UvwXkIkrtuhDyBW+LGy3G14+Yp7pctLVG+Rjb2+t/LvrfbtIdhnyAVHJB3c0j6zQ4Y7m3NHc1zngjubJ39G8Wt96t9t3/njjAiLnTNKfCSF7HJyblA+r2Rb+mq812fRx3BN8/R8wc68+//R2dryyu963v8wuk/REimGISj5aL3RiyQjUKXRiyQjU+YyxZAQ8HUOyEhkoI9CoRMaSv6ojkbHkryr1rY0uv/qrgKz6TDdXGqSSDyH3uaZbkY8SDze549WgzXQ5d9yi017/p1bKvzve8xaZ/UTSLIphaFY8CJoTNPdVsBI0J2juqx0JmgftW801ugOW9Nh9QFaVcTe7oPJR5bQmuONVleensuNVlecnOtNl0pcvP+X132mlBLzrvUfJ9Lk1fiAAaEQ+2ixYYyl06hSssRQ6fQri2v09QXOC5j6+Jx7fg/xVvaIvyxvdAWsNAXEqMwPScAi54PPj3PEqRvkInftIfqbrj5lmntCSfBwj03+suiQBWhYPCh0KHd+FDkFzETT3fAwEzev3rbk1vgTrrzMgzm5y5oo1eIQ5gC5ut1vQJiKTj5oFUPszXWNZrjcuOP0VS1qQj/fKdDoFMUQhHxQ6FDptSiR3NEcikcgG+9YWl2BlZjdZkR9d2W7Xn3zU3vEqRvkIveNV2JkuJ/uXBacfeUXjZeAd7z0O+YBuyQd3NOeO5qkUrClIJHc0T+PHgET7VlclB+5JQMZlNw8V7CjZbrdF+SjxK0Vy8tH+TNdvlv9lSeMSYHe9540yfYaCGFoXj5CFDhkBCh0kEolEIuPsW7OhPzY9Ej0ecn3J+FV3SFpRryOpU4xWebsubLdb4mG22/Vy3JP0AeO5ub+76otHjzVaCt75nsNl7r9E4Bzalo/QO+pEVeiwo076u5WVvEdLlLuVxXKPFs/H0Mo9WmoeQ8q7lZW9HtYlVzZ0Y9Oj0Rprrl72iZ9cL+kZU3WWaYeQPS698iYfoUPnMW6320R7l27rTy469ciPNFoK3vX+vWT5hZJmUBhDa+LRaKEToCAOVei0Ih4eCh0yAiIjUPSaIX9F/kqS7Ga348XbNj0qZWvaiPtjffmoOTiy3a5H+QhQqCQsH1M8/dppM1d8otFy8I53byvLv4t8QKvywR3NIyt0uKM5dzT3dQ64o/mA3tG8/DE4Nb78ah0Bkeza+vKRdgi5uNFWP4Lm5KOh7XbLnfUGZFPl2jvLj54/+tbljZWD9x0/S27oXElPoDiGVuWDO5p7KHS4o7m/gpU7mnNH8xgkMuk7mlf40cXaF5Dc9IdSPwj5lo8ub7drJQ80evmoIgRRznR9Z9Epb7i0sXLQRoc1Nu1/JD2b4hjCigd3NOeO5r4KVu5ozh3NfbUj+asI+9Y/tTFKDa/+P4ay/NrcsjUqtsHabrfKtcd2u5Xau0rr+ZePZerZhxq94u5ecqKkl1EgQ1j5aLNgjaXQqftjSOo76pARSKMdm5LIAAVxiGuS/FWNdqx6TbpWZkDWEJB8bNp1Gh5vKIRcXj7Cb7cbOnQeZrvdchdAhes+BtkMMdNl7sRFZxzZ2N7Xq3a80vsokKFx8aDQodCJotBpUiIJmiORSGShdsxcKzMgayzBumD0gNsle8hn9ZpECLkR+SjxcNWlV4pxxytP93bxKh+SpJtsfOiMxkrDu094huS+LhW52yeA5/6LoHlEhQ5Bc4Lmvs4BQfP081ct9a2r/68VQ+0LyKMf5Q9VSt945KNvrV1LWDq13a66O9PV7z2c7COXnzV3WSOl4fXHT1ee/Y+kjSiUoXH5IGguguZ92pGgeYMSSdC8UYn0LQbd61vvdLue/3AUAmKy6wYshFxLJOKQj4pFi1Vo5ERmuvq09+8Wzrz+241dZRtM+6SkXSmUwb94EDQnaO6rYCVoTtDcVzsSNE+ob72mrRFseN2PnF3nPKzZSySEXO86rHAUaW63W+msNyCbqtbezj6i0dG8kRLx9ve/WC5/N8Uy+JePNgvWWAqdOgVrLIVOpc6sRCdJRoCMQI2COMQ1Sf6qZg3o8Zo0/aatUWydGZDM5dcGl49YQsil3z70drslnx7JjlftyEfF9jb75aJTjvxhIyXi/R/cSFn+DUlDFMzgTzxS/7XcmpOPKWc9ah5DFL+WV/iukBFoTj7IX0UmkeSv1vkH156ArDMDkruh65zlrctHAyHkxuXDKh5HzPKR2kyXuewfJWeNXF0rx8+U9FSKZvAnHyEHR4lfy1suWKMqdOq0o2eJbKUdPcgHu5Wpkd3KzCJvx4j71jyiGZBH1ltyvaTcTzFapTbtwo5XgbfbrXrcg7rd7l+5/PJTj7iokVLxjhP+RtJbKZohDfkgaE7Q3GehQ9A8jowAQXOC5lN+xjG5zX8fjYBc/p65y2T6ox/5iDaEHFA+Sjzc5I5Xg7vd7l9xdkojpeL1x0+Xyz4vttwFL+JB0JygeY3HCZq3IJEB5Ca6mUiC5h3oW3/vZp+zMhoBWVWouVJTMmy3O/k/xLTdbunnd2um67pF611/biNX1YbTPyppB4pnqC8fFDoUOrFkBOoUOiUzAlFKJPkrfz8GdCF/VadvjSV/ZVe3OcJNIiBrf6gOhZCD1bdNyEfFIsYqvFvHZrqc7LQmdr6yu07YTjLudg41xYNCh0KnhtwQNA8gkf3akaA5QfOifavHY6hzo88Wd8CSJgihr7IS95v88QMY1O1262Uy2G7Xp2yqbnvfNTJz5beaqR2zMyRNp4gGn1eZv8FRImjecsEaVaFTpx09S2Qr7ehBPgiai6B5on2rs/gEJB/v/UZDmVoJIVctg1PYbrfqkbLdbq32dqb/mD/61uXBS8c73rePZK+kiIY45SN0wZpCoVOkb4+90OEeLXFIZAAxaFwiPR5DtO1I3zrp473h+JZgXTh62J8le6AJ+fCxFCeZ7XZL/KLBdrveZHM8Hx/+cvDS0UYzyc6kiIZqHRFBc4LmvgqdRILmwZbOiTuae2tHguYd7lvvdDtfdFd0ArIKdzXb7bYjH7WPO4Xtdis+v+xMl8n98PKz5t4W/Eq6a8nr5LQbxTR47aMGJwxZo9CJJSNA0DyOX8sJmpO/om/t+xlMv2x79JtUQJzlvylT5oWVjz79eivyUeLhTm23255sVjkdmezzwUtImzMkuY9STEM58ehYGLK1QqfmMRA0F0Hzou1I0JygeQt9qwW4JjO7vO1RcHiyB3JzVzsXi3x4zn1UeX4qO15VeX4iO15V+Js/LZz5h/A3Hrz7KUdKtiNFNdS+TgmaR1bo1HicoHkk7ehBPgiai6B5V/rWxx7PFrU9Ek46A5INFbkXSPmCN84dr2KUj9C5jxjlo0q/NPkLOunLobfeNRsdlonZD4hEPrijOXc091nocEdz7mi+Vr3AHc0T71slSWN6+KF4l2AtnfnwYknjkx9W+Uq+i9vtFrSJyOSjZuGUxkyXDeXj3wl+Bd219LWStqewhloDMEFzj4VOv76SoDlB86ISGUBuuNFnBYmkb/V8Tf7aPe+qR6IVkMvfM3eZpOt9yUdXt9v1en+Nzux4FcFMV67LLz39zTc2UFi+m+Ia4i50CJrHUegQNI9DIgmaxyGRBM3b61td68uvphSQRz/tr1IPIbciH13ebjeVmS6n4LMfdvt7XyJpDwpsiLvQ8TwAEzSvWOhUOAaC5gEksl87EjQnaN5C32pqrm91eesB9L4Cksv9csoDHpjtdks8zHa7Xo67pmz2eiM6u4Gr570U2UChQ6FDodMBiRQS2YhEGhLZev6qpyhmQIanenBI2S9z5Q3Kx9Tf2fbkI3TonO12i8tH//Z20rwrTjwy6A127I53byvpUAptaKfQqVuwljwG7mjeQjs2VeiEbMemJLJmQVznmp6qYI2mHUtKZJTtSN/qqW+91e186S3RC8iMvPerRzI3vup5bLcbRj48Fzje5CPdmS6Tfhj8ynFDb1PfJYyAeFDoUOh0vNAJ1o5IJBJJ3xrgmlwYy4g5ZQF17uhhj0haPDDb7aoN+Whou91yZ70B2ZTf9l7za/2ToGWmjQ5LeisFNxQudAhDiqB5n0KHoPla7UjQnKA5fav3vtXZz5MQkEc/+C9rF5apbLdrFQ40le12rcITU5npWvMjX7PotNf/KehVc9dDB0t6IkU3EDT3WejUPAaC5iJoXrQdyV+Rv2qhb40hf5XbvGQExK0eRK9akHotRqv0v2y3W+zMW93T3bpsOulH4S8bx+wHUOhQ6FDopCaRBM1F0LzFvtVnv1TtHi13a/aCq2MZQYf7P6X3SylLKoTcmHxUCXJUkg+lseNVHMvswi6/uu/4WRrTyym+kY/4C9a61y9BczICRdqxKYmsWRDXuaanKlijaceSEhllO9K3Bu5bL3Qu4P2qfQvIeD7rt0Nu6TJJ6zUhH/W+mHXlo8TDVZdeKcYdr6rJR4QzXcseWn8k7P7WK6e9Sk4zKMARDwodCp2BKXQImiORSGQH+la7IKbRtO8SrPmj+45L+rVf+ajyHStbfndku111d7vdALJ5+eLRuSuDXjFOcyjCkY8JHyIMqeSD5kkt7yBoTtC8ZMFK0Hyw+9bcXZSUgDzKL/zKR9ilOJ3abtdKPr+0fLS33a7ve7s4p8uClp8PvHtjSS+jEB9E8SBoTkagxjGQEQggkf0KVvJX5K9a6FvjzV/9Ppb7fzzGcMHn/dJf7c92u2Xlw2sAvlH5kF/50OTy8einCyogWpEdKGkaBfmgyUfIwVGKf1lAiWNIdnlHLIVO3cEu9iVX5mEaPvaCNRaJDPk9EUvnomjHMq/holp+VVxALPulXO6h+u/Cdrslnx7JjlftyEfoma41GHs4z8Pub+3cQfHEtyB9+SBoTqHTxUKnLYkkI5DGjwH0ra30rXkenYAUWoJ10b8cfL2k+/sWpF6L0Spt38R2uyWewXa7Tcrmr68+/c0PBytFTU6mAyjKB0U86tyMrkahE01GoGShE+rXeAuwjKbxQsfzMSSXEVAHMgKxSKT3bVlbkEj61hb61nHNGLs0SQGRcyanRVPKR3I7XgXebrfqcaew3a532fQx02X/F/RKuec9z5G0NcX5IMhHm4UOQfPghQ5B8xIDDkFzguartSNB80T7VrvcbX/FQ2kKiCQnLfQtH75DyHW+V1HseJXKdrve7+2i2u1trt9ObTXpZftTnHddPAiaEzSvcQwEzQNIZL+ClaA5QfMW+tbUbvRp8eU/pOIhdJncQilnu91Q8lF1lmEwt9tdhyEFFhBnL6ZI77J8hBwcJYLmLResURU6ddrRc6HTSjvGIpF1x3yC5uSvmmhHD+/heufGOPIWngGZtnH2C5NW+KhyA4WQI5GPigWQVXi3qLbb9Syb5Wa68pGZ034XrDw1Ocm9kEId+ag2MNT5tTyWjECdX8tjyQgEWAoU+tdyr+c5loxAnV/LY8kI1Pm1nPwV+asyElm7b71ZOy36TdICct67Dl7hpF/FIh9lFys1Jx/tbrdb3bDryofn9i73/D/MH527NNjpu+O9z5JsC4r1rokHYUgKnQErdAia93lbguYEzTvWtzp937k49+/MyjzZTAvqFItJbLdbtSxOYcerRLfbLfCxrw17ldiLKNi7Jh9tFjoEzYMXOgTNC48ZBM19nGeC5vStsfat2Q9jHYlLCYiTW9j/2BPfbrfE7Afb7cYhmyb3p6BXiXPPpWjvingQNCdoXuMYCJoHkMh+BStBc4LmLfStqQXNJ+5b79fdWXTb7z7GcJkn96QF2aofyF21k19lIIlTPmofN9vtemtvp/zGwIXrLpN+5SEh+Qg5OEoEzVsuWKMqdOq0o+dCJ8p2bEoiQ7ZjUxIZ8nsiguZRtGOwa/JHbt/547GOyqVmQOaPHnavpD+WHvrZbnfCExJOPqp4RRrb7U54zeW6IVjZanIytzMFPPIx9eMEzQma+yp0uhA0V/VjICOw7rhP/irxvrWfRAbqW81+EPPInFX4m4V+CtIAswyp7HhV5flR7XgV10zX0JAFExDd+e6nStqYIj5V8aDQodAZsEKHoHmftyVojkQORN+6XCOK8v4fNQTELQwuH15WD3Vhxyu22y3wdzZr2WY3BbxEdqKQT1U+2ix0CEMGL3QImhceKwia+zjPBM3pW1PqW/ML3Q4Ll8Q8Sg+X/YNsyC3Me9awfATKZLDdbmrb7U70lAfO+8zBKwIKyHaKcwc7qNy/JJYRCF3oBCtYFeY8R9OOTRU6dfp8T8cQ9YYBRa4Z8lfkr4q0Y4f6VnPfj320Lj0DcuFHDrlW0n1RyUfV0HmVsqYzO14lud3uOjjp3sDXyFMp6jsgH+yoE1mhw4466e9WFsvSOfJX5K98SWRHbvTp1FNuUd79vJaAyDlz0ny2241YPurHZVqSj/LtbbJ7Al8jT6Ow74B8UOhQ6FDoeC50asgNGQGPEtmvHclfdTpoPuFnsPlu10V3d09AJJmzi/wXCHWL0RIPs92ul+OOQjadCysgWY6ARC8eFDoUOgNW6BA0LzY+BJVIT8eARNK3+u9b/18Ko/dwlT8ayrILe728REHahHyEDp2z3W5x+Wju3i7Bl2CZ24YiP2b5aLtgld/3ICMQoB0lMgItt2M01yT5qziuSfrWgNfkmIbGv5vCCF5pBuSCjx52vWQ315aPqs9nu92CF0AY+ajXcfmQzdW/d/ZAsPLW5CRtSqEfo3iQEeCO5jWOgTuaNyuR5K8ikkjyV53uW00XuB1/cV9nBWTVMboLa8uHhxByp7bbLfVoYtvtypd8rP0Pbnmwq+OBD86SNI2CPzb56GCh47NIoNCh0PFW6BA0j0MiyV/F0bdGFDSfDOeSWH5VS0Cccxf5l4/6ofP05KNK/Z7gdrtV7KfATJeZVga7OsbyzSn4E5IPCh0KHQodz4VOjUKIjIBHiezXjuSvBi5oPjErtHxZ1Hc/X53hyn9o4xeNacgkubp1BNvtKuB2u9Y97vgAAEa9SURBVOrEdruTzXQ5l4e7B0ieb1rh2w1NisfUX8z6hU6IwauqkCcx6xGDRPbt2P0eQ3IZARUMgsfcjjFck3UL1lgkkr61G32rJOmn7nlXPZjKyF55BuT80VffLenqap1Tg/JRJchRST6Uxo5XiW63O/nTsoA3IcxnUvxHLB/cdXfdx7mj+RR/xh3NuaP5JI9zR3P61mT71jWe+u2URves1l+bLmpePko8XHXplWLc8aqafFjJBq38I0hLsukUcAYkG56OALQpHmQECJrXOAaC5gEksl/BStCc/BV9a3N96xo8omzkxwMjIM7+GkQve7I6td2uurvdbr3CIqx8PNpcvXA1cI8Aemvy0cFCx2eR0IlCJ1BGoNFCJ5aMAEFz8lcxSCT5q2b61gkr8h+62fOXDoyA5NmG8+S0pNAJDxRC9isfFYslK/n80vLR3na77d7bpb4i1cI5BCQ2+aDQ6VChE0BuGi90PB0DQfPA7UjQnKB5ycfjDZpPUq/k30lttK8lIPNH910u6adst+s5AN+ofMivfMiXfJiPQ6jZIAhIs+JBoUOhM2CFDnc07/O2SCQSSd9agHulB88bKAF59JR9t/z1H3q73ZJPj2THq3bkI/R2u1XaraxshjMQxKAp+Wiz0CEMGbzQIWheYhwgaE7QfLV2JGhO39qf77jZi8PdkiAQw/VfYsWPpGnLJc1oSj6s3AskIR/d3W7Xah1Fe/IBrYpHo4VOyMHRc6ETrGBVmPMcTTs2VegUfLzS96QpiQzZjlIasx6K/Jqsu70ufWs6fWsBXP6NFCuA2jMg80fnLjWnC1qXj8pBjo5ut1vx+UncWBK6LR8EzSMrdAZ9Rx2C5uSvJvgMBM0T7ltTDZpP+DrXa6fLfzmQAiJJWa7v+S9GSzzc5I5XqWy3W6EDi3m7XT+yCUnIB4UOhU5UhY4nuSEjELgdyQiQvyr5eGpB84lf6mvOpVkMDft4ETeW/9CmZeMTvV4Xt9st/Xy220U+oFinXfsa5K673NG84jFwR/MW2jEWiaxTsMYikfStHbqjefFBNR/+71QrAi8zIBed9Or7JM33V9/Gvd1uqXeLarvdKv1TujeWhETkgzDkuo8TNJ/izwiaEzSf5HGC5vStyfatlbjE7XrpjQMtIJLkzL7bTgg5ve12q//KUlc+POc+qjy/IdmEmMSDu+5yR/Max8AdzQNIZL+ClTuak7+ib22ub606vLokw+feBWRsPP++9Ne7UscUQu7ejlcW6Y5XNaQL+eiofHSw0PFZJCQRhuSO5mkUOgTN45BI8lf0rWW+z5VZrvHh7yIgki478TV3yFbthhVTDiA5+ag/idCSfNRrb+RjwOSDQkdphCG5ozlB8xrHQNB8Yon0/aOL976131hM39rarMdfX/5/3W7z/4KAPIpz7ivx5gDYbjdW+YCuiQeFDoXOgBU63NG8Zp+PRCKRg9S3emDIvph6teBVQDbLVvxAsnvK18QR7ngVfLvdKl7BdrsQu3y0WegQhgxe6BA0L9znEzT3cZ4JmtO3dqlv9YTTddpx0WUIyGqcMzp3paT/jks+PBdS3uQjdOg8xu12SzyMfCQmHoQhCZrXOAaC5gEksl/BStCcoDl9a3N9q9cx94up3vsjmICsekX7z6oFb5o7XrHdbtuyCW3LRwcLHZ9FAkHzSAodgubkr3xJJEFz+tYy32evrNSKoaR3vwomIPNHX/07Sb/s384FG4ztdtluF9KUDwodETSPqdDxdAxkBAK3IxkB8ldd6VuD8D/uuZfdow6QBXlVs6+UlQ8fzch2uwHkI+LtdlGUNsWDQodCZ8AKHYLmKjuuI5FIZPClc10Omk/41u5LXakkggjI8Mrxb5v0SG35GPDtdstX3AnveIV8JCQfbRY6hCGDFzoEzQv38wTNfZxngub0rRWu+a4HzSfmD3r2gksQkCm48JS5Dzqn71aocSsXpLW+HJFut2sejjuZHa+qfDQspGHxIAxJ0LzGMVDoBJDIfgUrQXOC5vStzfWtwYfhL3UhfB5UQCQpc+5zbLdb9fvbxHa7oUPngbfbtQg6g4GSjw4WOj6LBILmkRQ6BM3JX/mSSILm9K1lvs/BWa6x7GtdqiyCCcjFo69cJOmK5uTDc2HlTT7YbjdIeyMfccgHhY4ImsdU6Hg6BjICgduR/BX5q670rQ3h9K2uhM+DC8iq8+U+3Zx8NLTdbqlHE9tuV77kI8KZLqggHhQ6FDoDVugQNO/ztkgkEknf2gp59umuVRlBBeShu+46R7JbPdT3LctHlc+Z4Ha7VewniRtLgrcvOUHzgoUOQfM4Ch2C5nFIJEFz+tYu9a0N43SB2/myqxGQElz1xaPHzNx/lGvWDu54VaXkY7tdT+0N5dqPMCRB8xrHQNA8gET2K1gJmhM0p29trm9thbO6WHFkod9g5vD0z0r6i8+CtFYxGumOV/HJR+jtdks+HfloQD5CFjqEIeModAiax1HoEDSPQyIJmtO3lvk+t8IftNPCnyEgFThv9OCHnLPPRRFCDr7jFdvtFj/00DNd4E0+yAiIoHlMhY6nYyAjELgdyQjQt3alb211eD7LOeUISEVWZO7ftPqNCevKh1Xf+amL2+3W6wAblI8m7+0CBc8rhQ6FzoAVOgTNS/fpSGTTEjmA+SuC5hPxgPL1v9HVCqQRAVk0+uq75dyX/chHxULLSj6/tHy0t91upaVXqWy3y45XAeWjzUKHMGTwQoegeeE+naC5j/NM0Nxf31rhmid/5blvjWKY/rzb9fyHEZCa5OP5SZKW1ZePBne8ikY+5Fc+5Es+2PEqTfEgDEnQnEInLonsV7ASNCdoTt/aXN8aBSvUyz/b5WqkMQG57MTX3CGnz8e/3W7ZP+jCdrtVzIsdr9KUj5CFDmHIOAodguZxFDoEzeOQSILm9K1lvs/RjNdfds+5/DYExBMuGzlR0pKiBSnb7YaXD1PFc4t8dEs+yAiIoHlMhY6nYyBoHrgdyV/Rt3alb42KMWU6tetVSaMCMn/0sHsl+/dGQsgpbLdb8flJbLdb9UiRjwBnlkKHQmfACh2C5jX7cSSSoLnna56geXGc+0+306KbERDP9MannybpvuIFaYe3263Q+SWz3W6J2Y968pELYi10CJoHL3QImhfuxwma+zjPBM399a0VrnnyV5771igZUzbe+dmPVgRkwcmHPiBz/1q8IPVYdHmRjypvx3a7YdpOUg/NiLfQ8Sg3BM0DtiOFDkHziu1I0Jy+Ndm+NVKcvux2/PlNCEio8zuyyX/IuWv6X2Ohcx8xbrc7xSux3W7REzLg8hGy0CEMGUehQ9A8jkKHoHkcEknQnL61zPc5WsaU9U4ZlGqlFQGZP7rvuJn9Y7vyUeUSSHDHqyrPT2K7XeSjnUKnX0MShiRo7qsdCZqTv/LVjuSvyF8lMYR/ZVBmP1oTEEm69BOv+aHkzm9PPmpst1vw+XHueBWjfFRvbxIgFDoUOhQ6SOREb4tEEjT30bd2IX+VBCs1ZCcNUuWStfnmbnj8HZKWJ7fdbv1JhJbkI1AmI+EbS3ZDPtosdAiaBy90CJonVOgQNI9DIgmaN/djAEFzP0O5fWYQdr6KRkDmj879o6TTan2R2G7Xn3xUDZ1XOVLkw8OZJAxJ0JxCJy6J7FewEjQnaE7f2lzfmgz3K7MTB62Kydr+ACsf7p0k0w1xbrdb5bvOdrth5EPIR2OFDmHIOAodguZxFDoEzeOQSILm9K1lvs8pDen2ETf78vsRkIa5/Ky5y5y5Y8p/m5rYbjd06DzG7XZLPNzkdrtmlc/YQMkHGQERNI+p0PF0DATNA7cj+Sv61q70ranhfq97p31pEKuZLIYPccmJr77AyX25VBFWZbvdUo8O6na7oUPnyEd18aDQodAZsEKHoHmNdkxBIiPPXxXqW7mjeTx9a4r0TnD7zh9HQFpk+ciy90q6xb98VBECttsNIx9VC+9Bh0KHoPmAFjq+xcBLodPBjEBrElnzGAiai/xV0mP7j9yzL//ZoFY20QjIFaNvfMiZHe1fPmqGzlOQD/Nxqca93e5gaghhyIEpdAiai6B5kxKpDkhkgB9d6FsT7FuTZVzOfUgDTBbTh7nkxDnnSfp85T7Nt3x4jmg0Jx/1Q+fIRwzyEbLQIQwZR6FD0DyOQoegeRwSSdCcvrXM9zlhnH3WzV64GAGJ6QONLDlB0tWTVeixbbdb7vJIfMerKh8N+fAvH2QERNA8pkLH0zEQNA/cjuSv6Ft9tSNB85rcrmUr/kUDTnQCMn/0rct7mY6UtKw5+ajy3W9iu93QofMw2+2W69BLN1/HxYNCh0KHQgeJDCTrrUgkQfM4+lbuaB4Nzo5zz7vqQQQkQhZ+/LWLnXMfrFaGst1u1Y/hPffBdrv+2puguQiaU+g0V+hwR/PmfgwgaE7+aoBGfaez3exFPxDEKSCSdMknXvMZOfs62+0WOeKObLerijNdyYsHYUiC5hQ6cUlkv4KVoDlBc/rW5vrWznCv8vF3oR6RC4gkzVi+7DjJfsd2u3UKAqWz3a4FaeTI5SNkoUMYMo5Ch6B5HIUOQfM4JJKgOX1rme9zh3DuOLfzFXehHgkIyPmnv/lhZdmrJf2lcDEXbLtdsd1uYfkgdF5bPsgIiKB5TIWOp2MgaB64Hclf0bf6akeC5p75upu94By0IxEBkaRLP/Ha6yV7o6ReMPkoOPsRn3yE3m635NMbk4+UbYVCh0InlkInloxAzWPgjuYif+WjbyV/FU/f2jlu0djIP6AciQmIJF124twfm3PvaVM+BnO73RLPQD7qmR2FTjcKHTICDRc6Aa6XxiXS8zGQv6rYt1Y4BvJXnvvWTjIu5450u83/C8qRoIBI0oJPvvbTkj5TTz6qXAtd2PEq8Ha7VY97YOSDMOTAFDoEzUXQHIlEIulbkY/HcB9xsxcsQDcSFhBJ2up6O8HJzq0uH+1tt1tp6VUq2+1aE9vtpiwfIQsdwpBxFDoEzeModAiaxyGRBM3pW8t8nzvLeZq94DRUowMCcs45c3tjy/Q6meaXv1zYbjeMfHguygdJPghDiqB5TIWOp2MgaB64Hclf0bf6akeC5sFwulFDY29yTjmq0QEBkaTLz5q7bOX0Fa9w0pWDtd1ulXq3CztepSgfFDoUOrEUOgTNW5dI39dLaxJJ/iqOvpWgeQIsVS9/hdvxF/ehGR0SEEm6YvSND2Urxg+SdE3/y6Yr2+3Wy2R0cbvdOLs3Ch0KnZgKHXWg0AlwvTQukZ6PgfxVoHYkf0XQ3EMRYHqb2+Xy36IYHRQQSZp/xpH39saG95X028LyUWW73YrPT2K73apHyo5Xg1HoEDSn0EleIvv9GIBEIpH0rc31rYOgH/ZRt/PCszkRHRYQSVp0+qvvlrSfpN8E2263wsWWzHa7JWY/YpOPuLo5wpAEzVMpdAiaEzT3JZEEzelby3yfB0E+9AW386JPciIGQEAk6bKT5t6zQsP7Sfq/elLOdru1j6GaS3RbPghDiqB5TIWOp2MgaB64Hclf0bf6akeC5g3xQ/1+m3dwGgZIQCTpFye9+r7h6fobST8tVvDUlY8+41sr8lHi4YS3242nq6PQodCJpdAhaN66RPq+XlqTSPJXcfStBM2TwnSh1h95nZt7To+TMWACIknzR+cufWC6XuFk3wovH55zH1WeP4Db7U78z21c7xQ6FDoxFTrqQKET4HppXCI9HwP5q0DtSP6KoLlXFigbeZV72vzlnIpyDHfpYBaPzl0p2Zv2/sezb5P0gSTkw3xc1t3fbteqnNsmxSOqQqfuF85jodNKwRpLoVP3Gkxh6ZwCt2Xb7ag+BWsT16THY4h66Rx9axo/BsBqLJQbOcjNnr+UU1GerHuH5GzBSa/7oExHSnqk1KWUyna7VXa8Sni73Tg6QsKQBM2bLHQImhM093wMBM3pW5EPj6WmLpAbeTnygYCsw4KTX/ftTPnekt3s52JKQz683l8j2h2vIpMPwpAiaB5ToePpGAiaB25H8lf0rb7akaB5w3xXM0cORz4QkEm59OQjfjWW5XvING/ti4ntdkPIhwZMPih00ih0YskIEDQnaB6DRJK/iqNvJWieJM59WrMXziHzgYD05YoTj7xrwSlz95O5d0sa68Z2uyUebnS73dA7XnkJzPhxEgqdhAqdfu1I0JygeVGJ9HwMBM0DtSNBc5ZceWdcch9ysxf8g3PKOR0ISFFltQWnzP2Uy93eJt3g4xprd7vd0KHzBLbbbVM+uOsuhQ6FDhKJRCKRnexbmfWYgPvlspe7Zy84hVOBgFTislPn/mJ8xvhuJn1RE06FFLvQ2W7X03FX3fGqjb6RMGTBgjWFQoegeTqFDkFzgub0rc32rbAGTlcpd893sy+7iJOBgNTiitE3PrTo5NcfrZ79jUnXNyYfbLdb6DNFKx+EIUXQPKZCx9MxEDQP3I4EzQma+2pHguaNj/zOfVrTZu3ldllwA6cDAfHGwtOOuGzaetlzzXSGpLHm5WPAt9u1Ck9sRT4odNIodAiax1HoEDSPQyIJmsfRtxI0T5Q75dzBbvaCf3Dbn7eC04GAeGf+6Nyli059/fuG8t5sJ/fjavJRZRxiu91i3WjbnWKvwPFQ6JARkMgIFG1HgubkrwKIQbR9a8FjIGgeE+doaOzZbvaCn3IqwjLMKZAuPe0N10s6dK8PfPtw53SySTsWl4/QofMw2+2WGwwq1DK+5SO6fpK77nJH86JfzAG4o7lZ5O0ocUfzln8MiEoiB71vRTwm4AZl7mi304ILORXNkHEK/srCU4/44YL1rnu2c27u1PmQpuSjxMNVl16x3W4F8SAMSdC86N8PSNC88t83JZEEzQma07ciHxOyVOY+pvVHZiMfCEi7jI7mC05+/TkrHnhotklHmemPdS/iTm23qwHZbjdYwUrQnKC5r3YkaE7+ylc7EjQnaD5wjMm5z2lltp3becEoNxZsHpZgTcJVXzx6TNKXNDr65b2XPfMQM/dBk/YqdBFbhYs+le12reTzS8tHy6Hzyp02yztY3lGjIA5V6LTSjh4kkqVzamTpnGLPetC3NtOOA8VKOft/kv2rm335HzkdCEi8jI7mC6RzJZ37wvf/v70y9Y6R02slzajUl1UoeNPcbrdKd1pWPqxvTDy8fFDoUOhQ6Ay0RJK/QiKT7lsHBOcelPKvarx3utv1ils5IQhIUvz8tNctlLRwn3f/1/Fj06a90eTeJuk5U/dlobfbLfn0SHa88iEf7XerFDoUOhQ6SCQSiUSm2I4Dw7Uy93m54S+72fOXcjoQkKSZ/29v/Yukf5f073t/6Fvb9Xo6LFM2x2R7+ZYPK/cCSciHj+122+1arVJbplWwplDoBBCDxgsdj8cQdaGTwva6ivya9HAM0e9WRt+KfHjhTjl3tpx92+208OdUrQhIJ1lw8htukPQpSZ968Xu/uVM+lL0iNx0g2YskTQsiH5WDHF3ZbrfNzpVCh0KHQid6iYyqHZHIgZPIYO3oo2/tLDfL9FMNuf/R77ae5+ae0xMgIIPCZWe88RpJ10g6aZ/RszdYvnR8X2W2vzO9SNKukkYKj8ue5KPWjldRbrfb5tIrlnewvMNHQZxCocPSuTR+DGj5mmTpXGIS2SGce1Bml8t0kbLsJ272ZddQhSIgoFV3Wdej4XVJ2n30CzNnPDxz99wNvdBye66TdpK0g6Rp0e54VeX5QbfbnUA+8pbEg0KHQodCZ3AkkvwVEpl035o8j8jp9zL9Vk4/Vy9fpJ0vX+xcMxUAICBJc9Xo0Y9IuuzR/0iS9hmdNzz2yK1P7/Wy2ZKe6jI9NZee6syeIulJkjZ9vI2i3vGqie12rdrKh9blg0KHQiehQoc7miORAyORg7J0LglySfdKuk3Sn+XczVJ+s6Q/Kdfv9OxFNyIbCAh4ZP7ovuOSrnv0PxOyx/HfnOWGhjbVyPimsnzTVZdqNtPJpq96RrZh7mzydnSP/5+C9NaYVSjzlxM9Oe/35EKrNPNJP4vlbkGjjUZGoOFCh6B5M4WO/lWy2/pf8G7qvqPCQ8VfP6/5GhWXhLtAnzH3+Bknen1X5zO6KU6hx8+oAJ9xsvPofH7GvOBHrXi9FP7cTtGTa1yZlqz6uG5MslU7UY3rAVl2v/LsAbfb/L9QEQ4ejlMAMEnJdue7j5DZf/svWGOQD4LmSORqj+dDu7inf+u3XPUAANAEzIAAlHIFlnewvGOSxzsZNAcAAEBAAFqSDzICweWDjADyAQAACAjAQNPTo4sUCZoTNO+QRBrmAQAACAhAxJARIGjuox1TkUgAAAAEBKBFHp8CqVDsNSgfUd91l6B5GhK5kssdAAAQEIB4ISNA0DwViTRfdwEFAABAQAAGUz4ImheTA4Lm3D0ZAAAQEICBFg+PRTFB8yn+maD5qod9CBIAAAACApCofBA0J2gei0QiHgAAgIAAIB+15IOgeRzy0QWJBAAAQEAA0hETguYtyQdBc4LmAACAgAAgH/6KYoLmU/wTQfPgEgkAAICAAMQsHh6LYoLmU/wzQfNVDwdcOgcAAICAAMQuHwTNgwXNo5r1SEEifRwDAAAAAgLQffngjuaRy8cASCQAAAACAhCRfJARaEk+CJoHXzoHAACAgADE6yHei2KC5lP8E0HzZiQSAAAAAQGIVDw8FsUEzaf4Z4Lmqx5ue+kcAAAAAgIQm414LFibkA+C5gTNkQ8AAEBAAAZHPgiaRy4fSCQAAAACApC0eDQhHwTNCZr7kkgAAAAEBKBFepKcn2KQoPkU/0TQPA6JBAAAQEAAIoZfywmaezqGOJbOLbA/vbZXXSL7kUfejgG/774ezwPlr0pfkyXaObb8ldnH3bMvO4vxCwABAeimeLQqHwTNCZqXlshZYQrWCscQnUSSv0rjx4ACr+G0HmMYAAIC0E35IGhOoYNEIpHNS2TFazIhiQzZtwIAAgKQlnikUOgQNE+jYE1BIlk6F/yaJH+FfAAgIADIB4UOhQ4S2UQ7IpFIZJN9KwAgIACpygmFDoVOGkHzGu2YgkSydC4OiUxh6RwAICAAqYoHhU7kBWsMhQ4ZgTQkkvzV4EgkACAgAKnKB0FzCh0kEolEIv1/V0L2rbkAAAEBQD6aLVhTKHQImqdRsKYgkeSv0vgxoMlr0jGMASAgAImJB4UOhQ4SKYLmSGS3JBIAEBCAWOWDQidgwZpCocPSuTQK1hQkkqB5PH0rACAgAJE7CIVOjAVrCoUOGQEkEomMSyIBAAEBSE4+KHQodJBIJBKJjK8di14zAICAAKRvJBEVrCkUOgTN0yhYU5BI8ldp/BgQi0QiJwAICECnxINCh0JngCWSoDkSmbREAgACApCcfLC8g4xAKgVrChLJ0rk4JHJQls4BAAICgHzEUeiQEUAikUgkstMSCQAICECU9DT5jasodCh0kEgkEolsvh199K0AgIAAJAcZAYLmqUgkGYHg1yT5q8QkEgAQEADkg0Knk4UOQXMkEomMSyIBAAEBQDwSLHTICKRRsKYgkSydi0MiCZoDAAICMKDyQUagO4UOEolEIpHIBwAgIAAh5YNCh0IHiUQio5JI8lcAgIAAdFdMyAhQ6CRRsKYgkQTN0/gxIBWJBAAEBAD5oNDpZKFD0ByJRCLjkkgAQEAAEI8ECx0yAmkUrClIJEvn4pBIguYAgIAADKh8kBHoTqGDRCKRSCTyAQAICEBQ96DQodBBIpHIAZVIguYAgIAAxCQfBM0Hp9AhI0DQvMYxkL8KIJEAgIAAdJGeJEehM9iFDkFzJBKJjEsiAQABARg4WN4RR6FDRiCNgjUFiSRonsaPAQCAgAAgH/EUOmQEAhQ6SCQSiUQiHwCAgACkKh8UOgkVOkgkEhmLRJK/AgAEBADxqFSwUuikU+iQESBoXuMYyF8FkEgAQEAABo4pU+gUOp0pdAiaI5FIZFwSCQAICAAkWOiQEUijYE1BIlk6F4dEEjQHAAQEAPFostAhIxCg0EEikUgkEvkAAAQEIFX5oNBJqNBBIpHIWCSS/BUAICAAUKlgpdBJp9AhI0DQvMYxkL8KIJEAgIAAAIVOJwsdguZIJBIZl0QCAAICABW8hIwAGYEi7ZiCRLJ0Lg6JJGgOAAgIADRZ6JARCFDoEDRHIpFI5AMAEBCAZMWDQiedQoegORIZi0SSvwIAQEAAopUPCh0yArFIJEHzNH4MSEUiAQAQEICGxYNCp/WCNVWJJGiORCYtkQAACAhAVQOJuGBNodAhI5BGwZqCRBI0T+PHAAAABAQgHjkhIxCg0CFojkQikcgHACAgAIgHhQ5BcyRyYCTSa/7qYUl/kOxGyT0gaamcPaxcTpk2UK71JW0qp+1keqakGc20I/IBAAgIQKLyQdCcjEAsEknQPA6JzK+RuYvldJFs+P+004W3OFes0jdTpute8lT13PMk7SfppZK2b0ciAQAQEICGxSOFQoegeZQSSdB8ECXyOjl9TeO9b7qdL72laq/knHLp0hsl3SjpHEmy37706crG3yTpTZK2Qz4AAAEB6KR8kBEgIxCLRLJ0Lg6JnPQi+qEyneZ2mLcwVG/ldr74T5JGzfQxLf6bfeTsg5IORDwAAAEB6LJ8kBEIUOgQNEcik5VIk3P/K+c+7na46Oqmeq5Vy7gumSdpnv3ub56vLP9nmQ5FPgAAAQGImp4kl1Kh47lgjUE+CJqzdC4WiayUv/qjlB3ndrzogjZ7MvfsS34p6TBb/JKXSvl/yPQs5AMA2iTjFACUpUihY33+vuTjIYPm5ukzrlOwBg4oF/o1vsIxFG7HWCRyKvnwdAzB27HOd20KOQi55Mqm/IdxORuVbT7b7dSufKwhIrMvvVjLlj1Xzk6TlJc/zwAAfmAGBKCufPBreXMF6+MPEzQnaO6jHQNck053y+wNbsf5F8bYg7nnXfWIpA/Y4pf8VJb/t6QtEQ8AaBpmQAAKi0edX8sr/Iob3a/lBY7BYv+1fIp2bDSg7OkYWpXIGsdgAWaXKklkiWPoP+shSfO1cmRnt1Oc8rGGiMy+9GJZ9nzJfkn/DgAICECU8hG6YC1d6FQr1qZcclW3YA2wjGaNh5ooWFOQSHVAIgPITeMSuXZFrx9qw+UHu13PvzuVns3tfOkt6q2/r+R+Rj8PAAgIQOzyEaKgrFywpvBreY1jSCYjUEciSxxDtBLZrx1TkMjK+auvaIfNX+2efPmy1Ho4t+v5D8s9cLgevY8IAAACAhCtjxA0jydoXkFuCJoHkMh+7di5oPljJfx3tOPfvN25c3qpdmtu9uKVumabI2T2fTp5AEBAAGISj9YLnQrFWrIZgQDneUL58HgM1pZE1jyG0BKpDkuk2TyNTH+Lc6N56l2cm3tOT0vsSMktosMHAAQEIAb58C0GZQudKsUaQfNmJdLreSZoHodETvn312ho7BVu+/NWdKWrcy+6fJlGhl8h6c90/ACAgABEIR+exKB8oVPuMxA074BEqgMSGUBu2g6a/5XlynWk22Hhkq51ee5Z8++Vy+dIGmMAAAAEBKB9C2mj0BFB8xpyQ9Dcs0QOdNB8tSo9f5d79rzfdLXHc7Mv/4Wc/oW+HwAQEIDo5IOgee1jIGheUCIJmgf7MaC0ROY/cTte8qXOd307LTxF0hWMAQCAgAAkISa+Ch2C5gTNPR0DQXNfErlCbviEQejhnFOuLDtOTj0BACAgAG2LB0FzguY+zjNB8zgkspTsn+x2vOgPg9LbuZ0u+z9JXxIAAAIC0KZ8lCiECJpP8hBBc4LmMUlk4WO4T9LpA9ftjdu/SHqE/h8AEBCAKOXDW6Ez9eNRZwQImhM0j0Eig+Sv/s3Nnr900Ho+t+uiuyV9hTEAABAQgEbFI4Wgec1jIGguguZF23EQgubrPL5E4+OfHdxucOhUSSsZDwAAAQEITr+bGxM0J2g+QBKpAZZI09fcLgseGNSe0O186S2SfsCYAAAICECrEDQnaF7ycYLmNduxoaD5xEPlNwa+y3P6Jv0+ACAgAOElI2++0JEImk/xeIpB82D3aFHaQXPf57lWO055DNe52Rf/YuC7w2XLz5N0b9oS5dhSGAABAYj+8ljRcKEj7mgudS5oHqwdCZo3IpGm/0dfKLnnXTUm2XfTPgpbQUsCICAAcZM/FrrkjuZ9HydoXlAiCZp7vV6akEhnF9EZPnZK3MVpf34EBCAWhjkFAJPgbEX4glVKY9aj38MxBM3riIdniWylHT3IR+vtGItEPv7/LtO09a+gM3yU3OZpyJkkl+YBZAgIQCxXI6cAYNJCZEX4QoegOUFzXxJJ0DzATOTlbvvzKFof5dF7glyTbsXDDAgAAgIQ/dWRPdhgoROgYCVoTtC8qEQGkJu0guYTS6TTb+gI1zlXVyf82ZfSfgBxwBIsgMkYW3G3spEwBauqikdR+QhUsEoesh5KpGAteAwsnesjkZ5fP6RErvtdv46OcO1zkv1BztL87D3dTQMCxAEzIACT8bTxe7XG3Qi5GR1B87U+I0HzKf4soaD5ZE/LMwRkbZzSPSdDdg8NCICAAMQ9zrpzepIe4I7m4o7mXZJIIZGFJXIkv5mecO2qwW5M9rOvnH4vDQiAgAAkgN3ZSKFTR24ImougeRGJJGheWiJt5CH6wLVPT5bqOVmp58x/kAYEQEAAEhhsdUMjhU7lgpWgOUHzohIZQG66EDSf6j3yO5fQCa5zjlINct/qnIz2A4gDQugAU+H0x1qFVIpBcy/iIRE0b7kdG5VIz6/fZNB88gfG3OzFK+kE16KnJUn+dOn0JxoPAAEBSAS7Yc17bnEzugG8GR0SOZgSmejN9gIz1HOyBA3E7HoaDyAeWIIFMOWg5a7/a5FC0JyguadjIGiuBHYrG7Yb95lBJ7i2lrkN0/zczIAAxAQzIABTMTT2W+X9LpO6v5YX+BXXAolBY+IR4D0an/VoSiJrPG4BZpeia8eSElnn78d7G0paTke4BmkKiGXMgABEBDMgAFPgnvKd2yXdUajQIWg+yT8TNH9cDgiae2jHBncrW96bRS+4FvnQRml25tzVHgABAUiL/ytf6MRyM7o627LGcjO6OtuyxrJ0LsA2xklJpKUpkUMj29H9rXOenp7gh77XzV7wZ9oOAAEBSGi8dVeVL3RqiAF3NJ/4ce5oPkk7ckfzYBKZ2zPpANc5Kdsn+KGvpN0A4oIMCEA/XP7zv26Iw7asjW/LGmppW6vt6EE+2K1MwfNXTgjIOufEPTO5u2mYfkXDASAgAGmxfPoCzVgxJmkkXEEsguZRFKwpSCRB8+Yk0najA1zn+7dbcjsUZ/o5DQcQ22UJAFPidvjKEkm/JGg+1T8TNH9cDgiae2jHBoPmU0vkHnbl7jPpBR89K9futY3k0lqC5dTTypFLaT0ABAQgRS72LgZrFjo1CinrU7ASNCdo3oREJho0n6gd//qUaVpv5p50f48yZi9Nz5p0pdtt/l9oPAAEBCA9LL/QmxhMXOj4LYq5Gd26n5GgeWCJVAckcqJ/tv3pAB/Fuf0SFJCLaTgABAQgTbYdXyC5e4IWOr6KNe5ovm7B2spuZbEsnasjkbEsnasjkTWXzjm9ziy10EOAOn7VXeFfmV6VYxcygAEgIABJ4tw5Pbn8B2lkBAIsBQr9a7nXgrLRjIBfMVj9exJCIqNaOteURPZrx76S+TRds/deA98JPrLyUEkbJ/ap79Pd08h/ACAgAElryHeDFjoEzUXQXATNY5RIy9808N1frjck+KnPdfvOH2fsAkBAANLl4ZUXSXogaKFTtlgjaD6xfAQrWAmadzBoXuAzujfYdftsPqhdn12993Zy7tD0PvlUPxoBAAICkMJQNvuclTL9d9hCp8TjBM3X/YwEzQNLpDogkZVkf32NjR0/uJ2ffUDp3TdsidYfvoCRCwABAUifIf1X4EKn2OMEzdctWAmaV5RIgubFPqPeadfuteGgdXl2zYu3ltPfpidNOts9bf5yBi0ABAQgedxT//sqyX4dttAhaE7QvMYxEDSfWCJrCZgkaVP19KGB6/Ss9wlJMxIUkP9kxAJAQAA6ZCH2n+EKHYLmBM1rSqTv81yrHVOXyHWe/l77/d7PHBj3WLz3HjL3lgQ/+mK308KfM1gBICAA3eHh3te0ThidoDlB8wKPEzRvSCJ95K8mZLp6+vRAyIcpk9m/J1onfJmBCgABAegUbvY5SyV93l+hQ9CcoHlMEqkOSKRqfsYp//5A++1ex3S+o1u814clPS/BT75EYyP/xUgFgIAAdA/TpyRbTtCcoHkaEknQvNhnLPorhM6y3+29a2e7t8V77yHpo2l+evclt9v8vzBIASAgAJ3Dbfftu2T2Te9i8HidRdCcoPkUjxM0n1giawlYKWZI+nYXd8Wy/3vxFjI7W9JIgh9/XFk+EEvkABAQgIFl6BOSVpYvdAiaEzSvKZG+z3OtduxY0Lx4qb6jevpfWzx7Wmfk48rdZ2pafq6kpyR6BOe4nRbdzNgEgIAAdBa33X/fLOlLXoo1guYTy0ewgpWgOUFzH/WuXibb5Gtm6Y+ldvacIa0345uS9kizQ1ZPbugTjEwACAhA9xnWiZKWETT3fAwEzQNLpDogkar5Gb2V7q/X7/b6j5QlxK7cfUQ73f51mV6VbF+cu6+72Zddw6AEgIAAdB73lO/cLumMyoUQQfN1C1aC5hUlkqB5sc8YoiPQ0bpmr/9OcTmWXbn7TE2f8X1JRybcFa/QUP4xRiQABARgcJg5crKkW0oXrATNRdB8iscJmk8skbUELGQlr9fJNj7XFu+5aTLysXifrTRjvQvkdHDivfDnyH4AICAAA4Xb6hsPy+kDpeSDoLkImveRSN/nuVY7DmrQvDQHyLJf2zV7vTB6+bjmRS+Rjf2fZC9KvAu+W7n7V0YigMRqJ04BgKcB/YbXzZNsn7DioUQK1oLHEPWsR7+HY1g6V+d74lkiW2nHqORjdVbK2T9q8RM/5eae04uqn7py9xHNmPEhSf8saTj9jte9ze284CuMQAAICMBgCshNc56m3P1W0vpxFqwxyIf1eaqnY4j6zvRIZDPtGAW/lnPHuNkLroiij1q8994y+7yk2R3pdn+p2Qtf6JxyRiAABARgcCXkhrnvlXR6fPJRt2D1+B5RF6wpbBigmm3ZtkQWOAbzcR6iGWV7MvcVDY2f6Hb8+U2t9Eu/3/uZyu2jMr2hQ+P+mJy9wM1e9GtGHgAEBGCwBcTmDOlGLZTcHs0UrE3IR+iCNQb5KJAlqSMvkz0eVTt2RSKjLpi/oSw7xe244A+N9EfXvOjZ6rkPKdPrZRrqVmfrPuZ2XjDKqAOAgACAJLvxNTsoH7pSsvXDykdCv5YHK1jl4dfytmc9kMgBkI+1D2ShpK9p+vjZbvsrHvL64ov33FQ29HpJfyvZCzrazf5Ky5fv4Z531RgjDgACAgCPFQF/eu1bJfcVb2KQXMHahHwQNCdonjwrJC2S2UUachdpZNav3PbnrSjV1yzacz1tlD1PudtPzvbTqjuZj3S4e12hPH++2+Xy3zLSACAgALCOhMz5lta5uRdBc4LmSKS/duzciNyT6SaZrlNm18u0RMqWyukByZzMbSxns5RrQzn3TMmeJempAzWWm/2D23nRpxlhABAQAJhonLz+DbOUrbxS0vbNyAcZAYLmsUjkgAXNoSm+q9kLX+scXw6A1OFGhACh7H77bz2kLD9csgfTuKO5yn/GiR7njuaB25E7msNA8me5/O3IBwACAgD9JORp/3utzN6iYknkCf6ZO5o/Lgfc0RyJhEHlEeXu1W725fdzKgAQEAAoIiHP+N/vS/pYoWIrql/LS8hN0IK1zmfsN+sRQAy8S6R1QCLNg0TCgGJy7i1ulwVXcSoAEBAAKMN2//Ovkn11ymKtcMFaoeAMUrBOJR+ejiH4rIfn2aUgEqkOSKRqfkYYWJxG3ewF53AiABAQACg7hjqZlmdHS7pg6hrO81KgaDMCdX4tr3kM3mY96khkLEvn6khkE0vnYLCxb2unhR/nPAAgIABQVUJmn7NSYytfI6dfTVzDkREgaJ6SRPZrR4LmUIuLNX2jtxI6B+hoTcQpAGgWu+HwLWUjl8j0LD/Fni/5KFiwBhEPcUfzJtsxaokE0C/lRl7qZs9fyqkAQEAAwJeEXDfniRrK50v2jLgL1ibkgzuac0dzgMe5ViMjL3bPmn8vpwIAAQEA3xLyx1c8WW7oEpmeFqd8cEfzYnLAHc2Z9QBPFcl1GtJL3Q4Lb+dkACAgABBKQm585bbqZRdKenpzBWuJ9+CO5lP8M3c0X/UU7mgOXsqR38sNv9TNnn8n5wIAAQGA0BJy7eHbaHjoAsntREbAw+ubRwGb9J/anvXoikQCSJKukRvZD/kAQEAAoEkJufmQTTQ+/TyZ7dG6fBA0j1w+CJpDp7hSK7OD3XMvu4dTATA4sA0vQAy/BDz1xw8oX3aAZBdOXMxxR3PuaF5SIrmjOcTP+XIj+yIfAAgIALQlIduf95D+8oSDJffVSYs57mg+wcfjjubNSaRqfkaAx3u878j95TC22gUY0B6AUwAQH/anV3xQ5k56/BolaD7JQwTNCZpDat2bZKdq9qJ/ck45pwMAAQGAmEbpP77idXLuy8q1frMFawzyQdC8OxIJ8DgrZO7tbucF3+BUACAgABCrhPzhlc9Rpu/JtK3XopigeeTyQdAcOldt3Ca517jZC67gZAAAAgIQu4Rcd9jmyob+n2QvrVcMckdz7mjuox2RDyjNPPXs9W7XRXdzKgBAIoQOEP+vBM869149Y+QAyX1MUq9awUnQnKC5r3ZEPqAwJuc+reXLD0Q+AGCN2oZTAJDQaP6nV+6n3L4paatSBSdB8yn+maD5qqcQNAev1cU9yt3fuZ0X/IiTAQAICEDqEnLjwVtpfPirkg6sXrDGIB8EzbsjkQBrVBYXyGV/63a67A5OBgAgIABdkRCT0x9fcZxkp0qa2WzBKoLmXuSDoDl0jhUyfUTPXniGc3x5AAABAeimiPzhkO3khr4uaa9m5IOgOUFzgAn5jZy9xc1e9GtOBQD0gxA6QMq/IDzzxzfo1of2kendki2ZvG4kaB5EPgiaA4xJdoqWL38+8gEAhesXTgFAN7AbDn6qxoc+K+mQ5gtWVX8PgubrPk7QHJKoIOwSyb3DzV64mJMBAAgIwCCLyPWHHiZzn5X0ZILmAeSGoDnAHZL7kGYv+AZZDwBAQABgVTn5mwPW13rTPyrZ+yQNVSo4CZqLoDnAGozLuf/QtLGPuu2veIjTAQAICACsW1ped+gL5PR5Sbs1V7ASNC/1OEFzSIOL5bLj3ezLruFUAAACAgBTl5g2mukPV75RTh+X7CmtyYcX8SgiB7HPesQgH4gHFOYWmd7ndl54NqcCABAQACgnIovnTNPII2+R9AlJW/gvWAmaEzSHDnGf5E7TQ71PuxddvozTAQAICABUF5GbD9lEK/RBSf8gaQZBcx/iUeI9mPWAuFkq2We1fMVJ7nlXPcjpAAAEBAD8icj1Bz1JuT4qubdpwqB6zaKYoPm6jyMfEC+PyLn/1Hj+Sbfrors5HQCAgABAOBG59uW7yGX/JOm1fxURguZe34OgOcTLCpm+qGzkRDd7/p2cDgBAQACgORG55tDtNZR/QLI3S5pWqaAlaB6RfCAeMNXo7x6U7IsaH/+02/WKWzkhAICAAEB7InLD4VtqbPxYyU6QNKtZ+SBoTtAcAnOnzH1Bpk+5XRY8wOkAAAQEAOIRkesO21zqvVOy4yXbtF5BXLHwJmi+7uPMekA1rpbcGVq+7NvueVeNcToAAAEBgHhF5NrDN1S28q0yHStph3XrXYLm9Wc9kA8Ic/lK7nyZneF2XngBpwMAEBAASK+aue7le8vpXTK9UqYRguarPU7QHOLhAcnOkXOfdrMXLuZ0AAACAgDpi8g1B26tTG+W9A5JT65WEBM0Z9YDPI/oV0nui3qw9w1uHggACAgAdFNEFs+ZpuElr1Zux8rpxav6FILmBM2hQe6W3FeVZf/pdrr0ek4HACAgADBAMnLgM5TZG5XpDTI9o3DRTNB83ceZ9YCpWS6n82T2LbkHz3WzF6/klAAAAgIAgy0jvz9gdzm9WdIRkrYgaI58QG1ySZfL3DmaNvwt96z593JKAAABAQBYu1xePGeasgcPlLM5kl4jaea6tTRBc4LmMAXXSO7rytzX3U6X3cHpAAAEBACgqIxcfcgmmr7iMJleJXMHSlqPoHkR+UA8BoxcTlfI3A9k+f+4nRf9iVMCAAgIAEBdGbllz/W0dMP9pfxQSa+U9ITKYhBMPgiaQ2Msl2mB5H6kETvH7bDwdk4JACAgAAChZMTmDOkPD+yp3M2R7DWSPTGseJSQB2Y9IBwPSLpQcj/S9LHvu+2veIhTAgAICABA4zIymunaS3aTsgMlHSjpRZKG/ckHQXNobbTtSfqFcne+nLtA9wxd4fadP86JAQAEBAAgJiH5zQHrayTfU84Ok+xwSdsGlw+C5uCPGyS7UC67UD1d6HZZ8ACnBAAAAQGAlITkD/tvp15vf8ntL9OBkmYRNIeIeFimy+Xchcp1odtlwVWcEgAABAQAuiIjN+4zQ8v1QuXZPnK2j6Q9JM2oLA4EzaH8CLpMsl9ImqfcLtC903/BsioAAAQEAAZFSObtM6yt3K4yWzVDIttL0np9C39mPaA4S2S6QnILNaQFWm94gXva/OWcFgAABAQAQHb9QdM1tmIPOdtHue0jpxdIWp+gOZTgFpkulbRAmS7TTguvcY7GAwBAQAAAiijDvH2G9QQ9W9ILJdtD0gsk7SApKyUWtcQD+YiYlXL6reR+IdlCyV3mZi/4M6cFAAABAQDwJyXX7rWheiO7yuW7y7SXpJdI2jKMfCAeETEu6Q9ydpXy7Cplukozh69kORUAAAICANC8lFy993YaGtpdZrvIaRfJdtHq2/9O+EcEzSNmpaSrZbpKzq5SNnSVHnnkt+55V41xagAAEBAAgDil5Ff7bKzp+S6PS4npOZJmSzaTWY9oGJPcHyUtlvJrV/139nstX3YNsgEAgIAAAKQvJTZnSFff/gxlbic5t72Uby/ntpfpmZK2Rj6CsVzStZJ7VDLy38vya7Ri7I+IBgAAAgIAMJhysnifDaQV2yvPtpdslZg4PVOmbSVtRd87JeOSbpPpZjndJOkmmbtZWX6TetlNunbrm93cc3qcJgAABAQAAArJyexpchttrXzoSVLvyXLaRtJTZNkTJW0jZ0+VaUtJwx08/Eck3SPpTsnukdPdkv4sczcpz27SyNjNunPGrdzMDwAAAQEAgCYl5ew5Q5p9zxZSb1PJVvuPNpWyR//7sf+tTWXaRKvuAr+enGbIproBY20ekrRM0sOSHpT0iEzL5PTAo4Jxv5zukexOWXavMrtHrnenVs66x+16/sO0LgAAICAAAF2UmOsPmq5lS2ZqaHi6euMzpd40aWh9DfWG1Bvqv4RpOHtI4/mq51m+VNPdMrfDwiWcWQAAAAAAAAAAAAAAAAAAAAAAAAAAAAAAAAAAAAAAAAAAAAAAAAAAAAAAAAAAAAAAAAAAAAAAAAAAAAAAAAAAAAAAAAAAAAAAAAAAAAAAAAAAAAAAAAAAAAAAAAAAAAAAAAAAAAAAAAAAAAAAAAAAAAAAAAAAAAAAAAAAAAAAAAAAAAAAAAAAAAAAAAAAAAAAAAAAAAAAAAAAAAAAAAAAAAAAAAAAAAAAAAAAAAAAAAAAAAAAAAAAAAAAAAAAAAAAAAAAAAAAAAAAAAAAAAAAAAAAAAAAAAAAAAAAAAAAAAAAAAAAAAAAAAAAAAAAAAAAAAAAAAAAAAAAAAAAAAAAAAAAAAAAAAAAAAAAAAAAAAAAAAAAAAAAAAAAAAAAAAAAAAAAAAAAAAAAAAAAAAAAAAAAAAAAAAAAAAAAAAAAAAAAAAAAAAAAAAAAAAAAAAAAAAAAAAAAAAAAAAAAAAAAAAAAAAAAAAAAAACALuM4BQAAg9cnm1nxD+UaHSqMrwEAAIMdAABU7D8nKvQ/9rGPNdr3Ll682Ov7zZ49u3FJ+Jd/+RerIUVIDQAAAgIAEH8fuLo8VJWGKsX/nDlzpnz8mmuuSa7v3mmnnaaUgHPOOacRCVpdZApIDOICAICAAABU69OqyEQReVhbFtqUg9tvv32N9959992Dv+dVV131+P+/zTbbtFqwry05/aSmjMQ8Ji59pAVhAQBAQACgy31VWamYTChCScTtt9/ufEnAHXfc0Zn+euutt65dqF911VVehWd1eZlKXIpISwFZQVQAgEEdACC2vugxuegnFkWkoqpQlBWIOpKw00476c477xzoPnmrrbayR9sruNjUFZgiwjKVrCApAMCgDwAQoWBMJBePiUUVqSgqFEVFoo403H///fS/Bdh0000rF+JbbbWVFZWZIvJyxx13lP4s/USlhqQgKACAgAAA/Uldwag6a7H11lu7ukKx6aabFn6/EPLw4IMPOkl68pOfPLBfoFtuuUWStNFGG3kvrouKTBFp6ScrZWdXHpOUKoKCnAAAAgIASMYUgrG6ZBQVjKlmLfqJRRGpqCsTDz74oCsrDQ899FDtvnfrrbcO8rp1mTVrlk3QTt5fs4jM1BGZIsLST1amEpUykjKZoFSQE8QEABAQAEhfNOpKRlXB6CcXVcSiqEwULfQfkwQfYvDwww93or9ef/31axfBjwlJGbEpIjFVpWUqWakqKUWXe5WVE2ZNAAABAYBkRaOMZEy2RGoyweiXrSgjF0Wkop8gbL311qUlYiph2GKLLbw03tKlS6PuwzfYYAMvRe0999zjTWqKystUwlJFVKaSlPvvv998y4knMUFKAAABAQC/slFk6VRd0agiGUUFo59cTCUNRaViMpEoIxFFRWHzzTcvJTIpM5E03HvvvUHkZiKBKSots2bNsqlkZTJRKSMpbchJETGZIgSPmAAAAgIA1WRjolkNn6LhQzJmzZrlyshFkWVPExX1RYRiKpFYXR6qSsMjjzwy0H3yzJkzKxW2q8tEP4kpIi5rC0s/WZlKUkIKykRyUlVMJpoxKSElCAkAICAAyIYf2WhCNKaaxZhIIvrNXKxd/PcTi8mkoopQlBWI5cuXP/78jTbaiG/yX78Tj///M2bMKFXcFpWYx6RiKmGZSlbKSEpZQSkqJ3XFpF8QHikBAAQEACoLh0/ZmCz8XVU0ykpGGcGYSC4eE4siUlFEKB6TiLoCsbqMhJCSiV6/KmWloKhs+Hrtx16zyGv1E5Z+ojKZpJQRlIcfftiKyslDDz1USUwmC8OvLSY+pQQhAQAEBKAD12lR2ZCmzmzUkQ2forH++uvXkoyqgtFPLJYvX+6qFP9lZjSqCsGsWbOCiYVvVheAhx56KJjs1JkxKSorU4nKVJJSRFAmk5PJZk6qiEkdKSmyfKuCkCAlABQ2ADBIwuFLNibKZ1QVjaKSUVcwyshFEaEoIgCPSUNIWdhwww1bk5K1i/clS5YEfZ8iMjOVUJSZIVn9b6Z6/mSCUlZOqopJlaVcRaVkouVbU0lJkZA7QgJAoQMAEV2HE0lHGeGY6L4aawvHRJkNH7Ix2dKpqqIxmWT4EIx+S6emKuJnzZpVq8jfcMMNa0vCihUrkum/p0+fXquwnDFjhlWVmiLSMpFYlJWUqQSlrJxUFZOJlnKtLSZVpKRIpqSMkLBkCwAQEICWr70mhKPs7MZEy6h8yYYP0SgiGVMJxmTFfxWxKCMTVaRh9b/ZYIMNkv/iL126tJaUFP27stIyY8YMm0xS6gpKWTnxKSZFpGSq5VttCAmhdgAEBAACXGtFpKPOkqqywrH27EbRZVRlZGOqpVNVRaOsZJQRjCJiUUQoHntOUXkoIynrr79+9F/8hx9+2KtYPCYxRZ/f73lFRWWqmZTJBKWfnEz2nKlmTMpIyURCUmT5VtlZkjpCUiTUzuwIAAICABWur35Zjn6zHP2Eo+ySqn7C0W92w7dsVBWNOpLRTzCmEoEiUjHV3xcVh5UrVxbuo2fOnBnFl/6RRx4p/Nxp06YVLiQnE5l+glFEVqZ6vIygFJET32JSRErKzpKUEZIiMyS+Z0eQEQAEBABKSEeZpVVlZzl8C8dUsxtFl1FVlQ1fojEyMlJaMFasWOHKikU/oZhMJCaShjLSMdX7NSkkjzzySCmZKCMkkwlNv/ebSFgmE41+kjLZY0XkpIiYFFnOVVRKJlq+VXaWxKeQ9Au1T7XtLzICgIAAQIFryWzV+DeZeDQlHf0yHHWEY7LZjVCy0U80pprJKCsZZeRiIlFYu+gvKhPDw8OV+mIfshKaqmIyPj5uZV9/IlmZ6v3XlpQqgjLRv1cVk7KzJStWrKg0S+JbSCbLkPicHUFGABAQAFjr+plqtqOOdJRZWtVvlmOqDEeVGY6ywuFDNiab0ZhIHIpKRlHBWF0u+hX+RYSiqjxMNbMRg5BMVvCXWZpVVmKKzMBMJSoT/W0ROfEtJv2kpN9MyUTCUkVIplqytXaGpE6gHRkBoIACAI/S8Zh4xCYdZWY5fAuHD9mYbEajyHMnEo3VC/aigjGVXBQVgP/f3t3kpg4EQQAmSmTCAXP/YxAMUd4KadTqv2r3GHipWgYzyQIkf6pup9qUjNefTqeX+dL8/PzAN4BRs1GBiteq3N+L4gSBSQUl67r+WiCx0DELJBFGJEiQUS0PI9kxLUKEYQgQhvmT8PDQIR+XWx2v8tDhjVZ1jFXNAoc1RiURkWk1stCwbvq9/YkICkhLgiDier2qZz07Qs7ns4XL9I1gBi8IViykWDixzkZhgqDker26S/FjS4KAJDOy9WiMyJ0RtiIMQ4AwDOExwKOj7ajudGSbjo6W43g8ph6Ri4Aj225o4PCwgUDDajI8OERnZmAhMWFd+wr7HR2xQCDxEqHFg0oWKNYSvPZzrTHpQAnakngg8Ua2Mu1IF0aqOyOVVkQ+1pcQYRgChGFe7rtRHbOa0XZUx6tQdFRbDrTh0MAhYdKBDavRiJ5M5TUkFhpGXGjXVFBxOp3aMHK73Taf8/Hx0fK0K6sdQcEynuMhxQKKNXoVwURrTDIo6WhJrIYks0PyihjpaEUIEYYhQBjmT8Iju9vhtR2VEast6ND+/0YWHR4mZoFDw0YVGu/v728eMiQwECRYZ1tYOB6PuyJjNk4ulwv0HgQsKFDO53O64ZiNkmpDYoHE2x95BEa8p2l1tCKV8SxChGEIEIZ5WXggS+WV3Y5ZI1aV8SoLHZmWQ45UIeDQbvC1MSrv8bjaawg0MsiIGos7ECxUWIDQrrd2Q54lViMxAiQDkfv13jXorsiIE+3v1M5DUaKNb0Ug8RoSDRrVdmQPjFRaEWtXpBsibEQYhgBhmKf4DlR2PJDGYw94bG07ZqAj23JkGg4JDq/dyGKjAg0PGbfb7S2Li/G6CBOfn5/uB/lZMBLtanx/f0Pvl1jREBIBJcLJCIBOlFRAkh3ZyrQjnc2IXGCvQERihBBhGN58MQzh8UB4VJbKO9qOvdFhtRxbR6pQcCDY0M6wWowKMDRYZDEx/r5lWZ7ii7WuawiGLFwsrIzXRuNcl8ulBJMqShCQyJGtajtSxciMVqQyntUNkcyOCLisToQwDAHCMD2f++rjdMdxq8py+dbGA4FHZ9sR7XRkx6sidGRaDuu9Egtou2Fhw4NGhAwJDA8X93M9TCAjWlXYoFCQN/xWLAjc0RJhRf5uDSj3azyYeI1JBiUWSLR9kmVZfmdiJIKGfN16opbVivwvEPGemsX9EIYhQBhml897d+uRgYe3XN49alWBx7IspWXy8fXseFUVHVpDIpfBsw2HNkalNRsaNiJoWDf6HjC89iSDB2RRfXY8hGg37pkxq3VdTaBEMNEaEw0l3SDJtiMoRjJL7FErYkEEbUW2QKSyI5JZVp88lkWEMAwBwjB9+Pj6+jocDodwydxrPdBxK/lUq44dD3TUSoNHNGZltR3IiJUcr8qiY0vLId/rtRtbsGFBA2lO0CX1SmuyJV5bIcewvOstrGTHrLz2ZDzDQol1NgqSPTHS3Yog41kzGpHMU7P2bkOIEIYhQBim5XNeGbl6dOvhjVtllsu7G48KPNC2IzNeJdGBthxaw2GBI4ONDDQyyJBQ8M5FsNG9H4IAI7puPMtbMEdgYqGkGySdGInGtJBWxNoVeQREvGX1rWNZM9oQjmQxzD75B3iLg7YDznKyAAAAJXRFWHRkYXRlOmNyZWF0ZQAyMDIyLTExLTA3VDE2OjU0OjA3KzAwOjAw7UHgBAAAACV0RVh0ZGF0ZTptb2RpZnkAMjAyMi0xMS0wN1QxNjo1NDowNyswMDowMJwcWLgAAAAASUVORK5CYII=;labelBorderColor=#121212;fontColor=#FFFFFF;" parent="1" vertex="1">
          <mxGeometry x="277" y="157.01" width="80" height="87.7" as="geometry" />
        </mxCell>
        <mxCell id="QPryyxgIFDQZirliz8h7-41" value="&lt;div&gt;&lt;font color=&quot;#ffffff&quot; style=&quot;font-size: 16px;&quot;&gt;&lt;b&gt;End To End MLB Rumors Data Pipeline with Apache Airflow &amp;amp; AWS Services&lt;/b&gt;&lt;/font&gt;&lt;/div&gt;" style="text;html=1;align=center;verticalAlign=middle;resizable=0;points=[];autosize=1;strokeColor=none;fillColor=none;" parent="1" vertex="1">
          <mxGeometry x="101" y="84" width="597" height="31" as="geometry" />
        </mxCell>
        <mxCell id="QPryyxgIFDQZirliz8h7-42" value="Tableau" style="shape=image;verticalLabelPosition=bottom;labelBackgroundColor=#000000;verticalAlign=top;aspect=fixed;imageAspect=0;image=data:image/png,iVBORw0KGgoAAAANSUhEUgAAAyAAAACmCAYAAAAiceswAAAABGdBTUEAALGPC/xhBQAAACBjSFJNAAB6JgAAgIQAAPoAAACA6AAAdTAAAOpgAAA6mAAAF3CculE8AAAABmJLR0QAAAAAAAD5Q7t/AAAACXBIWXMAAC4jAAAuIwF4pT92AAAAB3RJTUUH4gsUEAgrR7AxyAAAJV5JREFUeNrt3XmcXWV9+PHPJJPJSkISAgGChy2CNiooi1hUrKdVqPYHxaUkLq1tTKvYYP1JSVtP9VaLYquk2lrMC6nSgHVBwSpFr4rFCiXIIlEWWXJZJBCykgWSzEz/eJ4xQ5jlnJtzZ+6983m/Xvclzpx75+Z7znPO833WDrRPzrvkitcC1wBT+v34DuC0i5cs3GSEJEmSpD3GGQJJkiRJJiCSJEmSTEAkSZIkyQREkiRJkgmIJEmSJJmASJIkSTIBkSRJkmQCIkmSJEkmIJIkSZJMQCRJkiTJBESSJEmSCYgkSZIkExBJkiRJMgFpJr2D/KzH0EiSJEnP1tFMX2bd8gXjgdnA+EEO2TJn6eptjfjb511yxVHAB4GJBd96MPBaoLPfzzYA1wK7Cn7WHcA/X7xk4a6y/33nXLhiEjBziEN2XLls8SaLhCRJkhqps8m+z1xgJXDYIL//e+DSBv3tA4E/ArpK+KxZwKI63ncd8K91JC55vBL4DDBhkN9fDfyFRUKSJEljKQGZACTA4YP8fmYD/3ZvrPh3jeK/f3cDP3sqcNQQ53yuxUGSJEmN1mxzQIabO9Hb4L8/2kPSGv33e+r8nSRJklSKTkPwa7sJczeeLvi+CcC0vZKHbmBLHQnTU54GSZIkmYCMDXcBv0exXqFe4GTgU8Ckfj+/H3g3sLXgd9gM7PRUSJIkyQSkzV28ZOE24Lai7zvvkitm8NzhS9uBWy9estAeDUmSJKkf9wFpTAw7GHwpYUmSJMnKsyRJkiSZgEiSJEkyAZEkSZIkExBJkiRJJiCSJEmSZAIiSZIkyQREkiRJkgmIJEmSJJmASJIkSWp+nYZAkqTWl6RZB6FhsSPH4T21aqXHqEkyAZEkSfWaD1wATM5x7NXAlw2ZJBOQ1tQBjN/rZw5tkySNtDnAW4EpOY59yAREkglI67of+PBesXwceNrQSJJGUC+wO+exDr+SZALSqi5esvBB4ONGQpIkSRpesw0V6h7m97bYNC62vYZIkiRJjVZ3D8i65QumAm8GZpT4fWYN83mvXrd8QTf5VvjI6/o5S1ff0Uwn5ZwLV0wHfr/E2PYCL+a5c1X6e8E5F65YWvI/pXrlssU/t5hJkiRpnxMQYD/gb4CjRvD7/r/4KtOfA3c02XmZBWTAESP4N18WX2VaDJiASJIk6ddcrUmSJEmSCYgkSZIkExBJkiRJqpvL8EqSRkSSZr8NvDHHoT3Al2rVyq1GTZJMQAZ6SJS9NO5QvTK9lL9cbLMuPzu+Da6vDouYpH5OAt6X89ibABMQSTIBeZbNwF8SVsMqqxJ/ALAMmDPI778MXFty5fjmJjwvm4BPAzNLTLKOBd40RGJzJ/CNkv8dP7WISeonb4PVbtybSJJMQPY2Z+nqHWVXWNctXzAPOHeIBOTmOUtXX97uJ+XKZYs3AReX+ZnnXLji94CzhkhA7rhy2eK/tUg0ryTN5gJH5qyY3VOrVjYYNUmS1DYJSIOM38ffa3DDLTjgcKnm90bgH3IkID3A24FvGzJJkmQCIqleXcD0HMf1WLYlSVKzchleSZIkSSYgkiRJkkxAJEmSJKlujhOv09rzF8wEDh7ikA5gG/DQ3ItW9xgxSZIkyQRkX7wB+PgwCchPgHcA2w2XJEmSZAKyL6YChwxzzBxc3laSJEn6NeeA1K+X4fdjcCdfSdpjmyGQJJmASJJGytOGQJJkAiJJkiTJBESSJEmSCYgkSZIkmYBIkiRJMgGRJEmSJBMQSZIkSSPPjQhVikWLlx8FzBvgVz3A6pUrlm40SpIkSSqcgJx3yRVdwGF7vfdp4JGLlyzsNqRj1p8A5w3w8+3AW4DvGyJJkiTV0wNyGPBl4KD4/zuAnwFvA2zlHtvX0qQBft6DQ/0kSZK0DwnIBMJQm7n9fvZESZXMjmE+p8NTtk/GD/E7kwRpBCRp1gF0xfLYO8z9rgd4plat9Bo5SWPsXtkZ65x56o47a9XKbqPW3glIb3wo7v2zMuwCHoj/2zvABbbBU1a3rcDdgxTmDuBXhkgaMmnYHziE0AAzD5gDTGdPw8hOQi/wY8BDwMPAE7VqZedeHzcN+DhwTI4E5FfA/yc08ngewnmYDhwcz8WhhN74mexpRNkZnxWPxXPwSDwPzxhBJWk2DTgwXjd9185+wETCkOGtwJOxzD0OrKtVKzuMXO74ToxxnUcYMXNwjHFXv/rilhjjR+K98tFatbJ5gI97HQMP7R7oXnkx8J+egaa7HibHemcvsL1WrXTvSwLSSI8Dbx/ieznEq37/A5zO4L1I2wyR9KwbJ/EB+nLgNcBLgecBs+INdbBew92xIrMWWJ2k2fXAD4B7YgtdJ3AKcHyOr1EDJo/RU9Adz8MUYD5wInAS8KJYuZnNnp6koc7D48BdSZrdANwA3FmrVrZ7hY+ppPXQeO2cGstdAhxAGDY8fq+y3B1f22Ml+b4kzW6J186ttWrlSaP6nBhPBV4MnBbvbccSRslMHqI+10NobF4PrEnS7H+B7wH/W6tW+hqb5wFpzq/xtRaI0wzCnNj9Gb7xaQ3wjbJ7dWJ5OAN4YY7vsB34Wq1aebyOv/PC+G89KSb43cCDSZpdA1xXq1a2N1UCMmfp6t3YEt8QVy5bvIPQGihp6BvnOOAlwDnAG4Cj2NN6l0cnoZV+OvB84CzgUeC7SZp9kdATmfeh8jQwVlvuj03SbCnw+lhpnEOxoaL9z8N84PdiZeemJM2uBP6rVq2s94pv23LcBbwMeDOhJf0oQi/HcMbHV1esKB4dr8FtwJ1Jmn0DuKpWrdxnjLM5sTL7VuDk2DiT17h4Pg6Jr1cA7wZuT9LsCuCrfY0QObXCMNXZwF8Bh+c4tkro0Sl7WFkHsCg+34azHrgxNuLkvSbGAwuB8wm9W1fF/50CvBL4e+ANSZr9lcvwStKem+d8YEl8oM4r8YY/D3hXrARfS2h9zWPXGE1AxgPLCC2oZc79mw38LqFV9cYkzT4DfKdWrTzt1d82ZZiYsL4HOLNAWRvOVEJv6MuBdyVp9gXgi/W0DrdBjKcAbwTeR2jhnlBijH8zxvgcQi9yL+01/7e35OOa7TucGZOMzwEr4z18EmFY7LeBrwD/BFxoAiLJSktoLX1TrPQuaOCfOoAwzLRoAjPWdBBazBplImG4yAnAlUmafaJWrdxvSWj5crw/YUn495KvlblexwAXAqcnaVYBrh8rC0UkafZ84K/j/bJRZXQ8YbicWuvaOCReG98C/iH+95nAOkJv4k+ADwHvBy535SNJY/2mORP4CPCvDU4+1HymAYuBK5I0e7XhaOlyPB/4fEwMDh+BPzkuJrH/Drw7NmK0c3xJ0iwlbMPwjgY3EKg1vYbQy/y5uPjKocAqwpCsi4A/IPRw3QR83wRE0liutMwFPgV8kDBRTmPTScBlSZq9MQ7hUWuV4xOALxHme4z0yI5DCK29H4grQLVjfMcRhqV+gXyLZ2hsOhH4JdA3P6qHsCrhFsJ8km2EZeV7gB+agEgaq5WWWYRWmXcy9B45GhuOAD5LmCOi1inHJ8WK8ctH8WtMA/4GeF/cu6Kd4gthGM1ywqqA0mBmEIZbPd0vAXk98HXgUuBqwjAsgHUmIFLr6G3QsWOx0jKJMD51IW5wOpK2Nvm1+Tzg00maneipaolyfCzwGcLSzKNtSrynnN1mvWinEnp4DvKK0zC2sGd5awjDFFcThkbeSlj6t6+XcJaT0BtbGey1Iti2D74JPHvzs5G43qYXOH5mkmYHjWDluhvY0H+ToSY+dx3A24A/xZ6PkdYKK3rNBz6epNmiWrWy1lPWtOV4FmFDz5Oa6GvtD/wdYantO9ogxofFGB/hFaccbiWs9JjEMtABPFirVq5O0mwrcBlwdNxX59S2TkDWnr9gGmFZt0aYkeOYLmDu2vMXNGKTv25gw9yLVvd4zY+KYwjd/iM1Ea+XMLkrj3FAhbCD9kglIE8QVnd6tAXO3YsIq13ty7nbTtgo6h7ggfjv3xYTmlmElvRjYmX2AOxlKasMbCRsznhfjP+6eC46Y9wPJey98nzCbtf1xv004M+TNMvK3ghMpVSMxwPnsm/D5brj/epu4P5YhrvjfeHQWHaPpvgyvvOBZUma/XGtWtnWwjGeAPwFYX+OevUQltK9D7iXsPP5JsLeFlMJvSpHEzYuTMi3T4ua1w8IK1y9O0mz8wnzP/oaJX8Zz/2RhOXlX19PAtI7yM+asaX/jwkrnDTiQTgrx8PtJYSNZBqRJNQIK1E0y0ZaPUPEqrsNC9pk4Ddo3pVAnjfCf69vV+pmf6hOig/VI+v8iEcJSwxeQ2jhXFerVnYN8HfGESa1Hwm8mrAZ4Uns6ZpWfo8TVlL5HmH1lAeAzUPEfWqM+2uAs2Pci16b4wjLuV5L2AFbzeUVhKV266nD7AD+m7AfwY8JG/Q+3X8Z3ZjgTIvJxOmEoZrHFvgbb4yvL7dwjF8d6xj1JPHPEDaw+2qM9Rpge5x8vHeZ7YqJyAmEjV9fFxPAMuqmGlkPA58EPhHrqP8GbI6/eyjeUw8l7APy087zLrmi6Li+gXajnQAceN4lVxTdjGYXsPHiJQsbdeHMjZXE0TIVeEGDPnsSJa/2sWjxcghre9cznvaVg/y8C/ijRYuXF13icjfwHytXLL23iQubvU97dLfIA+BVhAmV9VRa/iPeOH823FCz+KDdDNwG3BZ3QH898Gex8uTQr+HdE2N+DfCLWrWyY9hWmRD3p2JyeEeSZpfHJOT9BSuQfc+6P0vSbJUbFTZVI8JU4DxCD1dRtxBWvft2rVrZMsR11B3L7y3ALUma/QdwAWEH6TzJ7JR47Xy3Vq1saMEYTyNsMjirjrevBv4RuLpWrWzMUWZ3xorrw0maXRPrH++MsZ5T4Pmz1dIxumrVCkmafSUm70tjvfBrSZrNjmXi5Hg/vgf4YCdhu/ciJvLcLsnnE7ZbL9rSfVt8IDeqm7KdK4g9DarwvYmw3F5ZJhDG2xe1G7id0G0rlfFQnUToFZ1R8K1PEPYJuSxPJXiQG/NGwoZ334/f4XzCeHENXqH4RK1auWwfH4jrgc8naXYjYX+IMyjWons6cArwQ09J03gtoZW86PNkJfCRWrXyYB3X0b1Jmi0lDCF5H/ka/04Gfjsm0a3m1THOResk1wDLatXK3XWW127g9iTN7iSsmPR35NuQsF1HWrRiErIrSbNLgJvZM9eyr7w8EhsAvlWrVrZ0Us7GW5Opr6X/KWwJbMYHfzPYjV2qKtfxdTxUnyAM2bqijJ2Oa9XKE0ma/SuhFehlnpIhKxSlNUzVqpU7kzR7N2HFpLMKJCH7A+ckaXaDc0GaohFhMqF1vMjczp2EJWQ/OlSvR45r6KkkzT5GmNt1Ro63TATekqTZ1a3UgxbnfvxBwRj3AlcCf1GrVp4oobx2A9cnafbvuCN6KyYhEHr+byMsnjM51um29B86O9qT0B3CImkkHqodhPHFswu8bTuh5+PKMpKPfjoKJNetMrStEUqduF+rVn6VpNkHgIMJvRp5/TZhZ+37LEmj7iWEBQKK1DH+DajUqpWtJVxD65M0+xRhGOX+Od5yKmHo3+0tFOPnE+ZPFfEj4C/LSD6sI7ZdIrIlvp5jtPcBsfdD0kiYSfHej68Thl2N5kNwK6HlSOU8ENcAH6bY4h3zsBW2WRoRzqDYvIQfE4ZdlTk/4Mb4uXnMAV7dYvuCvCom6XmtBT5Uq1YasQKiqwe2sU4g73jIHsLuhl2E1qD+E853EFY5GGj4zm7CiggDteL9DMftNZvxTXRtevNRWY6l2CTkR4BP1zvno0SNmus1lv2QMC7/PQXuRaclaXZ5K+xz08ZmFGxE2Ah8rFat/KrkJHZ7nMv1uzmeUR2EibifIwwFa/YkbwKhhylv43QvcHlMyhrBe1+bJyBpgQfhDuAoQsvg3H6/u5cwZnDDAAVyF4NvPtWX1DRKO1dgOxr077uB+oZ9vJSB5wHtJizD91jBz9sVK4HNbJy3kGfFopnL2wkU28jxm4QGErWZOEnyMsKCG3lXUjqeMHzvCSM4auYXbET4NmFoUCPcEetDeZZhXxCvs0daIMYHAi8ucPyjwJcamJhP8bJv4wTk4iULHyjyhvMuuWIGzx2Xtwt44uIlC5ttubmthI2qGmESYZ3/4SrRmxuUxa+n5PGRK1csZdHi5Z8DLqnj7Z8YJAHZSVgXulrHZzZza+MzhN7DqSP09/p2Qs87h6FvY7yRSgoej9d704lr+h9fIBZPAVfZ2t3W7iQ0tpyd8/jDCBulmYCMnuMJQynz2AxcWqtWnmnQd3mE0MOSp4J8KGHUSCskIEdSbA+OHxI2cmwUE5B2TkDqeE/HID9rxtbPL8RWkEYkAG8G/maYY+4gLNm3veS/3RErwBvL/ketXLG0p57EZtHi5UO9p3vliqXtNo79HsJGUyPVC9JL2Gn8wzmO7QEywsZtI1UudxPGAjejKYTW07zuimW3kRxeOIpq1cozSZpdR1gRK08Z3o/Q+7/K6I1KI0IHcFyBcrMJODZJs0Ma9JVmk3+48mTCbt8/boFQH03+RrXdwHWuDqeRTEBaxtyLVq9tVKVo7fkLTo6VwqFuiFuB2+detNpNrNqwAkP++VNlPYSLtL4+VqtWHvBMAaHVdG6B429pRHLfz6RYKdHoujWe5zy9ip3AEYZs1PRV4vM6jLDkciONL3Dc4S2Q5BGv8byNausIe7lJdXEMe2Nj14ErfWl0yqst7HvMJv/mgz3A6pKX3R3oPHpfGH0PAUUmKB8aW+I18qZRbGjQuJg0NvLVUfDaafb6VkdM3PJ6mOJzOyUTEEljxnTyDyvYSVjRT+3vKcIk2iKJrInj6NifYotINJvZNP+Ik/EU2yfpYcIoD8kERJIGSUDyPvx30riFK9RcdlFsUvk0n5mjWoZbedhiK1w7XfF75rWu/67WkgmIJD3bRPIPl9gRX2p/PQyyQ+8g9sMekNEyNZbjVtUK1864gnXCbU303bu9b5uASFIr68XNr8aEOM+nSKWl06iNal2llefftMp3b9V7XzeN3VNOJiCS1PCKghONx0CCFyeUF9nH52mTU9WpVXrOTPI0YmzRkdTutpF/b5vJuERuo8/FTsJSxKNtHMXGvBe5jlSu3QVi/wxwDfBkE1VK76NJN2rtpzvGOa+pSZpRq1Ya+Z1M+E1ARsaNh594GHA6A/fMdMRCXD1lzSovyoKSNDsc+J0hYntvrVr5vpFSG9oSK71dOY6dCBzYRN99e6wYtIvuJqrEdwEHFbyOui1Oo2IroQdqvxzH7gL+Bbi+Sb57B9Db4Ip6GXYSdpDP60BgQoMTqy4vfROQkfIC4LPxoh7IV4EfFszSFRxH2JhpsAK9EjABUbsmINvI19rdBSRN9N2fob1a3ZtpiNt+FNtb4gkTkFGzMZbhOTmOnQwcUatWmiUBaZUG0x6KrQA4L95TNza4jKpN1TsHpFEPEMfwSSrbemBTgXvQghHYNMxe3NGXAIcUOP6RFmjFblebYznOYzzwEjeNLCYuyvBQgbc8r2D5sU6ofU5AuoENe702+0CV1KQ2AY8UOP5EwsZnjdKJQwuawcsKnOedwP2GbNRsBR4sWIanG7bC7if/CJMDYhmSRiwBeQQ4hzCfoO/1Xoqtp67200vowh3oJY2mHcAvChx/LHB8A79PF629p0HLS9JsEvC6As/ADSYgo2oXsLrA8b8BvNiwFfZL8s8D6QRel6TZBMPWEBNoTA9Q0cU3GqbwHJCLlyx8GrjTa0N7+Rpw7wA/312w8ieVqlat9CZp9lNC722e5TD3A85O0uxHtWqlEfPNHFYw+o4DTi1w/P0U60VTuWWYJM1uJkxEz7OC2gzg95M0+0mtWnHeToFQE3qaZuc8/jXAAuA2Q1e66Qw+H3pfjAemtGQCIg1k5YqlNwM3Gwk1qVsIk4gPznn8mcC/eU23nyTNJgJ/QhhCkteN2Ms/2lbHCvIxOY9/UyzDdxi63DbGe94JOY8/GHhXkmbvb1BjTbspMipkf2AmxVYmy2M/YFbOY4suzVyIGxFKGgseAG4tcPzBwAeSNHMVlvbzBuDNBY7fDlTjJF2NnseAHxc4fh7w53G4nXKoVSs9QJWw+l5efUPyNbxt8ZXHgTRmRcaDyb/63w4a2PBiAiJpLDxYdwDfotgyqmcC5zrGuX0kafZSoEKxCco/I/SgaXTL8G7gmzEhzOutwB+6IlYhNwH3FDh+NvDRJM1eYOiG9RTweM5jpwKnJGlW9nc4ifxD7NaRfwVJExBJGsR1hEmWeXUBFwDvTdLMVataP/k4Hvgc8MICb+sBvk7+JWDVWD8GVhU4firwYeAtI52EJGl2eIv2oK4FrqLYyqbHA/+SpNkLR+k799L8O81D6FnKOye2g9BbO7vEa3IqoWEt7/SLewkr0JmASNI+qBE23CzyYJ0O/B3wkSTNDirpeziUJ59SJg8nadaVpNmZwJcIrX9F3A181f0/mqQAVyubgC9QbIjQQcA/Ae9J0qyhk2+TNBufpNkLkjT7MHAFzbWpad4Y9wJfAdYUfOtpwL8naXZGkmZlzS/Oe6/cRf6hTaMd25sLJEsnAGeX+BVOj+cpb+xvbuTcHhMQSWOl8tIbE5CfF3zrNOB84KtJmr0lSbOZJdx3HRIyfIxOTtLs6HqHwCVpNilJs5OBzxImIy8o+BG7gUsptjmbGu8a4PqC7zkQ+CTw+STNTiqxgkySZp1Jmh2WpNlZwCXAtcDfAvNbuJzfA1xG8WX0jwcuBz6dpNlLS+g5LlL2W6Vh58YC95SJwPlJmp1SwnX6G8Bfk38J3nXAfzcyEK6CJWkseRD4FPDPwOSCFeJXElqkfpqk2XeAnxCWZ11P2Kiu/8O6I76ni7DqyEzgcOAFwCsosVu9jROQpYTWv5uTNLuRsJrRGuBJwnKs3Xsd30lYOWYeYYO01xGW2j2wzu/w38DlTj5vuoaETUmafTKe4yIrmU0GFgGvBb6TpNk3CAtTrKtVK7lapJM061vCdE4szy8hbHr40vj/++/v09PCMe5J0uxSQot50crvLOBcwipk1ydp9l3CMr2PElZ02r1XsjCOPUvDziT0WM0n7OPyxja8hB+KSeq5OY8/ijC87X21auXH9fzBJM2OI/QCHlfgbT8A7jIBkaRyHqwkafYV4FXAH9bxEZNjpfZUwoTCX8XX44TVQvoerBMJexHMig/VObFyPLng39v7YT2WTACOiK+3EsYiPxHj/QRhc8C+JGRqrLgcRFjhZSb71sP/KPCRWrWyzlLTlH4EfAb4UB31mLnAuwirNz0I3J2k2T2EfV76GhP6jI/leGZ837z4OjSW6altfK/8VZJmHyH0aMyp4yPmAn9AWHFuQyxTa2PZ3dGvoaavgWZW/DuzY1zHt2lcu5M0+1JM0ObmfNtxhOFtnwW+XKtWcu1JFIcNnxUbc44t8DU3A5fVqpVnGhkLE5B94zAKqfUeANuSNKsAR1NsM7q97UfYk+CYBn7drTRwHfYWMy2+jmzw39kKfAS4wZA3bRnenaTZZwgLCry1zo+ZHN//wr0S/r17MjvH8LP+e8Dfx9fkOj9jfEws5njl/tpthLlMFxRoKEmATwDviL1K/0Pogd9E6BHuJWzSOT3eI19O6AV+SR11/Stjkt9QzgGpXzdhItzOIV67DJPUlBWYBwmtQj9r8q/q8J+RtQP4OPBFh141fRneGCtw3yvxYzsJwyb7XhPGcPLRty/IJcBynt0zpH1MoAk9eD+oo87+IuADwJeB7xP2bflufFXjZ34V+CvCMMWiyccq4JON7v0wAdk31wK/C5wxxOuCmJlKar6HwK3AEtzjQcFW4GPAP9aqFStbrVGG1wB/VnISomfHeAfwUcLcuR1GpLS4rgU+SOgNqUcXYQ7UfEIvx3HA8wlz3ibW+Zm/BD5Qq1YeGIkYOASrTnMvWv0oYUyjpNZ9CNyUpNk7CV3bZ2CjzFj1KGHY1RdNPlquDN+fpNkSQs/V2bTp3IFRjvG2OB/kcWAZ9S/soGfH9fYkzd5N2J/ohFH+OncB59aqlREbeurDVtJYfwj8AvgjwjjnZpt03G7DP3pormFluwlDF84BVph8tGwZfhD4U0JL/ZOW3YbE+GnCSkpvI8yPaqZy3NGq8a5VK7cA7wC+yejM9+sh9CC+vVat/GAk/7AJiCQrMNXKk4Qdk98aHwTbm+SrbWuzUG8kTJpsBncR9ndZWKtWbnCzwZYvwxsJm4a+jTAWfrTnYD5Fm82bqFUrPbVq5XvxPpkBDzTJV9vRyrGuVSt3EVZmuwC4bwT/9EPxuff2WrXy05H+dzsES5LCQ6Ab+GGSZquANFZkTmPk9+x4krDnxX/FZKinjcJ8F/B2wl4MryLsizKS8d0JrAa+BnylVq3c75XfdmX4uiTNbgHOjJW6l1H/mPh6PBzL7hVNVEEvO86PJWn2UeAqQu/hWYTVAEeyTvk0YV+gHwFXA3e3QQL9j3GPqXfEmB5N+UMKe2PcvgF8CfjZaC240WwJSJ4g9KBGxVayElOtbAW+maTZdYTJfa8HfqtfZbnMrv4eQo/AI8CdwE2EnXLvid+j3WK7g7BKyw+SNJtBmEB5MmHJyBcBhxH2Symzd347oaXvJsLiITfUqpXHvNLbugyvBy5N0uyamOyeTdgAdC6NGfmxPjYafCdeY/fEZKidYwzwC+BDSZp9ntBY83rgpFiOy076dhD2EPkl8FPCMrS3A4/G1braJa53JWm2DPh8vHZfR9jo8hDCMrv1Nrw8Fq/R6whDru4f7bjV/SC98fATx8WHcWeJldvTCJveDJYYfQt4D+WOk9tyyppV25vpAoy7rc4qObanE5bTmzDI768C3lvytbW5Vq1sR2VdF+cSlu7L46xatfJNo1Za7KcTWqOOi69j4kN2BmE/kEmDVGx6CUt27yAMp3oqPkQfImyCdg9wL1ADNsTlGcdifMezZ7f4Ywl7MxxJWPt+Dnv2AOkaIs47Y4y3ECbLPkBYZvl2Qs/LY+1eKUzS7BWxAjw9x+Efr1Ury8bI9TUxlt9XAL9J2GW7b8PKCQU/rpuwUdtjwM9jRfgm4K5atfLUGL9PdhI2alwQK8195XhOvE9OZfB9VXpiGd5OWJFuI2FxiFq8R94dy/RjY6lekaRZV7xWj41xnR+fPQfGe2Jnv3tiT6wfbyX0pD9CGNK1Ot4DHx6J5XXz2pcekFnAF2MgyjKNobubXkXo2iyzNf9CQldpMzmIsEnNoSV+5vRhzvdvUf5Shh8Gvm71tTQPAv+Z4/rvjQ9HlaRWrWwBbo0vkjSbEh+os2MlZr9Yxva+f+2ID4OtsdKyMf73jnavDBeMb3d8YD5JXBY5VmamsGcn6v3jM2K/AZKQrTG520xojd4EbDPGitfXMzFZ+HmSZl+I19JhwPNikntoLMszeG4rc09MatfH++qD8fVwbDRwv689cd5NGN6zBvjPJM0mxKRjZozv9Fh+pwwS474GhE2xLG9vpgrzKMV0Z79r7tokzTriNTqRsDlkV7/nTjdh7tP2mMztaOb9jDr38b3HAkeM4PedEV9lOqAJz0tXjG0ygn9z//gq0yxvyaX6L8LGQ3m4mk9jHwrb403+caPR0MrMlvh62IioxGR3fXzd3vfzJM0g9Ibs3YjQC+xqp2E+IxjrXTGZ2BQr0Nr3mPYSGrZ20DwLeox4AtKXtba6Zs0Oja0GenDaoitJ5d9fIbQe26MhjQCX4ZUkSZJkAiJJkiTJBKQdE5iONj03xlaSJElNZ1/mgHQTlpIss5I5mbC02GCfuQ1YV3IMNjfhedkdY1vmHIophKXwRjK2WyxikiRJKisB2UDYKXhCSd+ll7DM7qVDfK8fAUspdyLu+iY8L2uBRZS3UWQv8DvAZ4c4X1Xg/SX/O560iEmSJKmUBOSUNau6CZuclObGw0+cz9Ct/luBB05Zs6opVohatHg5DD5UqhfoXbliaeHPjctPlrrsZJJma4eJ7VO1asVl8iSptTn0VVL7JiANMty8h454TLMsUXswsIywyc7e33MV8M+Uu2t7o2MrSWpdDwJ/SdikrHeY+/0qwyXJBKQ1zQDeQti5fG/7AZ8zRJKkkVCrVh7zuSOpFbgM777rLvhzSZIkyQREkiRJkkxAJEmSJJmASJIkSZIJiCRJkiQTEEmSJEkyAZEkSZJkAiJJkiTJBESSJEmSTEAkSZIkmYBIkiRJkgmIJEmSJBOQVtMzxO9640uSJElS1GkIYNHi5ROAA4DxBZOGg+N7BjIFmLdo8fKdBT6vA9gBbFi5YqnJiyRJkkxA2tQRwBeB2QUTkK74noGcClxX8PM6gOuB9wHPeFokSZJkAtKeJgJHE3pByjINmF/H++7DoXGSJElqU1Z09+hpku/h0CtJkiSZgIyQDgafU2HCZGwlSZLU4pptCNYDwCcHqSh3AHfQPD0VreZe4B+GiO2thkiSJEljKgE5Zc2qe4ELRuFP9xBWn9pR4D29hF6DibECv7duYGcd3+UZGjAMq1at/HyUYitJkiQ1ZwIyimrAOwmrWhVxGHARA6+EdRPwMWB3wc98ss7ERZIkSWp6HYagfosWLz8a+BFwyAC/vgp488oVSx0yJkmSJEVOPN43ncMkd/YwSZIkSSYgkiRJkkxAJEmSJJmASJIkSZIJiCRJkiQTEEmSJEkyAZEkSZJkAiJJkiTJBESSJEmSTEAkSZIkmYBIkiRJkgmIJEmSJBOQdtFhCCRJkqR8Og3BPukGNgGTBkhKthoeSZIk6dn+D7bCXn9ACWdAAAAAJXRFWHRkYXRlOmNyZWF0ZQAyMDE4LTExLTIwVDE2OjA4OjQzKzAwOjAwPhw4LgAAACV0RVh0ZGF0ZTptb2RpZnkAMjAxOC0xMS0yMFQxNjowODo0MyswMDowME9BgJIAAAAZdEVYdFNvZnR3YXJlAEFkb2JlIEltYWdlUmVhZHlxyWU8AAAAAElFTkSuQmCC;fontColor=#FFFFFF;labelBorderColor=#121212;" parent="1" vertex="1">
          <mxGeometry x="240" y="510" width="240.95" height="50" as="geometry" />
        </mxCell>
        <mxCell id="QPryyxgIFDQZirliz8h7-43" style="edgeStyle=orthogonalEdgeStyle;rounded=0;orthogonalLoop=1;jettySize=auto;html=1;startArrow=open;startFill=0;endArrow=none;endFill=0;strokeWidth=2;strokeColor=#808080;exitX=1;exitY=0.21;exitDx=0;exitDy=0;exitPerimeter=0;fontColor=#FFFFFF;labelBackgroundColor=#000000;labelBorderColor=#121212;" parent="1" source="QPryyxgIFDQZirliz8h7-1" target="UEzPUAAOIrF-is8g5C7q-122" edge="1">
          <mxGeometry relative="1" as="geometry">
            <mxPoint x="520" y="372" as="sourcePoint" />
            <mxPoint x="638.5" y="400.64" as="targetPoint" />
            <Array as="points" />
          </mxGeometry>
        </mxCell>
        <mxCell id="QPryyxgIFDQZirliz8h7-66" value="Assign Permissions" style="edgeLabel;html=1;align=center;verticalAlign=middle;resizable=0;points=[];fontColor=#FFFFFF;labelBackgroundColor=#000000;labelBorderColor=#121212;" parent="QPryyxgIFDQZirliz8h7-43" vertex="1" connectable="0">
          <mxGeometry x="-0.0766" y="-3" relative="1" as="geometry">
            <mxPoint x="-13" y="-9" as="offset" />
          </mxGeometry>
        </mxCell>
        <mxCell id="QPryyxgIFDQZirliz8h7-46" style="edgeStyle=orthogonalEdgeStyle;rounded=0;orthogonalLoop=1;jettySize=auto;html=1;startArrow=open;startFill=0;endArrow=open;endFill=0;strokeWidth=2;strokeColor=#808080;exitX=1;exitY=0.79;exitDx=0;exitDy=0;exitPerimeter=0;fontColor=#FFFFFF;labelBackgroundColor=#000000;labelBorderColor=#121212;" parent="1" source="QPryyxgIFDQZirliz8h7-1" target="QPryyxgIFDQZirliz8h7-20" edge="1">
          <mxGeometry relative="1" as="geometry">
            <mxPoint x="520" y="406" as="sourcePoint" />
            <mxPoint x="540" y="450" as="targetPoint" />
            <Array as="points" />
          </mxGeometry>
        </mxCell>
        <mxCell id="QPryyxgIFDQZirliz8h7-48" value="Upload Data" style="edgeLabel;html=1;align=center;verticalAlign=middle;resizable=0;points=[];fontColor=#FFFFFF;labelBackgroundColor=#000000;labelBorderColor=#121212;" parent="QPryyxgIFDQZirliz8h7-46" vertex="1" connectable="0">
          <mxGeometry x="0.1493" y="-2" relative="1" as="geometry">
            <mxPoint as="offset" />
          </mxGeometry>
        </mxCell>
        <mxCell id="QPryyxgIFDQZirliz8h7-49" style="edgeStyle=orthogonalEdgeStyle;rounded=0;orthogonalLoop=1;jettySize=auto;html=1;startArrow=open;startFill=0;endArrow=open;endFill=0;strokeWidth=2;strokeColor=#808080;exitX=1;exitY=0.5;exitDx=0;exitDy=0;fontColor=#FFFFFF;labelBackgroundColor=#000000;labelBorderColor=#121212;" parent="1" source="QPryyxgIFDQZirliz8h7-42" target="QPryyxgIFDQZirliz8h7-20" edge="1">
          <mxGeometry relative="1" as="geometry">
            <mxPoint x="501.5" y="534" as="sourcePoint" />
            <mxPoint x="580" y="460" as="targetPoint" />
            <Array as="points">
              <mxPoint x="550" y="535" />
              <mxPoint x="550" y="460" />
            </Array>
          </mxGeometry>
        </mxCell>
        <mxCell id="QPryyxgIFDQZirliz8h7-50" value="Fetch &amp;amp; Visualize" style="edgeLabel;html=1;align=center;verticalAlign=middle;resizable=0;points=[];fontColor=#FFFFFF;labelBackgroundColor=#000000;labelBorderColor=#121212;" parent="QPryyxgIFDQZirliz8h7-49" vertex="1" connectable="0">
          <mxGeometry x="0.2233" y="1" relative="1" as="geometry">
            <mxPoint y="11" as="offset" />
          </mxGeometry>
        </mxCell>
        <mxCell id="QPryyxgIFDQZirliz8h7-62" value="&lt;font style=&quot;font-size: 11px;&quot;&gt;Orchestrate &amp;amp; &lt;br&gt;Execute&lt;/font&gt;" style="edgeStyle=orthogonalEdgeStyle;rounded=0;orthogonalLoop=1;jettySize=auto;html=1;startArrow=open;startFill=0;endArrow=open;endFill=0;strokeWidth=2;strokeColor=#808080;exitX=0.99;exitY=0.438;exitDx=0;exitDy=0;exitPerimeter=0;fontColor=#FFFFFF;labelBackgroundColor=#000000;labelBorderColor=#121212;" parent="1" source="QPryyxgIFDQZirliz8h7-13" target="QPryyxgIFDQZirliz8h7-1" edge="1">
          <mxGeometry x="-0.004" relative="1" as="geometry">
            <mxPoint x="365.0000000000001" y="394.6153846153845" as="sourcePoint" />
            <mxPoint x="426" y="394" as="targetPoint" />
            <Array as="points" />
            <mxPoint as="offset" />
          </mxGeometry>
        </mxCell>
        <mxCell id="QPryyxgIFDQZirliz8h7-12" style="edgeStyle=orthogonalEdgeStyle;rounded=0;orthogonalLoop=1;jettySize=auto;html=1;startArrow=open;startFill=0;endArrow=none;endFill=0;strokeWidth=2;strokeColor=#808080;exitX=1;exitY=0.5;exitDx=0;exitDy=0;entryX=-0.034;entryY=0.562;entryDx=0;entryDy=0;entryPerimeter=0;fontColor=#FFFFFF;labelBackgroundColor=#000000;labelBorderColor=#121212;" parent="1" source="QPryyxgIFDQZirliz8h7-11" target="QPryyxgIFDQZirliz8h7-7" edge="1">
          <mxGeometry relative="1" as="geometry">
            <mxPoint x="420" y="203.63" as="sourcePoint" />
            <mxPoint x="488" y="203.63" as="targetPoint" />
            <Array as="points" />
          </mxGeometry>
        </mxCell>
        <mxCell id="QPryyxgIFDQZirliz8h7-15" value="&lt;font style=&quot;&quot;&gt;Data Extraction&lt;/font&gt;" style="edgeLabel;html=1;align=center;verticalAlign=middle;resizable=0;points=[];fontColor=#FFFFFF;labelBackgroundColor=#000000;labelBorderColor=#121212;" parent="QPryyxgIFDQZirliz8h7-12" vertex="1" connectable="0">
          <mxGeometry x="-0.2207" y="2" relative="1" as="geometry">
            <mxPoint x="16" y="-2" as="offset" />
          </mxGeometry>
        </mxCell>
        <mxCell id="QPryyxgIFDQZirliz8h7-67" value="" style="edgeStyle=orthogonalEdgeStyle;rounded=0;orthogonalLoop=1;jettySize=auto;html=1;startArrow=open;startFill=0;endArrow=open;endFill=0;strokeWidth=2;strokeColor=#808080;entryX=-0.01;entryY=0.599;entryDx=0;entryDy=0;entryPerimeter=0;fontColor=#FFFFFF;labelBackgroundColor=#000000;labelBorderColor=#121212;" parent="1" source="UEzPUAAOIrF-is8g5C7q-109" target="QPryyxgIFDQZirliz8h7-13" edge="1">
          <mxGeometry relative="1" as="geometry">
            <mxPoint x="210" y="386.37" as="sourcePoint" />
            <mxPoint x="271" y="385.37" as="targetPoint" />
            <Array as="points" />
          </mxGeometry>
        </mxCell>
        <mxCell id="QPryyxgIFDQZirliz8h7-68" value="Deploy" style="edgeLabel;html=1;align=center;verticalAlign=middle;resizable=0;points=[];fontColor=#FFFFFF;labelBackgroundColor=#000000;labelBorderColor=#121212;" parent="QPryyxgIFDQZirliz8h7-67" vertex="1" connectable="0">
          <mxGeometry x="-0.1149" y="3" relative="1" as="geometry">
            <mxPoint x="3" as="offset" />
          </mxGeometry>
        </mxCell>
        <mxCell id="UEzPUAAOIrF-is8g5C7q-122" value="IAM Roles" style="outlineConnect=0;fontColor=#FFFFFF;gradientColor=none;fillColor=#C7131F;strokeColor=none;dashed=0;verticalLabelPosition=bottom;verticalAlign=top;align=center;html=1;fontSize=12;fontStyle=0;aspect=fixed;pointerEvents=1;shape=mxgraph.aws4.role;labelBackgroundColor=#000000;labelBorderColor=#121212;" parent="1" vertex="1">
          <mxGeometry x="589" y="280" width="88" height="49.64" as="geometry" />
        </mxCell>
      </root>
    </mxGraphModel>
  </diagram>
</mxfile>
